{
.appVersion = "128";
DisplayStrings = (
v,
i
);
copyright = "http://www.ScrubS-StyleD.dd.vu";
date = "2003-09-19 23:47:49 +0000";
familyName = "TSS Scrubs Logo";
featurePrefixes = (
{
automatic = 1;
code = "languagesystem DFLT dflt;\012";
name = Languagesystems;
}
);
fontMaster = (
{
ascender = 1491;
capHeight = 700;
descender = -431;
id = "677F3FD9-5632-41B7-A1B7-A5DADB8D655F";
weightValue = 400;
widthValue = 5;
xHeight = 500;
}
);
glyphs = (
{
glyphname = A;
layers = (
{
layerId = "677F3FD9-5632-41B7-A1B7-A5DADB8D655F";
paths = (
{
closed = 1;
nodes = (
"1045 -64 OFFCURVE",
"1098.167 -63.667 OFFCURVE",
"1146.5 -63 CURVE SMOOTH",
"1194.833 -62.333 OFFCURVE",
"1227.667 -28 OFFCURVE",
"1245 40 CURVE",
"1115.667 209.333 OFFCURVE",
"1015.5 396.667 OFFCURVE",
"944.5 602 CURVE SMOOTH",
"873.5 807.333 OFFCURVE",
"781.667 987.667 OFFCURVE",
"669 1143 CURVE",
"608.333 1185.667 OFFCURVE",
"533 1207 OFFCURVE",
"443 1207 CURVE SMOOTH",
"353 1207 OFFCURVE",
"290.333 1174 OFFCURVE",
"255 1108 CURVE",
"296.333 1039.333 OFFCURVE",
"313 954.833 OFFCURVE",
"305 854.5 CURVE SMOOTH",
"297 754.167 OFFCURVE",
"272.333 652.833 OFFCURVE",
"231 550.5 CURVE SMOOTH",
"189.667 448.167 OFFCURVE",
"145.333 346.833 OFFCURVE",
"98 246.5 CURVE SMOOTH",
"50.667 146.167 OFFCURVE",
"27 50.667 OFFCURVE",
"27 -40 CURVE",
"85 -26.667 OFFCURVE",
"137.167 -25 OFFCURVE",
"183.5 -35 CURVE SMOOTH",
"229.833 -45 OFFCURVE",
"275.333 -37.333 OFFCURVE",
"320 -12 CURVE",
"344 72.667 OFFCURVE",
"344 129 OFFCURVE",
"320 157 CURVE",
"432 295 LINE",
"504.667 282.333 OFFCURVE",
"579.833 283.333 OFFCURVE",
"657.5 298 CURVE SMOOTH",
"735.167 312.667 OFFCURVE",
"796.333 284.667 OFFCURVE",
"841 214 CURVE",
"853 170.667 OFFCURVE",
"853.333 128.667 OFFCURVE",
"842 88 CURVE SMOOTH",
"830.667 47.333 OFFCURVE",
"838.333 14 OFFCURVE",
"865 -12 CURVE",
"987 -64 LINE",
"987 -64 LINE"
);
},
{
closed = 1;
nodes = (
"562.667 497 OFFCURVE",
"539.333 508.167 OFFCURVE",
"508 530.5 CURVE SMOOTH",
"476.667 552.833 OFFCURVE",
"461 579.333 OFFCURVE",
"461 610 CURVE SMOOTH",
"461 662 LINE SMOOTH",
"461 676.667 OFFCURVE",
"472.5 699.167 OFFCURVE",
"495.5 729.5 CURVE SMOOTH",
"518.5 759.833 OFFCURVE",
"546 775 OFFCURVE",
"578 775 CURVE SMOOTH",
"636 775 LINE SMOOTH",
"680 775 OFFCURVE",
"694.5 757.5 OFFCURVE",
"679.5 722.5 CURVE SMOOTH",
"664.5 687.5 OFFCURVE",
"679.333 650 OFFCURVE",
"724 610 CURVE",
"724 593.333 OFFCURVE",
"712.167 570.333 OFFCURVE",
"688.5 541 CURVE SMOOTH",
"664.833 511.667 OFFCURVE",
"637.667 497 OFFCURVE",
"607 497 CURVE SMOOTH",
"578 497 LINE",
"578 497 LINE SMOOTH"
);
}
);
width = 1170;
}
);
note = A;
unicode = 0041;
},
{
glyphname = B;
layers = (
{
layerId = "677F3FD9-5632-41B7-A1B7-A5DADB8D655F";
paths = (
{
closed = 1;
nodes = (
"211 -8 LINE",
"240 -8 LINE",
"306 6 OFFCURVE",
"384.333 13.333 OFFCURVE",
"475 14 CURVE SMOOTH",
"565.667 14.667 OFFCURVE",
"652.167 14.333 OFFCURVE",
"734.5 13 CURVE SMOOTH",
"816.833 11.667 OFFCURVE",
"888 17.833 OFFCURVE",
"948 31.5 CURVE SMOOTH",
"1008 45.167 OFFCURVE",
"1054 98 OFFCURVE",
"1086 190 CURVE",
"1092.667 247.333 OFFCURVE",
"1096 302.333 OFFCURVE",
"1096 355 CURVE",
"1076.667 408.333 OFFCURVE",
"1040.333 470.333 OFFCURVE",
"987 541 CURVE",
"896 603 LINE",
"836 605 OFFCURVE",
"844.333 647.333 OFFCURVE",
"921 730 CURVE",
"975 815 LINE",
"1014.333 887 OFFCURVE",
"1027.5 954.167 OFFCURVE",
"1014.5 1016.5 CURVE SMOOTH",
"1001.5 1078.833 OFFCURVE",
"962.667 1131.667 OFFCURVE",
"898 1175 CURVE",
"667 1230 LINE",
"437 1224 LINE",
"252 1212 LINE",
"107 1221 LINE",
"51 1158 LINE",
"55 1077 LINE",
"90.333 989 OFFCURVE",
"126.667 890 OFFCURVE",
"164 780 CURVE",
"201 595 LINE",
"157 490 LINE",
"141 353.333 OFFCURVE",
"122.333 224.667 OFFCURVE",
"101 104 CURVE SMOOTH",
"91.667 57.333 OFFCURVE",
"100.5 33.667 OFFCURVE",
"127.5 33 CURVE SMOOTH",
"154.5 32.333 OFFCURVE",
"182.333 18.667 OFFCURVE",
"211 -8 CURVE"
);
},
{
closed = 1;
nodes = (
"558.667 177.333 OFFCURVE",
"522.833 180.167 OFFCURVE",
"482.5 170.5 CURVE SMOOTH",
"442.167 160.833 OFFCURVE",
"400 170.667 OFFCURVE",
"356 200 CURVE",
"318 307 LINE",
"332.667 319 OFFCURVE",
"349.667 347 OFFCURVE",
"369 391 CURVE SMOOTH",
"388.333 435 OFFCURVE",
"420.333 465.333 OFFCURVE",
"465 482 CURVE",
"522.333 482 OFFCURVE",
"582.5 487.667 OFFCURVE",
"645.5 499 CURVE SMOOTH",
"708.5 510.333 OFFCURVE",
"777.667 493.667 OFFCURVE",
"853 449 CURVE",
"853 437 OFFCURVE",
"862 416 OFFCURVE",
"880 386 CURVE SMOOTH",
"898 356 OFFCURVE",
"907 320.333 OFFCURVE",
"907 279 CURVE",
"892.333 207 OFFCURVE",
"851.667 177.5 OFFCURVE",
"785 190.5 CURVE SMOOTH",
"718.333 203.5 OFFCURVE",
"653.333 194 OFFCURVE",
"590 162 CURVE",
"590 162 LINE"
);
},
{
closed = 1;
nodes = (
"435 725.667 OFFCURVE",
"410.333 743.333 OFFCURVE",
"391 764 CURVE SMOOTH",
"371.667 784.667 OFFCURVE",
"347.333 815.667 OFFCURVE",
"318 857 CURVE",
"327.333 878.333 OFFCURVE",
"328.833 902.333 OFFCURVE",
"322.5 929 CURVE SMOOTH",
"316.167 955.667 OFFCURVE",
"334 990.333 OFFCURVE",
"376 1033 CURVE",
"428 1075 OFFCURVE",
"490.333 1093.667 OFFCURVE",
"563 1089 CURVE SMOOTH",
"635.667 1084.333 OFFCURVE",
"709.667 1074 OFFCURVE",
"785 1058 CURVE",
"840 1003 LINE",
"840 887 LINE",
"825.333 857.667 OFFCURVE",
"808.667 833.167 OFFCURVE",
"790 813.5 CURVE SMOOTH",
"771.333 793.833 OFFCURVE",
"739.333 769.333 OFFCURVE",
"694 740 CURVE",
"664.667 740 OFFCURVE",
"629.333 735.167 OFFCURVE",
"588 725.5 CURVE SMOOTH",
"546.667 715.833 OFFCURVE",
"505.667 711 OFFCURVE",
"465 711 CURVE SMOOTH",
"465 711 LINE"
);
}
);
width = 1025;
}
);
note = B;
unicode = 0042;
},
{
glyphname = C;
layers = (
{
layerId = "677F3FD9-5632-41B7-A1B7-A5DADB8D655F";
paths = (
{
closed = 1;
nodes = (
"447 -31 LINE",
"475 -31 LINE",
"613 -37.667 OFFCURVE",
"744.333 -37.333 OFFCURVE",
"869 -30 CURVE SMOOTH",
"993.667 -22.667 OFFCURVE",
"1095 27 OFFCURVE",
"1173 119 CURVE",
"1151.667 205 OFFCURVE",
"1109.5 235.667 OFFCURVE",
"1046.5 211 CURVE SMOOTH",
"983.5 186.333 OFFCURVE",
"880.333 157 OFFCURVE",
"737 123 CURVE SMOOTH",
"593.667 89 OFFCURVE",
"486.667 124.667 OFFCURVE",
"416 230 CURVE",
"290.667 330 OFFCURVE",
"224.167 446.5 OFFCURVE",
"216.5 579.5 CURVE SMOOTH",
"208.833 712.5 OFFCURVE",
"215.333 826 OFFCURVE",
"236 920 CURVE",
"279.333 992.667 OFFCURVE",
"337.167 1052.167 OFFCURVE",
"409.5 1098.5 CURVE SMOOTH",
"481.833 1144.833 OFFCURVE",
"547.667 1178.333 OFFCURVE",
"607 1199 CURVE",
"716.333 1211.667 OFFCURVE",
"805.333 1190.333 OFFCURVE",
"874 1135 CURVE SMOOTH",
"942.667 1079.667 OFFCURVE",
"999.667 1030 OFFCURVE",
"1045 986 CURVE",
"1173 1017 LINE",
"1191 1061 OFFCURVE",
"1201.5 1098.333 OFFCURVE",
"1204.5 1129 CURVE SMOOTH",
"1207.5 1159.667 OFFCURVE",
"1209 1183 OFFCURVE",
"1209 1199 CURVE",
"1113 1318 LINE",
"969 1318 OFFCURVE",
"838 1334 OFFCURVE",
"720 1366 CURVE SMOOTH",
"602 1398 OFFCURVE",
"479.333 1382 OFFCURVE",
"352 1318 CURVE",
"208 1224.667 OFFCURVE",
"113.5 1107.167 OFFCURVE",
"68.5 965.5 CURVE SMOOTH",
"23.5 823.833 OFFCURVE",
"1 676 OFFCURVE",
"1 522 CURVE",
"32.333 384.667 OFFCURVE",
"91.167 269.167 OFFCURVE",
"177.5 175.5 CURVE SMOOTH",
"263.833 81.833 OFFCURVE",
"353.667 13 OFFCURVE",
"447 -31 CURVE"
);
}
);
width = 1248;
}
);
note = C;
unicode = 0043;
},
{
glyphname = D;
layers = (
{
layerId = "677F3FD9-5632-41B7-A1B7-A5DADB8D655F";
paths = (
{
closed = 1;
nodes = (
"75 53 LINE",
"104 53 LINE",
"220.667 78.333 OFFCURVE",
"335.333 81.333 OFFCURVE",
"448 62 CURVE SMOOTH",
"560.667 42.667 OFFCURVE",
"667.667 64 OFFCURVE",
"769 126 CURVE SMOOTH",
"835 166.667 OFFCURVE",
"882.167 208.667 OFFCURVE",
"910.5 252 CURVE SMOOTH",
"938.833 295.333 OFFCURVE",
"946.333 333.333 OFFCURVE",
"933 366 CURVE",
"953 414 LINE",
"970 501 LINE",
"968 579 OFFCURVE",
"971 660.667 OFFCURVE",
"979 746 CURVE",
"953 904 OFFCURVE",
"901.667 1014.667 OFFCURVE",
"825 1078 CURVE",
"680.333 1131.333 OFFCURVE",
"532.667 1163.667 OFFCURVE",
"382 1175 CURVE SMOOTH",
"231.333 1186.333 OFFCURVE",
"104.667 1172.667 OFFCURVE",
"2 1134 CURVE",
"60 1018 LINE",
"85.333 914.667 OFFCURVE",
"89 804.667 OFFCURVE",
"71 688 CURVE",
"122 491 LINE",
"102.667 399 OFFCURVE",
"93.667 308.333 OFFCURVE",
"95 219 CURVE",
"27 104 LINE",
"75 53 LINE"
);
},
{
closed = 1;
nodes = (
"412.667 194.333 OFFCURVE",
"382.667 208.333 OFFCURVE",
"350 223 CURVE SMOOTH",
"317.333 237.667 OFFCURVE",
"295.667 258.333 OFFCURVE",
"285 285 CURVE",
"271.667 388.333 OFFCURVE",
"268.333 496.5 OFFCURVE",
"275 609.5 CURVE SMOOTH",
"281.667 722.5 OFFCURVE",
"285 837 OFFCURVE",
"285 953 CURVE",
"335 976.333 OFFCURVE",
"391 996 OFFCURVE",
"453 1012 CURVE SMOOTH",
"515 1028 OFFCURVE",
"578.667 1016.667 OFFCURVE",
"644 978 CURVE SMOOTH",
"706.667 941.333 OFFCURVE",
"753.667 886.333 OFFCURVE",
"785 813 CURVE",
"799 698 LINE",
"827.667 634.667 OFFCURVE",
"832 565.667 OFFCURVE",
"812 491 CURVE",
"798 411 LINE",
"782 371 OFFCURVE",
"758 322.667 OFFCURVE",
"726 266 CURVE",
"652 243 LINE",
"629.333 201.667 OFFCURVE",
"566 181 OFFCURVE",
"462 181 CURVE SMOOTH",
"440 181 LINE",
"440 181 LINE"
);
}
);
width = 1059;
}
);
note = D;
unicode = 0044;
},
{
glyphname = E;
layers = (
{
layerId = "677F3FD9-5632-41B7-A1B7-A5DADB8D655F";
paths = (
{
closed = 1;
nodes = (
"97 137 LINE",
"124 137 LINE",
"238 146.333 OFFCURVE",
"355.167 146 OFFCURVE",
"475.5 136 CURVE SMOOTH",
"595.833 126 OFFCURVE",
"708.333 132.667 OFFCURVE",
"813 156 CURVE",
"834.333 213.333 OFFCURVE",
"845 262.667 OFFCURVE",
"845 304 CURVE SMOOTH",
"845 345.333 OFFCURVE",
"834.333 387.667 OFFCURVE",
"813 431 CURVE",
"756.333 409 OFFCURVE",
"720.167 379.833 OFFCURVE",
"704.5 343.5 CURVE SMOOTH",
"688.833 307.167 OFFCURVE",
"663 283.333 OFFCURVE",
"627 272 CURVE",
"559 283.333 OFFCURVE",
"495.333 285.167 OFFCURVE",
"436 277.5 CURVE SMOOTH",
"376.667 269.833 OFFCURVE",
"317.667 283.333 OFFCURVE",
"259 318 CURVE",
"233 410 LINE",
"257.667 444.667 OFFCURVE",
"276.5 476.667 OFFCURVE",
"289.5 506 CURVE SMOOTH",
"302.5 535.333 OFFCURVE",
"315.667 550 OFFCURVE",
"329 550 CURVE",
"375 583.333 OFFCURVE",
"416.5 591.333 OFFCURVE",
"453.5 574 CURVE SMOOTH",
"490.5 556.667 OFFCURVE",
"526.333 560.667 OFFCURVE",
"561 586 CURVE",
"582.333 630 OFFCURVE",
"586.5 664.333 OFFCURVE",
"573.5 689 CURVE SMOOTH",
"560.5 713.667 OFFCURVE",
"547.333 735.667 OFFCURVE",
"534 755 CURVE",
"488 776.333 OFFCURVE",
"447 781.667 OFFCURVE",
"411 771 CURVE SMOOTH",
"375 760.333 OFFCURVE",
"339 764 OFFCURVE",
"303 782 CURVE",
"281 791.333 OFFCURVE",
"263.833 810.667 OFFCURVE",
"251.5 840 CURVE SMOOTH",
"239.167 869.333 OFFCURVE",
"233 896 OFFCURVE",
"233 920 CURVE",
"283 1007 LINE",
"341 1019.667 OFFCURVE",
"397.333 1030 OFFCURVE",
"452 1038 CURVE SMOOTH",
"506.667 1046 OFFCURVE",
"557.333 1044.333 OFFCURVE",
"604 1033 CURVE",
"651.333 1019.667 OFFCURVE",
"682 996.5 OFFCURVE",
"696 963.5 CURVE SMOOTH",
"710 930.5 OFFCURVE",
"733.667 908.333 OFFCURVE",
"767 897 CURVE",
"836 964 LINE",
"836 998.667 OFFCURVE",
"836 1027 OFFCURVE",
"836 1049 CURVE SMOOTH",
"836 1071 OFFCURVE",
"836 1087.667 OFFCURVE",
"836 1099 CURVE",
"767 1172 LINE",
"702.333 1154 OFFCURVE",
"636.167 1148.833 OFFCURVE",
"568.5 1156.5 CURVE SMOOTH",
"500.833 1164.167 OFFCURVE",
"433.5 1171.5 OFFCURVE",
"366.5 1178.5 CURVE SMOOTH",
"299.5 1185.5 OFFCURVE",
"234.833 1185.667 OFFCURVE",
"172.5 1179 CURVE SMOOTH",
"110.167 1172.333 OFFCURVE",
"53 1145.667 OFFCURVE",
"1 1099 CURVE",
"47 988 LINE",
"71.667 913.333 OFFCURVE",
"87.667 839 OFFCURVE",
"95 765 CURVE",
"88 654 LINE",
"99 544 LINE",
"89 446 OFFCURVE",
"67 371 OFFCURVE",
"33 319 CURVE",
"-18 222 LINE",
"-8 188 OFFCURVE",
"10.833 167.667 OFFCURVE",
"38.5 161 CURVE SMOOTH",
"66.167 154.333 OFFCURVE",
"85.667 146.333 OFFCURVE",
"97 137 CURVE"
);
}
);
width = 874;
}
);
note = E;
unicode = 0045;
},
{
glyphname = F;
layers = (
{
layerId = "677F3FD9-5632-41B7-A1B7-A5DADB8D655F";
paths = (
{
closed = 1;
nodes = (
"79 1 LINE",
"103 1 LINE",
"183.667 16.333 OFFCURVE",
"264 19.333 OFFCURVE",
"344 10 CURVE SMOOTH",
"424 0.667 OFFCURVE",
"505.667 16.667 OFFCURVE",
"589 58 CURVE",
"589 113 LINE",
"548.333 153 OFFCURVE",
"513.5 176.333 OFFCURVE",
"484.5 183 CURVE SMOOTH",
"455.5 189.667 OFFCURVE",
"427.333 193 OFFCURVE",
"400 193 CURVE",
"372.667 206.333 OFFCURVE",
"351.833 230 OFFCURVE",
"337.5 264 CURVE SMOOTH",
"323.167 298 OFFCURVE",
"309.333 327.667 OFFCURVE",
"296 353 CURVE",
"347.333 440.333 OFFCURVE",
"373 494.333 OFFCURVE",
"373 515 CURVE",
"481 546 LINE",
"535 516.667 OFFCURVE",
"574.333 492.333 OFFCURVE",
"599 473 CURVE SMOOTH",
"623.667 453.667 OFFCURVE",
"656.667 450.667 OFFCURVE",
"698 464 CURVE",
"722.667 529.333 OFFCURVE",
"735 585.667 OFFCURVE",
"735 633 CURVE SMOOTH",
"735 680.333 OFFCURVE",
"722.667 731.333 OFFCURVE",
"698 786 CURVE",
"656.667 786 OFFCURVE",
"616.833 772.333 OFFCURVE",
"578.5 745 CURVE SMOOTH",
"540.167 717.667 OFFCURVE",
"507.667 704 OFFCURVE",
"481 704 CURVE",
"413 717.333 OFFCURVE",
"367.167 755 OFFCURVE",
"343.5 817 CURVE SMOOTH",
"319.833 879 OFFCURVE",
"320.667 930.333 OFFCURVE",
"346 971 CURVE",
"454 1053 LINE",
"521.333 1053 OFFCURVE",
"587.667 1053 OFFCURVE",
"653 1053 CURVE SMOOTH",
"718.333 1053 OFFCURVE",
"777 1053 OFFCURVE",
"829 1053 CURVE",
"844.333 1011.667 OFFCURVE",
"871.333 988.833 OFFCURVE",
"910 984.5 CURVE SMOOTH",
"948.667 980.167 OFFCURVE",
"968 957.667 OFFCURVE",
"968 917 CURVE",
"1069 999 LINE",
"1057.667 1041 OFFCURVE",
"1052.667 1080.5 OFFCURVE",
"1054 1117.5 CURVE SMOOTH",
"1055.333 1154.5 OFFCURVE",
"1043.333 1185.667 OFFCURVE",
"1018 1211 CURVE",
"842.667 1201.667 OFFCURVE",
"678 1202.333 OFFCURVE",
"524 1213 CURVE SMOOTH",
"370 1223.667 OFFCURVE",
"212.667 1216.667 OFFCURVE",
"52 1192 CURVE",
"52 1137.333 OFFCURVE",
"71.167 1084.5 OFFCURVE",
"109.5 1033.5 CURVE SMOOTH",
"147.833 982.5 OFFCURVE",
"173.667 943.667 OFFCURVE",
"187 917 CURVE",
"158.333 769.667 OFFCURVE",
"144.167 620.167 OFFCURVE",
"144.5 468.5 CURVE SMOOTH",
"144.833 316.833 OFFCURVE",
"104 180 OFFCURVE",
"22 58 CURVE",
"79 1 LINE"
);
}
);
width = 968;
}
);
note = F;
unicode = 0046;
},
{
glyphname = G;
layers = (
{
layerId = "677F3FD9-5632-41B7-A1B7-A5DADB8D655F";
paths = (
{
closed = 1;
nodes = (
"610 -15.333 OFFCURVE",
"729.667 2.167 OFFCURVE",
"865 22.5 CURVE SMOOTH",
"1000.333 42.833 OFFCURVE",
"1090.667 107 OFFCURVE",
"1136 215 CURVE",
"1128 251.667 OFFCURVE",
"1130.333 289.667 OFFCURVE",
"1143 329 CURVE SMOOTH",
"1155.667 368.333 OFFCURVE",
"1166.5 405.833 OFFCURVE",
"1175.5 441.5 CURVE SMOOTH",
"1184.5 477.167 OFFCURVE",
"1186.167 509.5 OFFCURVE",
"1180.5 538.5 CURVE SMOOTH",
"1174.833 567.5 OFFCURVE",
"1150 590.333 OFFCURVE",
"1106 607 CURVE",
"1030 574.333 OFFCURVE",
"946.833 570.333 OFFCURVE",
"856.5 595 CURVE SMOOTH",
"766.167 619.667 OFFCURVE",
"698.333 602 OFFCURVE",
"653 542 CURVE",
"683 484 OFFCURVE",
"735.833 444.833 OFFCURVE",
"811.5 424.5 CURVE SMOOTH",
"887.167 404.167 OFFCURVE",
"925 363.333 OFFCURVE",
"925 302 CURVE",
"867 198 OFFCURVE",
"782.667 162.5 OFFCURVE",
"672 195.5 CURVE SMOOTH",
"561.333 228.5 OFFCURVE",
"450 255 OFFCURVE",
"338 275 CURVE",
"257.333 320.333 OFFCURVE",
"208.833 403 OFFCURVE",
"192.5 523 CURVE SMOOTH",
"176.167 643 OFFCURVE",
"177.667 748.333 OFFCURVE",
"197 839 CURVE",
"242.333 940.333 OFFCURVE",
"296.167 1012.833 OFFCURVE",
"358.5 1056.5 CURVE SMOOTH",
"420.833 1100.167 OFFCURVE",
"503.667 1128.667 OFFCURVE",
"607 1142 CURVE",
"667.667 1126.667 OFFCURVE",
"743.167 1114 OFFCURVE",
"833.5 1104 CURVE SMOOTH",
"923.833 1094 OFFCURVE",
"982.667 1066.333 OFFCURVE",
"1010 1021 CURVE",
"1136 1056 LINE",
"1120.667 1098.667 OFFCURVE",
"1119.833 1141.833 OFFCURVE",
"1133.5 1185.5 CURVE SMOOTH",
"1147.167 1229.167 OFFCURVE",
"1138 1265 OFFCURVE",
"1106 1293 CURVE",
"984.667 1338.333 OFFCURVE",
"849 1364.667 OFFCURVE",
"699 1372 CURVE SMOOTH",
"549 1379.333 OFFCURVE",
"413 1353 OFFCURVE",
"291 1293 CURVE",
"145 1202.333 OFFCURVE",
"55.5 1071.833 OFFCURVE",
"22.5 901.5 CURVE SMOOTH",
"-10.5 731.167 OFFCURVE",
"-18 572.667 OFFCURVE",
"0 426 CURVE",
"43.333 288 OFFCURVE",
"111.5 189.333 OFFCURVE",
"204.5 130 CURVE SMOOTH",
"297.5 70.667 OFFCURVE",
"398 17.333 OFFCURVE",
"506 -30 CURVE",
"506 -30 LINE"
);
}
);
width = 1233;
}
);
note = G;
unicode = 0047;
},
{
glyphname = H;
layers = (
{
layerId = "677F3FD9-5632-41B7-A1B7-A5DADB8D655F";
paths = (
{
closed = 1;
nodes = (
"1208 120 LINE",
"1152 32 LINE",
"1104 -5.333 OFFCURVE",
"1048 13.333 OFFCURVE",
"984 88 CURVE",
"920 296 LINE",
"896 552 LINE",
"880 600 LINE",
"728 632 LINE",
"584 648 LINE",
"448 632 LINE",
"424 552 LINE",
"424 440 LINE",
"440 296 LINE",
"440 184 LINE",
"400 48 LINE",
"304 -5.333 OFFCURVE",
"245.333 0 OFFCURVE",
"224 64 CURVE SMOOTH",
"176 208 LINE",
"168 408 LINE",
"184 576 LINE",
"168 640 LINE",
"96 664 LINE",
"21.333 680 OFFCURVE",
"10.667 752 OFFCURVE",
"64 880 CURVE",
"184 928 LINE",
"216 1032 LINE",
"224 1216 LINE",
"256 1432 LINE",
"352 1485.333 OFFCURVE",
"410.667 1464 OFFCURVE",
"432 1368 CURVE",
"448 1208 LINE",
"440 1016 LINE",
"440 888 LINE",
"568 896 LINE",
"720 888 LINE",
"840 864 LINE",
"904 928 LINE",
"896 1360 LINE",
"920 1448 LINE",
"946.667 1485.333 OFFCURVE",
"981.333 1497.333 OFFCURVE",
"1024 1484 CURVE SMOOTH",
"1066.667 1470.667 OFFCURVE",
"1096 1413.333 OFFCURVE",
"1112 1312 CURVE SMOOTH",
"1128 1192 LINE",
"1136 960 LINE",
"1152 856 LINE",
"1240 848 LINE",
"1296 808 LINE",
"1322.667 754.667 OFFCURVE",
"1328 704 OFFCURVE",
"1312 656 CURVE",
"1160 584 LINE",
"1160 384 LINE",
"1192 232 LINE",
"1208 120 LINE"
);
}
);
width = 1496;
}
);
note = H;
unicode = 0048;
},
{
glyphname = I;
layers = (
{
layerId = "677F3FD9-5632-41B7-A1B7-A5DADB8D655F";
paths = (
{
closed = 1;
nodes = (
"235 -24 LINE",
"258 -24 LINE",
"338 -8.667 OFFCURVE",
"407.833 -4.5 OFFCURVE",
"467.5 -11.5 CURVE SMOOTH",
"527.167 -18.5 OFFCURVE",
"589.667 5 OFFCURVE",
"655 59 CURVE",
"641.667 105 OFFCURVE",
"621.833 131.833 OFFCURVE",
"595.5 139.5 CURVE SMOOTH",
"569.167 147.167 OFFCURVE",
"542.833 151 OFFCURVE",
"516.5 151 CURVE SMOOTH",
"490.167 151 OFFCURVE",
"467.167 154.667 OFFCURVE",
"447.5 162 CURVE SMOOTH",
"427.833 169.333 OFFCURVE",
"418 196.333 OFFCURVE",
"418 243 CURVE",
"431.333 309.667 OFFCURVE",
"425.833 375.5 OFFCURVE",
"401.5 440.5 CURVE SMOOTH",
"377.167 505.5 OFFCURVE",
"365 563 OFFCURVE",
"365 613 CURVE",
"351 679.667 OFFCURVE",
"354.667 740 OFFCURVE",
"376 794 CURVE SMOOTH",
"397.333 848 OFFCURVE",
"426.167 896 OFFCURVE",
"462.5 938 CURVE SMOOTH",
"498.833 980 OFFCURVE",
"537.833 1016.167 OFFCURVE",
"579.5 1046.5 CURVE SMOOTH",
"621.167 1076.833 OFFCURVE",
"655.333 1101.333 OFFCURVE",
"682 1120 CURVE",
"576.667 1160 OFFCURVE",
"457.333 1176.333 OFFCURVE",
"324 1169 CURVE SMOOTH",
"190.667 1161.667 OFFCURVE",
"71 1145.333 OFFCURVE",
"-35 1120 CURVE",
"-19.667 1082 OFFCURVE",
"3.333 1059.833 OFFCURVE",
"34 1053.5 CURVE SMOOTH",
"64.667 1047.167 OFFCURVE",
"85.667 1044 OFFCURVE",
"97 1044 CURVE",
"164.333 996 OFFCURVE",
"210.333 940.167 OFFCURVE",
"235 876.5 CURVE SMOOTH",
"259.667 812.833 OFFCURVE",
"273 746.167 OFFCURVE",
"275 676.5 CURVE SMOOTH",
"277 606.833 OFFCURVE",
"272.167 537 OFFCURVE",
"260.5 467 CURVE SMOOTH",
"248.833 397 OFFCURVE",
"240.333 332.333 OFFCURVE",
"235 273 CURVE",
"219.667 204.333 OFFCURVE",
"178.667 161 OFFCURVE",
"112 143 CURVE SMOOTH",
"45.333 125 OFFCURVE",
"6.333 97 OFFCURVE",
"-5 59 CURVE",
"34.333 17.667 OFFCURVE",
"77 0.5 OFFCURVE",
"123 7.5 CURVE SMOOTH",
"169 14.5 OFFCURVE",
"206.333 4 OFFCURVE",
"235 -24 CURVE"
);
}
);
width = 731;
}
);
note = I;
unicode = 0049;
},
{
glyphname = J;
layers = (
{
layerId = "677F3FD9-5632-41B7-A1B7-A5DADB8D655F";
paths = (
{
closed = 1;
nodes = (
"341 -9.333 OFFCURVE",
"429.667 -6.167 OFFCURVE",
"511 -16.5 CURVE SMOOTH",
"592.333 -26.833 OFFCURVE",
"671.333 -7.667 OFFCURVE",
"748 41 CURVE SMOOTH",
"840.667 102.333 OFFCURVE",
"901.5 175.833 OFFCURVE",
"930.5 261.5 CURVE SMOOTH",
"959.5 347.167 OFFCURVE",
"975 437 OFFCURVE",
"977 531 CURVE SMOOTH",
"979 625 OFFCURVE",
"976.833 719.167 OFFCURVE",
"970.5 813.5 CURVE SMOOTH",
"964.167 907.833 OFFCURVE",
"972.333 994.333 OFFCURVE",
"995 1073 CURVE",
"1028.333 1134.333 OFFCURVE",
"1061.667 1177.333 OFFCURVE",
"1095 1202 CURVE SMOOTH",
"1128.333 1226.667 OFFCURVE",
"1170 1247 OFFCURVE",
"1220 1263 CURVE",
"1189 1379 LINE",
"1046.333 1368.333 OFFCURVE",
"917 1371.667 OFFCURVE",
"801 1389 CURVE SMOOTH",
"685 1406.333 OFFCURVE",
"564 1383.667 OFFCURVE",
"438 1321 CURVE",
"438 1263 LINE",
"500.667 1229 OFFCURVE",
"564 1205.167 OFFCURVE",
"628 1191.5 CURVE SMOOTH",
"692 1177.833 OFFCURVE",
"732 1147.667 OFFCURVE",
"748 1101 CURVE",
"779.333 961 OFFCURVE",
"798.833 821.833 OFFCURVE",
"806.5 683.5 CURVE SMOOTH",
"814.167 545.167 OFFCURVE",
"794.667 413 OFFCURVE",
"748 287 CURVE",
"700.667 242.333 OFFCURVE",
"638.333 199 OFFCURVE",
"561 157 CURVE SMOOTH",
"483.667 115 OFFCURVE",
"421.667 116.667 OFFCURVE",
"375 162 CURVE",
"265 162 OFFCURVE",
"198.333 205.167 OFFCURVE",
"175 291.5 CURVE SMOOTH",
"151.667 377.833 OFFCURVE",
"125.667 460.333 OFFCURVE",
"97 539 CURVE",
"-1 481 LINE",
"-1 431 OFFCURVE",
"-1 390.667 OFFCURVE",
"-1 360 CURVE SMOOTH",
"-1 329.333 OFFCURVE",
"-1 305 OFFCURVE",
"-1 287 CURVE SMOOTH",
"-1 208.333 OFFCURVE",
"24.667 140.667 OFFCURVE",
"76 84 CURVE SMOOTH",
"127.333 27.333 OFFCURVE",
"183.667 -9.333 OFFCURVE",
"245 -26 CURVE",
"245 -26 LINE"
);
}
);
width = 1045;
}
);
note = J;
unicode = 004A;
},
{
glyphname = K;
layers = (
{
layerId = "677F3FD9-5632-41B7-A1B7-A5DADB8D655F";
paths = (
{
closed = 1;
nodes = (
"110 -44 LINE",
"136 -44 LINE",
"197.333 -26.667 OFFCURVE",
"250.667 -15.667 OFFCURVE",
"296 -11 CURVE SMOOTH",
"341.333 -6.333 OFFCURVE",
"386 3.333 OFFCURVE",
"430 18 CURVE",
"430 106.667 OFFCURVE",
"403.667 179.167 OFFCURVE",
"351 235.5 CURVE SMOOTH",
"298.333 291.833 OFFCURVE",
"285.667 356.667 OFFCURVE",
"313 430 CURVE",
"327 457.333 OFFCURVE",
"352.333 479.5 OFFCURVE",
"389 496.5 CURVE SMOOTH",
"425.667 513.5 OFFCURVE",
"457.667 530.667 OFFCURVE",
"485 548 CURVE",
"605 488.667 OFFCURVE",
"693.167 421 OFFCURVE",
"749.5 345 CURVE SMOOTH",
"805.833 269 OFFCURVE",
"855.333 179.667 OFFCURVE",
"898 77 CURVE",
"929.333 32.333 OFFCURVE",
"974.5 -1.167 OFFCURVE",
"1033.5 -23.5 CURVE SMOOTH",
"1092.5 -45.833 OFFCURVE",
"1135.667 -41.333 OFFCURVE",
"1163 -10 CURVE",
"1163 102 LINE",
"1047.667 160.667 OFFCURVE",
"952.667 253.833 OFFCURVE",
"878 381.5 CURVE SMOOTH",
"803.333 509.167 OFFCURVE",
"752.333 632 OFFCURVE",
"725 750 CURVE",
"784.333 850.667 OFFCURVE",
"856.167 926.667 OFFCURVE",
"940.5 978 CURVE SMOOTH",
"1024.833 1029.333 OFFCURVE",
"1089 1099.333 OFFCURVE",
"1133 1188 CURVE",
"1075 1272 LINE",
"979.667 1301.333 OFFCURVE",
"903.667 1295.167 OFFCURVE",
"847 1253.5 CURVE SMOOTH",
"790.333 1211.833 OFFCURVE",
"740.167 1159.833 OFFCURVE",
"696.5 1097.5 CURVE SMOOTH",
"652.833 1035.167 OFFCURVE",
"609.5 975.667 OFFCURVE",
"566.5 919 CURVE SMOOTH",
"523.5 862.333 OFFCURVE",
"468.333 834 OFFCURVE",
"401 834 CURVE",
"371 851.333 OFFCURVE",
"348.833 877.833 OFFCURVE",
"334.5 913.5 CURVE SMOOTH",
"320.167 949.167 OFFCURVE",
"313 981.667 OFFCURVE",
"313 1011 CURVE",
"344.333 1055 OFFCURVE",
"368 1095.5 OFFCURVE",
"384 1132.5 CURVE SMOOTH",
"400 1169.5 OFFCURVE",
"415.333 1188 OFFCURVE",
"430 1188 CURVE",
"342 1272 LINE",
"282.667 1261.333 OFFCURVE",
"216.5 1260.667 OFFCURVE",
"143.5 1270 CURVE SMOOTH",
"70.5 1279.333 OFFCURVE",
"20.667 1262 OFFCURVE",
"-6 1218 CURVE",
"64.667 1042.667 OFFCURVE",
"103.667 844.167 OFFCURVE",
"111 622.5 CURVE SMOOTH",
"118.333 400.833 OFFCURVE",
"79.333 209 OFFCURVE",
"-6 47 CURVE",
"110 -44 LINE"
);
}
);
width = 1188;
}
);
note = K;
unicode = 004B;
},
{
glyphname = L;
layers = (
{
layerId = "677F3FD9-5632-41B7-A1B7-A5DADB8D655F";
paths = (
{
closed = 1;
nodes = (
"342 -35 OFFCURVE",
"487.167 -35 OFFCURVE",
"631.5 -35 CURVE SMOOTH",
"775.833 -35 OFFCURVE",
"912.667 -35 OFFCURVE",
"1042 -35 CURVE",
"1206 90 LINE",
"1189.333 174 OFFCURVE",
"1185.833 244.667 OFFCURVE",
"1195.5 302 CURVE SMOOTH",
"1205.167 359.333 OFFCURVE",
"1186.667 418.667 OFFCURVE",
"1140 480 CURVE",
"1076.667 465.333 OFFCURVE",
"1038.167 432.5 OFFCURVE",
"1024.5 381.5 CURVE SMOOTH",
"1010.833 330.5 OFFCURVE",
"996 289.667 OFFCURVE",
"980 259 CURVE",
"928.667 191 OFFCURVE",
"862.333 151.5 OFFCURVE",
"781 140.5 CURVE SMOOTH",
"699.667 129.5 OFFCURVE",
"634.667 124 OFFCURVE",
"586 124 CURVE",
"518 156 OFFCURVE",
"468.333 200.833 OFFCURVE",
"437 258.5 CURVE SMOOTH",
"405.667 316.167 OFFCURVE",
"390 369.667 OFFCURVE",
"390 419 CURVE SMOOTH",
"390 501 OFFCURVE",
"388.167 586.833 OFFCURVE",
"384.5 676.5 CURVE SMOOTH",
"380.833 766.167 OFFCURVE",
"384.333 852.667 OFFCURVE",
"395 936 CURVE SMOOTH",
"405.667 1019.333 OFFCURVE",
"428 1096 OFFCURVE",
"462 1166 CURVE SMOOTH",
"496 1236 OFFCURVE",
"550 1292 OFFCURVE",
"624 1334 CURVE",
"536.667 1397.333 OFFCURVE",
"435.333 1426.667 OFFCURVE",
"320 1422 CURVE SMOOTH",
"204.667 1417.333 OFFCURVE",
"98 1397.333 OFFCURVE",
"0 1362 CURVE",
"98 1216.667 OFFCURVE",
"162.667 1047.833 OFFCURVE",
"194 855.5 CURVE SMOOTH",
"225.333 663.167 OFFCURVE",
"226 484.667 OFFCURVE",
"196 320 CURVE SMOOTH",
"179.333 238 OFFCURVE",
"138 184.667 OFFCURVE",
"72 160 CURVE SMOOTH",
"6 135.333 OFFCURVE",
"-18 90.333 OFFCURVE",
"0 25 CURVE",
"46.667 -5 OFFCURVE",
"86.833 -15 OFFCURVE",
"120.5 -5 CURVE SMOOTH",
"154.167 5 OFFCURVE",
"179.333 -5 OFFCURVE",
"196 -35 CURVE",
"196 -35 LINE"
);
}
);
width = 1219;
}
);
note = L;
unicode = 004C;
},
{
glyphname = M;
layers = (
{
layerId = "677F3FD9-5632-41B7-A1B7-A5DADB8D655F";
paths = (
{
closed = 1;
nodes = (
"86 -35 LINE",
"114 -35 LINE SMOOTH",
"158 -35 OFFCURVE",
"195.167 -35 OFFCURVE",
"225.5 -35 CURVE SMOOTH",
"255.833 -35 OFFCURVE",
"277.333 -35 OFFCURVE",
"290 -35 CURVE SMOOTH",
"318.667 -35 OFFCURVE",
"344.667 -19.5 OFFCURVE",
"368 11.5 CURVE SMOOTH",
"391.333 42.5 OFFCURVE",
"403 64.333 OFFCURVE",
"403 77 CURVE",
"333.667 137.667 OFFCURVE",
"290.167 217.833 OFFCURVE",
"272.5 317.5 CURVE SMOOTH",
"254.833 417.167 OFFCURVE",
"260.667 511 OFFCURVE",
"290 599 CURVE",
"348 632 LINE",
"420.667 602.667 OFFCURVE",
"470.667 562 OFFCURVE",
"498 510 CURVE SMOOTH",
"525.333 458 OFFCURVE",
"553.667 411.333 OFFCURVE",
"583 370 CURVE",
"667 339.333 OFFCURVE",
"723.667 339.333 OFFCURVE",
"753 370 CURVE",
"781.667 411.333 OFFCURVE",
"805.333 453 OFFCURVE",
"824 495 CURVE SMOOTH",
"842.667 537 OFFCURVE",
"859.667 571.667 OFFCURVE",
"875 599 CURVE",
"983 632 LINE",
"1027 580 OFFCURVE",
"1051.333 527.333 OFFCURVE",
"1056 474 CURVE SMOOTH",
"1060.667 420.667 OFFCURVE",
"1055.833 368.833 OFFCURVE",
"1041.5 318.5 CURVE SMOOTH",
"1027.167 268.167 OFFCURVE",
"1008.167 220.167 OFFCURVE",
"984.5 174.5 CURVE SMOOTH",
"960.833 128.833 OFFCURVE",
"942.333 88 OFFCURVE",
"929 52 CURVE",
"999.667 -5.333 OFFCURVE",
"1066 -31.833 OFFCURVE",
"1128 -27.5 CURVE SMOOTH",
"1190 -23.167 OFFCURVE",
"1250.333 -8 OFFCURVE",
"1309 18 CURVE",
"1282.333 220.667 OFFCURVE",
"1254.833 418 OFFCURVE",
"1226.5 610 CURVE SMOOTH",
"1198.167 802 OFFCURVE",
"1235.333 993 OFFCURVE",
"1338 1183 CURVE",
"1255 1271 LINE",
"1207 1271 OFFCURVE",
"1167.833 1271 OFFCURVE",
"1137.5 1271 CURVE SMOOTH",
"1107.167 1271 OFFCURVE",
"1085 1271 OFFCURVE",
"1071 1271 CURVE",
"1014.333 1249 OFFCURVE",
"971.167 1212 OFFCURVE",
"941.5 1160 CURVE SMOOTH",
"911.833 1108 OFFCURVE",
"885.333 1053.833 OFFCURVE",
"862 997.5 CURVE SMOOTH",
"838.667 941.167 OFFCURVE",
"813.167 889 OFFCURVE",
"785.5 841 CURVE SMOOTH",
"757.833 793 OFFCURVE",
"718 762.333 OFFCURVE",
"666 749 CURVE",
"611 749 LINE",
"523 805 OFFCURVE",
"456.833 890.833 OFFCURVE",
"412.5 1006.5 CURVE SMOOTH",
"368.167 1122.167 OFFCURVE",
"319 1210.333 OFFCURVE",
"265 1271 CURVE",
"221 1271 OFFCURVE",
"183.667 1271 OFFCURVE",
"153 1271 CURVE SMOOTH",
"122.333 1271 OFFCURVE",
"100 1271 OFFCURVE",
"86 1271 CURVE SMOOTH",
"56.667 1271 OFFCURVE",
"29.833 1255 OFFCURVE",
"5.5 1223 CURVE SMOOTH",
"-18.833 1191 OFFCURVE",
"-31 1166.667 OFFCURVE",
"-31 1150 CURVE",
"27 1049.333 OFFCURVE",
"62.667 950.167 OFFCURVE",
"76 852.5 CURVE SMOOTH",
"89.333 754.833 OFFCURVE",
"92.5 657.833 OFFCURVE",
"85.5 561.5 CURVE SMOOTH",
"78.5 465.167 OFFCURVE",
"67 369.5 OFFCURVE",
"51 274.5 CURVE SMOOTH",
"35 179.5 OFFCURVE",
"27 85 OFFCURVE",
"27 -9 CURVE",
"86 -35 LINE"
);
}
);
width = 1398;
}
);
note = M;
unicode = 004D;
},
{
glyphname = N;
layers = (
{
layerId = "677F3FD9-5632-41B7-A1B7-A5DADB8D655F";
paths = (
{
closed = 1;
nodes = (
"129.333 -10.667 OFFCURVE",
"195.833 -8.5 OFFCURVE",
"269.5 -17.5 CURVE SMOOTH",
"343.167 -26.5 OFFCURVE",
"396.333 -10.333 OFFCURVE",
"429 31 CURVE",
"429 91 LINE",
"390.333 122.333 OFFCURVE",
"355.333 165.333 OFFCURVE",
"324 220 CURVE SMOOTH",
"292.667 274.667 OFFCURVE",
"270.667 331.833 OFFCURVE",
"258 391.5 CURVE SMOOTH",
"245.333 451.167 OFFCURVE",
"244.333 508.333 OFFCURVE",
"255 563 CURVE SMOOTH",
"265.667 617.667 OFFCURVE",
"293.667 660 OFFCURVE",
"339 690 CURVE",
"394 690 LINE",
"469.333 652 OFFCURVE",
"528.833 600.5 OFFCURVE",
"572.5 535.5 CURVE SMOOTH",
"616.167 470.5 OFFCURVE",
"656.667 403.333 OFFCURVE",
"694 334 CURVE SMOOTH",
"731.333 264.667 OFFCURVE",
"771.5 199.333 OFFCURVE",
"814.5 138 CURVE SMOOTH",
"857.5 76.667 OFFCURVE",
"916 31 OFFCURVE",
"990 1 CURVE",
"1049.333 84.333 OFFCURVE",
"1085.167 180 OFFCURVE",
"1097.5 288 CURVE SMOOTH",
"1109.833 396 OFFCURVE",
"1115.167 508.5 OFFCURVE",
"1113.5 625.5 CURVE SMOOTH",
"1111.833 742.5 OFFCURVE",
"1111.167 860.333 OFFCURVE",
"1111.5 979 CURVE SMOOTH",
"1111.833 1097.667 OFFCURVE",
"1129.667 1209.333 OFFCURVE",
"1165 1314 CURVE",
"1094.333 1299.333 OFFCURVE",
"1027.667 1300.5 OFFCURVE",
"965 1317.5 CURVE SMOOTH",
"902.333 1334.5 OFFCURVE",
"842 1312.333 OFFCURVE",
"784 1251 CURVE",
"784 1190 LINE",
"873.333 1117.333 OFFCURVE",
"921.833 1026.5 OFFCURVE",
"929.5 917.5 CURVE SMOOTH",
"937.167 808.5 OFFCURVE",
"918.333 702.667 OFFCURVE",
"873 600 CURVE",
"791 614.667 OFFCURVE",
"722 647.5 OFFCURVE",
"666 698.5 CURVE SMOOTH",
"610 749.5 OFFCURVE",
"560.5 808.333 OFFCURVE",
"517.5 875 CURVE SMOOTH",
"474.5 941.667 OFFCURVE",
"434.5 1011.667 OFFCURVE",
"397.5 1085 CURVE SMOOTH",
"360.5 1158.333 OFFCURVE",
"319.667 1225 OFFCURVE",
"275 1285 CURVE",
"217 1312.333 OFFCURVE",
"164.667 1317.667 OFFCURVE",
"118 1301 CURVE SMOOTH",
"71.333 1284.333 OFFCURVE",
"27 1267.667 OFFCURVE",
"-15 1251 CURVE",
"87 1043 OFFCURVE",
"123.833 835.167 OFFCURVE",
"95.5 627.5 CURVE SMOOTH",
"67.167 419.833 OFFCURVE",
"37.333 211 OFFCURVE",
"6 1 CURVE",
"70 -24 LINE",
"70 -24 LINE"
);
}
);
width = 1207;
}
);
note = N;
unicode = 004E;
},
{
glyphname = O;
layers = (
{
layerId = "677F3FD9-5632-41B7-A1B7-A5DADB8D655F";
paths = (
{
closed = 1;
nodes = (
"391 -38 LINE",
"418 -38 LINE",
"482 -26 OFFCURVE",
"546.5 -24.167 OFFCURVE",
"611.5 -32.5 CURVE SMOOTH",
"676.5 -40.833 OFFCURVE",
"734.667 -26.333 OFFCURVE",
"786 11 CURVE",
"918.667 92.333 OFFCURVE",
"1006 212.833 OFFCURVE",
"1048 372.5 CURVE SMOOTH",
"1090 532.167 OFFCURVE",
"1091 685.667 OFFCURVE",
"1051 833 CURVE",
"997.667 935.667 OFFCURVE",
"931.167 1017.667 OFFCURVE",
"851.5 1079 CURVE SMOOTH",
"771.833 1140.333 OFFCURVE",
"679 1171 OFFCURVE",
"573 1171 CURVE",
"471 1186.333 OFFCURVE",
"375.333 1162.833 OFFCURVE",
"286 1100.5 CURVE SMOOTH",
"196.667 1038.167 OFFCURVE",
"125.667 974.667 OFFCURVE",
"73 910 CURVE",
"35 803.333 OFFCURVE",
"11.833 694.5 OFFCURVE",
"3.5 583.5 CURVE SMOOTH",
"-4.833 472.5 OFFCURVE",
"10.667 371.333 OFFCURVE",
"50 280 CURVE",
"61.333 198 OFFCURVE",
"100.5 130.667 OFFCURVE",
"167.5 78 CURVE SMOOTH",
"234.5 25.333 OFFCURVE",
"309 -13.333 OFFCURVE",
"391 -38 CURVE"
);
},
{
closed = 1;
nodes = (
"352.667 235.667 OFFCURVE",
"299.667 275.5 OFFCURVE",
"263 330.5 CURVE SMOOTH",
"226.333 385.5 OFFCURVE",
"202.333 453 OFFCURVE",
"191 533 CURVE",
"191 589 OFFCURVE",
"204 652.667 OFFCURVE",
"230 724 CURVE SMOOTH",
"256 795.333 OFFCURVE",
"296.667 852.667 OFFCURVE",
"352 896 CURVE",
"398.667 920 OFFCURVE",
"449.167 933.167 OFFCURVE",
"503.5 935.5 CURVE SMOOTH",
"557.833 937.833 OFFCURVE",
"614 933.333 OFFCURVE",
"672 922 CURVE",
"739.333 886.667 OFFCURVE",
"786.833 825.167 OFFCURVE",
"814.5 737.5 CURVE SMOOTH",
"842.167 649.833 OFFCURVE",
"856 566.667 OFFCURVE",
"856 488 CURVE",
"844.667 441.333 OFFCURVE",
"818 386.833 OFFCURVE",
"776 324.5 CURVE SMOOTH",
"734 262.167 OFFCURVE",
"685.333 224.333 OFFCURVE",
"630 211 CURVE",
"606.667 211 OFFCURVE",
"578.667 211 OFFCURVE",
"546 211 CURVE SMOOTH",
"513.333 211 OFFCURVE",
"479.667 211 OFFCURVE",
"445 211 CURVE SMOOTH",
"422 211 LINE",
"422 211 LINE"
);
}
);
width = 1138;
}
);
note = O;
unicode = 004F;
},
{
glyphname = P;
layers = (
{
layerId = "677F3FD9-5632-41B7-A1B7-A5DADB8D655F";
paths = (
{
closed = 1;
nodes = (
"187.667 -15.333 OFFCURVE",
"267.333 -5.667 OFFCURVE",
"352 -15 CURVE SMOOTH",
"436.667 -24.333 OFFCURVE",
"510 -15.333 OFFCURVE",
"572 12 CURVE",
"543.333 89.333 OFFCURVE",
"495.667 134.5 OFFCURVE",
"429 147.5 CURVE SMOOTH",
"362.333 160.5 OFFCURVE",
"329 197.667 OFFCURVE",
"329 259 CURVE SMOOTH",
"329 383 LINE",
"375.667 429 OFFCURVE",
"432.5 459.333 OFFCURVE",
"499.5 474 CURVE SMOOTH",
"566.5 488.667 OFFCURVE",
"634.167 502.333 OFFCURVE",
"702.5 515 CURVE SMOOTH",
"770.833 527.667 OFFCURVE",
"834.667 547.167 OFFCURVE",
"894 573.5 CURVE SMOOTH",
"953.333 599.833 OFFCURVE",
"998.667 648 OFFCURVE",
"1030 718 CURVE",
"1078.667 810.667 OFFCURVE",
"1090.833 910.667 OFFCURVE",
"1066.5 1018 CURVE SMOOTH",
"1042.167 1125.333 OFFCURVE",
"999 1209 OFFCURVE",
"937 1269 CURVE",
"769.667 1333 OFFCURVE",
"613.667 1354.833 OFFCURVE",
"469 1334.5 CURVE SMOOTH",
"324.333 1314.167 OFFCURVE",
"175 1304 OFFCURVE",
"21 1304 CURVE",
"66.333 1104 OFFCURVE",
"103.5 885 OFFCURVE",
"132.5 647 CURVE SMOOTH",
"161.5 409 OFFCURVE",
"114.333 197.333 OFFCURVE",
"-9 12 CURVE",
"113 -44 LINE",
"113 -44 LINE"
);
},
{
closed = 1;
nodes = (
"388 676.333 OFFCURVE",
"353.167 720.5 OFFCURVE",
"343.5 793.5 CURVE SMOOTH",
"333.833 866.5 OFFCURVE",
"329 934 OFFCURVE",
"329 996 CURVE",
"422 1119 LINE",
"468 1147.667 OFFCURVE",
"514.667 1154.833 OFFCURVE",
"562 1140.5 CURVE SMOOTH",
"609.333 1126.167 OFFCURVE",
"664 1119 OFFCURVE",
"726 1119 CURVE",
"772 1087.667 OFFCURVE",
"804.167 1048.167 OFFCURVE",
"822.5 1000.5 CURVE SMOOTH",
"840.833 952.833 OFFCURVE",
"850 889.333 OFFCURVE",
"850 810 CURVE",
"664 661 LINE",
"646.667 661 OFFCURVE",
"623 661 OFFCURVE",
"593 661 CURVE SMOOTH",
"563 661 OFFCURVE",
"525 661 OFFCURVE",
"479 661 CURVE SMOOTH",
"448 661 LINE",
"448 661 LINE"
);
}
);
width = 1122;
}
);
note = P;
unicode = 0050;
},
{
glyphname = Q;
layers = (
{
layerId = "677F3FD9-5632-41B7-A1B7-A5DADB8D655F";
paths = (
{
closed = 1;
nodes = (
"1204 383 LINE",
"1151 239 LINE",
"1091 153 LINE",
"1040 120 LINE",
"1014 102 LINE",
"1048 -1 LINE",
"1099 -49 LINE SMOOTH",
"1173.667 -121.667 OFFCURVE",
"1196.667 -192 OFFCURVE",
"1168 -260 CURVE",
"1144.667 -305.333 OFFCURVE",
"1090.333 -308 OFFCURVE",
"1005 -268 CURVE",
"946 -107 LINE",
"847 -1 LINE",
"742 -40 LINE",
"610.667 -96.667 OFFCURVE",
"496.667 -96.667 OFFCURVE",
"400 -40 CURVE SMOOTH",
"279 26 LINE",
"187 145 LINE",
"124 232 LINE",
"75 347 LINE",
"24 526 LINE",
"24 738 LINE",
"78 979 LINE",
"218 1166 LINE",
"397 1283 LINE",
"590 1314 LINE",
"722 1283 LINE",
"815 1236 LINE",
"900 1173 LINE",
"1017 1072 LINE",
"1110 956 LINE",
"1172 808 LINE",
"1204 602 LINE",
"1204 383 LINE"
);
},
{
closed = 1;
nodes = (
"235 495 LINE",
"272 356 LINE",
"348 237 LINE",
"414 178 LINE",
"510 133 LINE",
"605 111 LINE",
"688 128 LINE",
"748 159 LINE",
"710 222 LINE",
"670 288 LINE",
"652 352.667 OFFCURVE",
"706 370 OFFCURVE",
"832 340 CURVE",
"886 254 LINE",
"932 277 LINE",
"984 309 LINE",
"1022 390 LINE",
"1038 534 LINE",
"1030 670 LINE",
"984 836 LINE",
"900 945 LINE",
"801 1040 LINE",
"688 1102 LINE",
"575 1102 LINE",
"435 1080 LINE",
"318 984 LINE",
"250 857 LINE",
"221 662 LINE",
"235 495 LINE"
);
}
);
width = 1250;
}
);
note = Q;
unicode = 0051;
},
{
glyphname = R;
layers = (
{
layerId = "677F3FD9-5632-41B7-A1B7-A5DADB8D655F";
paths = (
{
closed = 1;
nodes = (
"106.667 -5.667 OFFCURVE",
"165 -4.5 OFFCURVE",
"213 -15.5 CURVE SMOOTH",
"261 -26.5 OFFCURVE",
"314.333 -18.667 OFFCURVE",
"373 8 CURVE",
"405 69 LINE",
"374.333 109 OFFCURVE",
"341.833 144.5 OFFCURVE",
"307.5 175.5 CURVE SMOOTH",
"273.167 206.5 OFFCURVE",
"256 243.333 OFFCURVE",
"256 286 CURVE",
"286 398.667 OFFCURVE",
"343.667 455 OFFCURVE",
"429 455 CURVE",
"569.667 414.333 OFFCURVE",
"678.667 347.167 OFFCURVE",
"756 253.5 CURVE SMOOTH",
"833.333 159.833 OFFCURVE",
"920 78 OFFCURVE",
"1016 8 CURVE",
"1129 8 LINE",
"1158 69 LINE",
"1117.333 135 OFFCURVE",
"1071.833 186.333 OFFCURVE",
"1021.5 223 CURVE SMOOTH",
"971.167 259.667 OFFCURVE",
"932 299.333 OFFCURVE",
"904 342 CURVE",
"850 450 OFFCURVE",
"850 542.667 OFFCURVE",
"904 620 CURVE",
"960 678.667 OFFCURVE",
"984.5 758 OFFCURVE",
"977.5 858 CURVE SMOOTH",
"970.5 958 OFFCURVE",
"946 1030.333 OFFCURVE",
"904 1075 CURVE",
"776.667 1157.667 OFFCURVE",
"630.5 1199.667 OFFCURVE",
"465.5 1201 CURVE SMOOTH",
"300.5 1202.333 OFFCURVE",
"148.667 1195 OFFCURVE",
"10 1179 CURVE",
"-17 1127 LINE",
"10.333 1084.333 OFFCURVE",
"33.167 1039.667 OFFCURVE",
"51.5 993 CURVE SMOOTH",
"69.833 946.333 OFFCURVE",
"92.333 917.333 OFFCURVE",
"119 906 CURVE",
"92.333 748.667 OFFCURVE",
"84 594.5 OFFCURVE",
"94 443.5 CURVE SMOOTH",
"104 292.5 OFFCURVE",
"67 147.333 OFFCURVE",
"-17 8 CURVE",
"38 -19 LINE",
"38 -19 LINE"
);
},
{
closed = 1;
nodes = (
"372.333 666 OFFCURVE",
"331.667 703.333 OFFCURVE",
"307 764 CURVE SMOOTH",
"282.333 824.667 OFFCURVE",
"285.333 889.333 OFFCURVE",
"316 958 CURVE",
"372 986 OFFCURVE",
"424.167 1005.833 OFFCURVE",
"472.5 1017.5 CURVE SMOOTH",
"520.833 1029.167 OFFCURVE",
"580 1028.333 OFFCURVE",
"650 1015 CURVE",
"680.667 1000.333 OFFCURVE",
"705.333 983.5 OFFCURVE",
"724 964.5 CURVE SMOOTH",
"742.667 945.5 OFFCURVE",
"765 915.333 OFFCURVE",
"791 874 CURVE",
"791 847.333 OFFCURVE",
"784 816.667 OFFCURVE",
"770 782 CURVE SMOOTH",
"756 747.333 OFFCURVE",
"736.333 722.667 OFFCURVE",
"711 708 CURVE",
"666.333 708 OFFCURVE",
"622.167 698.667 OFFCURVE",
"578.5 680 CURVE SMOOTH",
"534.833 661.333 OFFCURVE",
"485 652 OFFCURVE",
"429 652 CURVE SMOOTH",
"429 652 LINE"
);
}
);
width = 1076;
}
);
note = R;
unicode = 0052;
},
{
glyphname = S;
layers = (
{
layerId = "677F3FD9-5632-41B7-A1B7-A5DADB8D655F";
paths = (
{
closed = 1;
nodes = (
"487.667 1169.667 OFFCURVE",
"421 1155.333 OFFCURVE",
"359 1148 CURVE",
"186 1062 LINE",
"58 947 LINE",
"28 746 LINE",
"58 684 OFFCURVE",
"91.667 631 OFFCURVE",
"129 587 CURVE",
"272 487 LINE",
"344.667 460.333 OFFCURVE",
"411.667 441.333 OFFCURVE",
"473 430 CURVE SMOOTH",
"674 386 LINE",
"702 328 OFFCURVE",
"721.333 270.667 OFFCURVE",
"732 214 CURVE",
"655.333 190 OFFCURVE",
"583.333 175.667 OFFCURVE",
"516 171 CURVE",
"448.667 185.667 OFFCURVE",
"386.667 205 OFFCURVE",
"330 229 CURVE",
"273 273 LINE",
"256 276 LINE",
"214 336 LINE",
"189 373 LINE",
"88 372 LINE",
"68 310 LINE",
"50 257 LINE",
"58 99 LINE",
"102 59 OFFCURVE",
"151.333 30.333 OFFCURVE",
"206 13 CURVE",
"416 -2 LINE",
"486.667 -18 OFFCURVE",
"553.667 -27.333 OFFCURVE",
"617 -30 CURVE",
"803 28 LINE",
"961 128 LINE",
"1019 200 LINE",
"1019 329 LINE",
"1009 393.667 OFFCURVE",
"989.667 451 OFFCURVE",
"961 501 CURVE",
"847 630 LINE",
"632 645 LINE",
"565.333 645 OFFCURVE",
"503 654.667 OFFCURVE",
"445 674 CURVE",
"384.333 700.667 OFFCURVE",
"331.667 729.333 OFFCURVE",
"287 760 CURVE",
"295 816.667 OFFCURVE",
"323.667 859.667 OFFCURVE",
"373 889 CURVE",
"402 904 LINE",
"603 904 LINE",
"672.333 886 OFFCURVE",
"734.667 862 OFFCURVE",
"790 832 CURVE",
"846 810.667 OFFCURVE",
"898.333 796.333 OFFCURVE",
"947 789 CURVE",
"961 832 LINE",
"933 1047 LINE",
"881 1088.333 OFFCURVE",
"828.333 1122 OFFCURVE",
"775 1148 CURVE",
"559 1191 LINE",
"559 1191 LINE"
);
}
);
width = 1036;
}
);
note = S;
unicode = 0053;
},
{
glyphname = T;
layers = (
{
layerId = "677F3FD9-5632-41B7-A1B7-A5DADB8D655F";
paths = (
{
closed = 1;
nodes = (
"369.333 7.667 OFFCURVE",
"448.333 17.667 OFFCURVE",
"527 11 CURVE SMOOTH",
"605.667 4.333 OFFCURVE",
"678 21.333 OFFCURVE",
"744 62 CURVE",
"621.333 168 OFFCURVE",
"560.667 304.333 OFFCURVE",
"562 471 CURVE SMOOTH",
"563.333 637.667 OFFCURVE",
"570.667 787.667 OFFCURVE",
"584 921 CURVE",
"598 948.333 OFFCURVE",
"621.667 968.833 OFFCURVE",
"655 982.5 CURVE SMOOTH",
"688.333 996.167 OFFCURVE",
"718 1003 OFFCURVE",
"744 1003 CURVE",
"812.667 975.667 OFFCURVE",
"855.333 938.167 OFFCURVE",
"872 890.5 CURVE SMOOTH",
"888.667 842.833 OFFCURVE",
"910.667 798.667 OFFCURVE",
"938 758 CURVE",
"988 790 LINE",
"988 855.333 OFFCURVE",
"985.833 921 OFFCURVE",
"981.5 987 CURVE SMOOTH",
"977.167 1053 OFFCURVE",
"962.667 1111.333 OFFCURVE",
"938 1162 CURVE",
"856 1162 OFFCURVE",
"772 1169.333 OFFCURVE",
"686 1184 CURVE SMOOTH",
"600 1198.667 OFFCURVE",
"515.667 1208.667 OFFCURVE",
"433 1214 CURVE SMOOTH",
"350.333 1219.333 OFFCURVE",
"271 1214.167 OFFCURVE",
"195 1198.5 CURVE SMOOTH",
"119 1182.833 OFFCURVE",
"50.333 1144.667 OFFCURVE",
"-11 1084 CURVE",
"2.333 1029.333 OFFCURVE",
"5.333 968.5 OFFCURVE",
"-2 901.5 CURVE SMOOTH",
"-9.333 834.5 OFFCURVE",
"6.667 786.667 OFFCURVE",
"46 758 CURVE",
"84.667 786.667 OFFCURVE",
"113.333 823.333 OFFCURVE",
"132 868 CURVE SMOOTH",
"150.667 912.667 OFFCURVE",
"166 948.667 OFFCURVE",
"178 976 CURVE",
"290 1003 LINE",
"399 921 LINE",
"410.333 801 OFFCURVE",
"417 691 OFFCURVE",
"419 591 CURVE SMOOTH",
"421 491 OFFCURVE",
"422 385.667 OFFCURVE",
"422 275 CURVE",
"410.667 209 OFFCURVE",
"371 167 OFFCURVE",
"303 149 CURVE SMOOTH",
"235 131 OFFCURVE",
"193.333 102 OFFCURVE",
"178 62 CURVE",
"290 -19 LINE",
"290 -19 LINE"
);
}
);
width = 986;
}
);
note = T;
unicode = 0054;
},
{
glyphname = U;
layers = (
{
layerId = "677F3FD9-5632-41B7-A1B7-A5DADB8D655F";
paths = (
{
closed = 1;
nodes = (
"565 1.667 OFFCURVE",
"605.333 2.333 OFFCURVE",
"644 -9 CURVE SMOOTH",
"682.667 -20.333 OFFCURVE",
"716 -12.333 OFFCURVE",
"744 15 CURVE",
"844 45 LINE SMOOTH",
"910.667 64.333 OFFCURVE",
"959.333 120.667 OFFCURVE",
"990 214 CURVE",
"1040 293.333 OFFCURVE",
"1060.333 385.333 OFFCURVE",
"1051 490 CURVE",
"1075 594.667 OFFCURVE",
"1074.333 702 OFFCURVE",
"1049 812 CURVE",
"1063.667 921.333 OFFCURVE",
"1103 1020 OFFCURVE",
"1167 1108 CURVE",
"1079 1188 LINE",
"1023.667 1188 OFFCURVE",
"974.5 1182.833 OFFCURVE",
"931.5 1172.5 CURVE SMOOTH",
"888.5 1162.167 OFFCURVE",
"845 1157 OFFCURVE",
"801 1157 CURVE",
"773 1108 LINE",
"837 1007 LINE",
"879 953 OFFCURVE",
"893 892 OFFCURVE",
"879 824 CURVE",
"897 722 LINE",
"905 609 LINE",
"897 561 OFFCURVE",
"893 507.333 OFFCURVE",
"893 448 CURVE",
"883 349 LINE",
"847.667 281.667 OFFCURVE",
"804.5 233 OFFCURVE",
"753.5 203 CURVE SMOOTH",
"702.5 173 OFFCURVE",
"649.667 158 OFFCURVE",
"595 158 CURVE",
"525 164.667 OFFCURVE",
"467.167 183 OFFCURVE",
"421.5 213 CURVE SMOOTH",
"375.833 243 OFFCURVE",
"346.667 290.667 OFFCURVE",
"334 356 CURVE",
"299 455 LINE",
"296.333 514.333 OFFCURVE",
"288.667 581 OFFCURVE",
"276 655 CURVE",
"298 766 LINE",
"279 858 LINE SMOOTH",
"267 918.667 OFFCURVE",
"285.333 978.667 OFFCURVE",
"334 1038 CURVE",
"406 1108 LINE",
"322 1188 LINE",
"266.667 1179.333 OFFCURVE",
"216.667 1179.333 OFFCURVE",
"172 1188 CURVE SMOOTH",
"127.333 1196.667 OFFCURVE",
"83.333 1186.333 OFFCURVE",
"40 1157 CURVE",
"55.333 1026.333 OFFCURVE",
"70.5 890.333 OFFCURVE",
"85.5 749 CURVE SMOOTH",
"100.5 607.667 OFFCURVE",
"111.333 477.667 OFFCURVE",
"118 359 CURVE",
"166 280 LINE",
"170.667 227.333 OFFCURVE",
"196 182.333 OFFCURVE",
"242 145 CURVE",
"302 86 LINE",
"348.667 60.667 OFFCURVE",
"422.333 28.333 OFFCURVE",
"523 -11 CURVE",
"523 -11 LINE"
);
}
);
width = 1020;
}
);
note = U;
unicode = 0055;
},
{
glyphname = V;
layers = (
{
layerId = "677F3FD9-5632-41B7-A1B7-A5DADB8D655F";
paths = (
{
closed = 1;
nodes = (
"645 -39 LINE",
"680 -39 LINE",
"780.667 23 OFFCURVE",
"859.833 107.167 OFFCURVE",
"917.5 213.5 CURVE SMOOTH",
"975.167 319.833 OFFCURVE",
"1026 431.667 OFFCURVE",
"1070 549 CURVE SMOOTH",
"1114 666.333 OFFCURVE",
"1158.5 780.167 OFFCURVE",
"1203.5 890.5 CURVE SMOOTH",
"1248.5 1000.833 OFFCURVE",
"1309 1091 OFFCURVE",
"1385 1161 CURVE",
"1327 1285 LINE",
"1251 1267 OFFCURVE",
"1186.167 1264.833 OFFCURVE",
"1132.5 1278.5 CURVE SMOOTH",
"1078.833 1292.167 OFFCURVE",
"1021 1282.667 OFFCURVE",
"959 1250 CURVE",
"923 1192 LINE",
"979 1122 OFFCURVE",
"1007 1052.333 OFFCURVE",
"1007 983 CURVE SMOOTH",
"1007 913.667 OFFCURVE",
"993.5 845.5 OFFCURVE",
"966.5 778.5 CURVE SMOOTH",
"939.5 711.5 OFFCURVE",
"906.333 645.667 OFFCURVE",
"867 581 CURVE SMOOTH",
"827.667 516.333 OFFCURVE",
"796.667 454.333 OFFCURVE",
"774 395 CURVE",
"645 364 LINE",
"525 470 OFFCURVE",
"446.667 615 OFFCURVE",
"410 799 CURVE SMOOTH",
"373.333 983 OFFCURVE",
"371.667 1145 OFFCURVE",
"405 1285 CURVE",
"325 1300.333 OFFCURVE",
"243.833 1304.167 OFFCURVE",
"161.5 1296.5 CURVE SMOOTH",
"79.167 1288.833 OFFCURVE",
"16 1254 OFFCURVE",
"-28 1192 CURVE",
"55.333 1107.333 OFFCURVE",
"123 1011.667 OFFCURVE",
"175 905 CURVE SMOOTH",
"227 798.333 OFFCURVE",
"275 689.167 OFFCURVE",
"319 577.5 CURVE SMOOTH",
"363 465.833 OFFCURVE",
"409.167 356.333 OFFCURVE",
"457.5 249 CURVE SMOOTH",
"505.833 141.667 OFFCURVE",
"568.333 45.667 OFFCURVE",
"645 -39 CURVE"
);
}
);
width = 1218;
}
);
note = V;
unicode = 0056;
},
{
glyphname = W;
layers = (
{
layerId = "677F3FD9-5632-41B7-A1B7-A5DADB8D655F";
paths = (
{
closed = 1;
nodes = (
"1489 977 LINE",
"1444 832 LINE",
"1405 679 LINE",
"1383 565 LINE",
"1344 443 LINE",
"1338 374 LINE",
"1360 282 LINE",
"1319 162 LINE SMOOTH",
"1285 64.667 OFFCURVE",
"1254 14.5 OFFCURVE",
"1226 11.5 CURVE SMOOTH",
"1198 8.5 OFFCURVE",
"1162.333 11.333 OFFCURVE",
"1119 20 CURVE SMOOTH",
"1075.667 28.667 OFFCURVE",
"1038.667 100.667 OFFCURVE",
"1008 236 CURVE",
"940 404 LINE",
"833 718 LINE",
"787 725 LINE",
"726 679 LINE",
"665 481 LINE",
"543 191 LINE",
"522.333 124.333 OFFCURVE",
"498 73.333 OFFCURVE",
"470 38 CURVE SMOOTH",
"442 2.667 OFFCURVE",
"396 -12.833 OFFCURVE",
"332 -8.5 CURVE SMOOTH",
"268 -4.167 OFFCURVE",
"223.833 9.667 OFFCURVE",
"199.5 33 CURVE SMOOTH",
"175.167 56.333 OFFCURVE",
"155.833 82.667 OFFCURVE",
"141.5 112 CURVE SMOOTH",
"127.167 141.333 OFFCURVE",
"127.333 173.833 OFFCURVE",
"142 209.5 CURVE SMOOTH",
"156.667 245.167 OFFCURVE",
"172 284.667 OFFCURVE",
"188 328 CURVE SMOOTH",
"204 371.333 OFFCURVE",
"210.667 437.667 OFFCURVE",
"208 527 CURVE",
"141.333 629 OFFCURVE",
"115.333 735.667 OFFCURVE",
"130 847 CURVE",
"54 1092 LINE",
"8 1237 LINE",
"39 1313 LINE",
"74.333 1343.667 OFFCURVE",
"122.667 1331 OFFCURVE",
"184 1275 CURVE",
"229 1206 LINE",
"260 1084 LINE",
"306 916 LINE",
"382 702 LINE",
"413 557 LINE",
"493 495 LINE",
"523 568 LINE",
"550 733 LINE",
"596 855 LINE",
"672 1046 LINE",
"723.333 1132.667 OFFCURVE",
"787 1145.333 OFFCURVE",
"863 1084 CURVE",
"932 878 LINE",
"1016 672 LINE",
"1085 557 LINE",
"1105 481 OFFCURVE",
"1140.667 478.667 OFFCURVE",
"1192 550 CURVE",
"1222 702 LINE",
"1268 825 LINE",
"1306 977 LINE",
"1310 1161.667 OFFCURVE",
"1350.667 1314.667 OFFCURVE",
"1428 1436 CURVE",
"1479.333 1486.667 OFFCURVE",
"1521.333 1495.333 OFFCURVE",
"1554 1462 CURVE SMOOTH",
"1586.667 1428.667 OFFCURVE",
"1606 1357.833 OFFCURVE",
"1612 1249.5 CURVE SMOOTH",
"1618 1141.167 OFFCURVE",
"1577 1050.333 OFFCURVE",
"1489 977 CURVE"
);
}
);
width = 1611;
}
);
note = W;
unicode = 0057;
},
{
glyphname = X;
layers = (
{
layerId = "677F3FD9-5632-41B7-A1B7-A5DADB8D655F";
paths = (
{
closed = 1;
nodes = (
"1506 -2.667 OFFCURVE",
"1461.667 -23.667 OFFCURVE",
"1373 13 CURVE",
"1310 48 LINE",
"1254 90 LINE",
"1198 146 LINE",
"1177 160 LINE",
"1121 209 LINE",
"1079 251 LINE",
"1030 293 LINE",
"974 321 LINE",
"918 342 LINE",
"890 377 LINE",
"848 391 LINE",
"785 468 LINE",
"737 468 LINE",
"737 454 LINE",
"674 370 LINE",
"611 293 LINE",
"534 139 LINE",
"464 62 LINE",
"380 -16.667 OFFCURVE",
"321.667 -14.333 OFFCURVE",
"289 69 CURVE",
"289 195 LINE",
"338 300 LINE",
"380 405 LINE",
"429 468 LINE",
"457 538 LINE",
"485 580 LINE",
"499 685 LINE",
"366 790 LINE",
"324 818 LINE",
"289 853 LINE",
"247 881 LINE",
"198 909 LINE",
"135 937 LINE",
"72 1007 LINE",
"2.667 1099.667 OFFCURVE",
"-2 1181 OFFCURVE",
"58 1251 CURVE",
"212 1216 LINE",
"303 1167 LINE",
"373 1118 LINE",
"457 1062 LINE",
"569 937 LINE",
"688 909 LINE",
"639 902 LINE",
"730 972 LINE",
"799 1139 LINE",
"911 1258 LINE",
"976.333 1309.333 OFFCURVE",
"1039.333 1307 OFFCURVE",
"1100 1251 CURVE",
"1107 1146 LINE",
"1037 1021 LINE",
"995 972 LINE",
"981 958 LINE",
"939 874 LINE",
"904 832 LINE",
"869 706 LINE",
"1058 510 LINE",
"1135 461 LINE",
"1219 412 LINE",
"1303 307 LINE",
"1387 216 LINE",
"1450 160 LINE",
"1506 76 LINE",
"1506 76 LINE"
);
}
);
width = 1401;
}
);
note = X;
unicode = 0058;
},
{
glyphname = Y;
layers = (
{
layerId = "677F3FD9-5632-41B7-A1B7-A5DADB8D655F";
paths = (
{
closed = 1;
nodes = (
"375 -80 OFFCURVE",
"482.833 -77 OFFCURVE",
"590.5 -71 CURVE SMOOTH",
"698.167 -65 OFFCURVE",
"799.667 -45.667 OFFCURVE",
"895 -13 CURVE",
"910.333 48.333 OFFCURVE",
"887.833 86.667 OFFCURVE",
"827.5 102 CURVE SMOOTH",
"767.167 117.333 OFFCURVE",
"737 142.333 OFFCURVE",
"737 177 CURVE",
"681 229.667 OFFCURVE",
"654.833 289.667 OFFCURVE",
"658.5 357 CURVE SMOOTH",
"662.167 424.333 OFFCURVE",
"678.833 492.5 OFFCURVE",
"708.5 561.5 CURVE SMOOTH",
"738.167 630.5 OFFCURVE",
"772.5 697.333 OFFCURVE",
"811.5 762 CURVE SMOOTH",
"850.5 826.667 OFFCURVE",
"878.333 883 OFFCURVE",
"895 931 CURVE",
"926.333 989 OFFCURVE",
"971.833 1038.167 OFFCURVE",
"1031.5 1078.5 CURVE SMOOTH",
"1091.167 1118.833 OFFCURVE",
"1130 1163 OFFCURVE",
"1148 1211 CURVE",
"1112 1332 LINE",
"1034.667 1332 OFFCURVE",
"968.667 1326 OFFCURVE",
"914 1314 CURVE SMOOTH",
"859.333 1302 OFFCURVE",
"800.333 1287 OFFCURVE",
"737 1269 CURVE",
"737 1191.667 OFFCURVE",
"738.333 1125.667 OFFCURVE",
"741 1071 CURVE SMOOTH",
"743.667 1016.333 OFFCURVE",
"722.667 957.667 OFFCURVE",
"678 895 CURVE",
"630 877 OFFCURVE",
"589.5 866.5 OFFCURVE",
"556.5 863.5 CURVE SMOOTH",
"523.5 860.5 OFFCURVE",
"499.333 859 OFFCURVE",
"484 859 CURVE",
"437.333 883 OFFCURVE",
"405.833 913.667 OFFCURVE",
"389.5 951 CURVE SMOOTH",
"373.167 988.333 OFFCURVE",
"362.167 1027.667 OFFCURVE",
"356.5 1069 CURVE SMOOTH",
"350.833 1110.333 OFFCURVE",
"345.5 1151.833 OFFCURVE",
"340.5 1193.5 CURVE SMOOTH",
"335.5 1235.167 OFFCURVE",
"321.333 1272.333 OFFCURVE",
"298 1305 CURVE",
"235.333 1336.333 OFFCURVE",
"178.833 1342.667 OFFCURVE",
"128.5 1324 CURVE SMOOTH",
"78.167 1305.333 OFFCURVE",
"29.667 1287 OFFCURVE",
"-17 1269 CURVE",
"14.333 1191 OFFCURVE",
"59.5 1113.833 OFFCURVE",
"118.5 1037.5 CURVE SMOOTH",
"177.5 961.167 OFFCURVE",
"235.5 882.833 OFFCURVE",
"292.5 802.5 CURVE SMOOTH",
"349.5 722.167 OFFCURVE",
"397.667 638.167 OFFCURVE",
"437 550.5 CURVE SMOOTH",
"476.333 462.833 OFFCURVE",
"492 368.333 OFFCURVE",
"484 267 CURVE",
"452 187.667 OFFCURVE",
"409.333 138.833 OFFCURVE",
"356 120.5 CURVE SMOOTH",
"302.667 102.167 OFFCURVE",
"253.333 77 OFFCURVE",
"208 45 CURVE",
"267 -80 LINE",
"267 -80 LINE"
);
}
);
width = 963;
}
);
note = Y;
unicode = 0059;
},
{
glyphname = Z;
layers = (
{
layerId = "677F3FD9-5632-41B7-A1B7-A5DADB8D655F";
paths = (
{
closed = 1;
nodes = (
"1078 90 LINE",
"1025 50 LINE",
"988 20 LINE",
"886 30 LINE",
"672 52 LINE",
"458 53 LINE",
"241 80 LINE",
"42 86 LINE",
"6 176 LINE",
"59 332 LINE",
"145 438 LINE",
"193 485 LINE",
"242 551 LINE",
"325 614 LINE",
"390 697 LINE",
"456 744 LINE",
"504 810 LINE",
"568 853 LINE",
"613 916 LINE",
"677 960 OFFCURVE",
"671.333 991 OFFCURVE",
"596 1009 CURVE",
"493 1023 LINE",
"390 1016 LINE",
"310 1046 LINE",
"230 1036 LINE",
"151 1045 LINE",
"71 1035 LINE",
"21.667 1053 OFFCURVE",
"17.667 1097.333 OFFCURVE",
"59 1168 CURVE",
"105 1201 LINE",
"213 1196 LINE",
"322 1211 LINE",
"436 1195 LINE",
"550 1198 LINE",
"652 1208 LINE",
"726 1208 LINE",
"817 1181 LINE",
"892 1181 LINE",
"933 1108 LINE",
"925 1035 LINE",
"938 962 LINE",
"882 913 LINE",
"822 813 LINE",
"681 727 LINE",
"576 591 LINE",
"457 518 LINE",
"348 415 LINE",
"250 315 LINE",
"240 239 LINE",
"343 226 LINE",
"413 223 LINE",
"493 239 LINE",
"544 236 LINE",
"596 252 LINE",
"655 249 LINE",
"715 266 LINE",
"775 263 LINE",
"835 279 LINE",
"926 279 LINE",
"994 239 LINE",
"1051 216 LINE",
"1065 146 LINE",
"1078 90 LINE"
);
}
);
width = 1057;
}
);
note = Z;
unicode = 005A;
},
{
glyphname = a;
layers = (
{
layerId = "677F3FD9-5632-41B7-A1B7-A5DADB8D655F";
paths = (
{
closed = 1;
nodes = (
"707 914.333 OFFCURVE",
"632.833 970.333 OFFCURVE",
"492.5 989 CURVE SMOOTH",
"352.167 1007.667 OFFCURVE",
"213.667 989.333 OFFCURVE",
"77 934 CURVE",
"79 873 LINE",
"169 794 LINE",
"332 804 LINE",
"520.667 862 OFFCURVE",
"597.667 817.333 OFFCURVE",
"563 670 CURVE",
"343 729 LINE",
"222 698 LINE",
"145.333 666 OFFCURVE",
"103 624.333 OFFCURVE",
"95 573 CURVE",
"63 489 LINE",
"78 348 LINE",
"140 221 LINE",
"270 133 LINE",
"410 120 LINE",
"563 234 LINE",
"628 126 LINE",
"728.667 94.667 OFFCURVE",
"762 130.667 OFFCURVE",
"728 234 CURVE",
"715 345 LINE",
"736.333 481 OFFCURVE",
"743.667 602.333 OFFCURVE",
"737 709 CURVE",
"715 821 LINE",
"715 821 LINE"
);
},
{
closed = 1;
nodes = (
"535 546 LINE",
"565 422 LINE",
"535 372.667 OFFCURVE",
"501.333 330.333 OFFCURVE",
"464 295 CURVE",
"400.667 296.333 OFFCURVE",
"341.333 304.667 OFFCURVE",
"286 320 CURVE",
"252 374.667 OFFCURVE",
"226.667 429.667 OFFCURVE",
"210 485 CURVE",
"320 568 LINE",
"535 546 LINE"
);
}
);
width = 727;
}
);
note = a;
unicode = 0061;
},
{
glyphname = adieresis;
layers = (
{
layerId = "677F3FD9-5632-41B7-A1B7-A5DADB8D655F";
paths = (
{
closed = 1;
nodes = (
"41 1558 LINE",
"41 1125 LINE",
"1557 1125 LINE",
"1557 1558 LINE",
"41 1558 LINE"
);
},
{
closed = 1;
nodes = (
"49 42 LINE",
"41 0 LINE",
"1557 0 LINE",
"1557 1058 LINE",
"1479 1058 OFFCURVE",
"1417.833 1053.833 OFFCURVE",
"1373.5 1045.5 CURVE SMOOTH",
"1329.167 1037.167 OFFCURVE",
"1294.167 1031.333 OFFCURVE",
"1268.5 1028 CURVE SMOOTH",
"1242.833 1024.667 OFFCURVE",
"1220.667 1020.5 OFFCURVE",
"1202 1015.5 CURVE SMOOTH",
"1183.333 1010.5 OFFCURVE",
"1132.333 995.5 OFFCURVE",
"1049 970.5 CURVE SMOOTH",
"965.667 945.5 OFFCURVE",
"857.333 892.833 OFFCURVE",
"724 812.5 CURVE SMOOTH",
"590.667 732.167 OFFCURVE",
"510.167 679.5 OFFCURVE",
"482.5 654.5 CURVE SMOOTH",
"454.833 629.5 OFFCURVE",
"403.5 573.833 OFFCURVE",
"328.5 487.5 CURVE SMOOTH",
"253.5 401.167 OFFCURVE",
"160.333 252.667 OFFCURVE",
"49 42 CURVE"
);
}
);
width = 1666;
}
);
note = .001;
unicode = 00E4;
},
{
glyphname = b;
layers = (
{
layerId = "677F3FD9-5632-41B7-A1B7-A5DADB8D655F";
paths = (
{
closed = 1;
nodes = (
"27 1355 LINE",
"0 1314 LINE",
"27 1231 LINE",
"14 1168 LINE",
"48 1101 LINE",
"31 1035 LINE",
"35 978 LINE",
"75 893 LINE",
"55 827 LINE",
"82 641 LINE",
"102 305 LINE",
"59 184 LINE",
"82 119 LINE",
"124 77 LINE",
"316 77 LINE",
"412 50 LINE",
"563 64 LINE",
"741 160 LINE",
"851 325 LINE",
"851 366 LINE",
"865 421 LINE",
"851 572 LINE",
"769 764 LINE",
"724.333 822.667 OFFCURVE",
"678.667 873 OFFCURVE",
"632 915 CURVE",
"522 970 LINE",
"412 970 LINE",
"345.333 973.333 OFFCURVE",
"286.667 985 OFFCURVE",
"236 1005 CURVE",
"247.333 1091.667 OFFCURVE",
"234 1191.667 OFFCURVE",
"196 1305 CURVE",
"162 1338.333 OFFCURVE",
"105.667 1355 OFFCURVE",
"27 1355 CURVE SMOOTH"
);
},
{
closed = 1;
nodes = (
"432.333 800.667 OFFCURVE",
"496.333 782.333 OFFCURVE",
"549 751 CURVE",
"588.333 703.667 OFFCURVE",
"620.333 653 OFFCURVE",
"645 599 CURVE",
"632 366 LINE",
"598.667 312.667 OFFCURVE",
"562 267 OFFCURVE",
"522 229 CURVE",
"453.333 230.333 OFFCURVE",
"389.333 239.333 OFFCURVE",
"330 256 CURVE",
"293.333 315.333 OFFCURVE",
"265.667 375 OFFCURVE",
"247 435 CURVE SMOOTH",
"233 476 LINE",
"247 654 LINE",
"276.333 714.667 OFFCURVE",
"313 765.333 OFFCURVE",
"357 806 CURVE",
"357 806 LINE"
);
}
);
width = 836;
}
);
note = b;
unicode = 0062;
},
{
glyphname = c;
layers = (
{
layerId = "677F3FD9-5632-41B7-A1B7-A5DADB8D655F";
paths = (
{
closed = 1;
nodes = (
"304.333 1068.333 OFFCURVE",
"230.667 1041.333 OFFCURVE",
"172 1008 CURVE",
"119 965 LINE",
"106 902 LINE",
"63 860 LINE",
"20 819 LINE",
"6 520 LINE",
"29.333 425.333 OFFCURVE",
"61.667 344.333 OFFCURVE",
"103 277 CURVE",
"310 141 LINE",
"462 101 LINE",
"559 141 LINE",
"643.667 183.667 OFFCURVE",
"712.667 229 OFFCURVE",
"766 277 CURVE",
"782 333 OFFCURVE",
"791.333 387.333 OFFCURVE",
"794 440 CURVE",
"683 466 LINE",
"490 331 LINE",
"352 317 LINE",
"255 399 LINE",
"218.333 492.333 OFFCURVE",
"195.333 582.667 OFFCURVE",
"186 670 CURVE",
"221.333 748 OFFCURVE",
"267.333 815.667 OFFCURVE",
"324 873 CURVE",
"409.333 856.333 OFFCURVE",
"483 824.667 OFFCURVE",
"545 778 CURVE",
"697 710 LINE",
"753 791 LINE",
"766 831 LINE",
"753 940 LINE",
"698 967 LINE",
"602 1014 LINE",
"607 1044 LINE",
"512 1055 LINE",
"393 1089 LINE",
"393 1089 LINE"
);
}
);
width = 808;
}
);
note = c;
unicode = 0063;
},
{
glyphname = d;
layers = (
{
layerId = "677F3FD9-5632-41B7-A1B7-A5DADB8D655F";
paths = (
{
closed = 1;
nodes = (
"747 1211 LINE",
"721 1250 LINE",
"659.667 1244 OFFCURVE",
"616 1222 OFFCURVE",
"590 1184 CURVE",
"582 1111 LINE",
"581 994 LINE",
"592.333 894 OFFCURVE",
"560.333 851 OFFCURVE",
"485 865 CURVE",
"340 860 LINE",
"227 836 LINE",
"158.333 796 OFFCURVE",
"104.333 752.667 OFFCURVE",
"65 706 CURVE",
"23 609 LINE",
"10 466 LINE",
"23 415 LINE",
"23 375 LINE",
"127 219 LINE",
"296 128 LINE",
"440 115 LINE",
"531 141 LINE",
"713 141 LINE",
"752 180 LINE",
"765 232 LINE",
"752 375 LINE",
"752 674 LINE",
"778 869 LINE",
"778 909 LINE",
"768 1048 LINE",
"747 1211 LINE"
);
},
{
closed = 1;
nodes = (
"509.667 701.333 OFFCURVE",
"556.333 697.333 OFFCURVE",
"587 688 CURVE",
"600 518 LINE",
"587 480 LINE",
"569.667 422.667 OFFCURVE",
"543.667 366 OFFCURVE",
"509 310 CURVE",
"452.333 294 OFFCURVE",
"391.667 285.333 OFFCURVE",
"327 284 CURVE",
"288.333 320.667 OFFCURVE",
"253.333 364.333 OFFCURVE",
"222 415 CURVE",
"223 532 LINE",
"237.667 588.667 OFFCURVE",
"262 637.667 OFFCURVE",
"296 679 CURVE",
"334.667 694.333 OFFCURVE",
"385 701.333 OFFCURVE",
"447 700 CURVE",
"447 700 LINE"
);
}
);
width = 778;
}
);
note = d;
unicode = 0064;
},
{
glyphname = e;
layers = (
{
layerId = "677F3FD9-5632-41B7-A1B7-A5DADB8D655F";
paths = (
{
closed = 1;
nodes = (
"10.667 290.333 OFFCURVE",
"24 246 OFFCURVE",
"44 196 CURVE",
"137 123 LINE",
"263 81 LINE",
"398 60 LINE",
"544 91 LINE",
"584.667 101.667 OFFCURVE",
"626.667 119 OFFCURVE",
"670 143 CURVE",
"701 206 LINE",
"691 279 LINE",
"681.667 321 OFFCURVE",
"650.667 336.333 OFFCURVE",
"598 325 CURVE",
"513 269 LINE",
"398 216 LINE",
"357 206 LINE",
"252 227 LINE",
"211.333 239 OFFCURVE",
"190.667 266.667 OFFCURVE",
"190 310 CURVE",
"218.667 336.667 OFFCURVE",
"253.333 357.667 OFFCURVE",
"294 373 CURVE",
"388 386 LINE",
"532.667 388 OFFCURVE",
"623 435.667 OFFCURVE",
"659 529 CURVE",
"673.667 574.333 OFFCURVE",
"684.333 623 OFFCURVE",
"691 675 CURVE",
"628 790 LINE",
"524 863 LINE",
"409 915 LINE",
"263 915 LINE",
"242 905 LINE",
"106 863 LINE",
"84.667 826.333 OFFCURVE",
"70.667 796.333 OFFCURVE",
"64 773 CURVE",
"0 588 LINE",
"-8 427 LINE",
"4 329 LINE",
"4 329 LINE"
);
},
{
closed = 1;
nodes = (
"4 329 LINE",
"4 329 LINE"
);
},
{
closed = 1;
nodes = (
"134.333 637.667 OFFCURVE",
"174.667 710.333 OFFCURVE",
"294 711 CURVE",
"388 717 LINE",
"430 707 OFFCURVE",
"471.667 689.667 OFFCURVE",
"513 665 CURVE",
"505 631.667 OFFCURVE",
"489.5 596.5 OFFCURVE",
"466.5 559.5 CURVE SMOOTH",
"443.5 522.5 OFFCURVE",
"345.667 500.333 OFFCURVE",
"173 493 CURVE",
"173 493 LINE"
);
}
);
width = 788;
}
);
note = e;
unicode = 0065;
},
{
glyphname = f;
layers = (
{
layerId = "677F3FD9-5632-41B7-A1B7-A5DADB8D655F";
paths = (
{
closed = 1;
nodes = (
"424.667 1094 OFFCURVE",
"514.667 1172 OFFCURVE",
"708 1190 CURVE",
"669 1285 LINE",
"300 1295 LINE",
"258.667 1245.667 OFFCURVE",
"245.667 1136 OFFCURVE",
"261 966 CURVE",
"19 966 LINE",
"26 810 LINE",
"252 799 LINE",
"256 127 LINE",
"289 21 LINE",
"405 0 LINE",
"438 64 LINE",
"443 453 LINE",
"439 795 LINE",
"690 811 LINE",
"737.333 858.333 OFFCURVE",
"737.333 920.333 OFFCURVE",
"690 997 CURVE",
"438 956 LINE",
"438 956 LINE"
);
}
);
width = 743;
}
);
note = f;
unicode = 0066;
},
{
glyphname = g;
layers = (
{
layerId = "677F3FD9-5632-41B7-A1B7-A5DADB8D655F";
paths = (
{
closed = 1;
nodes = (
"116 1000 LINE",
"29 899 LINE",
"-5 743 LINE",
"15 551 LINE",
"73 398 LINE",
"115 299 LINE",
"234 240 LINE",
"321 225 LINE",
"459 227 LINE",
"535.667 66.333 OFFCURVE",
"478 -11 OFFCURVE",
"286 -5 CURVE",
"197 7 LINE",
"128 89 LINE",
"-45.333 107 OFFCURVE",
"-59 15.667 OFFCURVE",
"87 -185 CURVE",
"395 -176 LINE",
"620 -120 LINE",
"658.667 -43.333 OFFCURVE",
"665 58 OFFCURVE",
"639 184 CURVE",
"659 312 LINE",
"710 461 LINE",
"750 679 LINE",
"709 822 LINE",
"719 963 LINE",
"763 1028 LINE",
"778 1094 LINE",
"707 1107 LINE",
"645 1119 LINE",
"591 1045 LINE",
"536 1031 LINE",
"421 1051 LINE",
"321 1051 LINE",
"249 1053.667 OFFCURVE",
"180.667 1036.667 OFFCURVE",
"116 1000 CURVE"
);
},
{
closed = 1;
nodes = (
"366.667 909.667 OFFCURVE",
"414.667 903 OFFCURVE",
"436 881 CURVE SMOOTH",
"498 815.667 OFFCURVE",
"535 742.333 OFFCURVE",
"547 661 CURVE",
"531 562 LINE",
"481 506.667 OFFCURVE",
"444.333 455 OFFCURVE",
"421 407 CURVE",
"359 408.333 OFFCURVE",
"311 416.667 OFFCURVE",
"277 432 CURVE",
"257 479.333 OFFCURVE",
"232 520 OFFCURVE",
"202 554 CURVE",
"159 622 LINE",
"156 703 LINE",
"192 764 LINE",
"218.667 818.667 OFFCURVE",
"252 864.333 OFFCURVE",
"292 901 CURVE",
"292 901 LINE"
);
}
);
width = 796;
}
);
note = g;
unicode = 0067;
},
{
glyphname = h;
layers = (
{
layerId = "677F3FD9-5632-41B7-A1B7-A5DADB8D655F";
paths = (
{
closed = 1;
nodes = (
"284 1213 LINE",
"251 1310 LINE",
"135 1300 LINE",
"82 1233 LINE",
"106 950 LINE",
"122 368 LINE",
"99 157 LINE",
"133 55 LINE",
"251 35 LINE",
"284 97 LINE",
"294 493 LINE",
"442 567.667 OFFCURVE",
"508.333 517.667 OFFCURVE",
"493 343 CURVE SMOOTH",
"476 187 LINE",
"477.333 25.667 OFFCURVE",
"529.333 -31.333 OFFCURVE",
"632 16 CURVE",
"654 80 LINE",
"657 368 LINE",
"692.333 400 OFFCURVE",
"699 467.333 OFFCURVE",
"677 570 CURVE",
"618.333 729.333 OFFCURVE",
"528.833 776 OFFCURVE",
"408.5 710 CURVE SMOOTH",
"288.167 644 OFFCURVE",
"240 721 OFFCURVE",
"264 941 CURVE",
"284 1213 LINE"
);
}
);
width = 821;
}
);
note = h;
unicode = 0068;
},
{
glyphname = i;
lastChange = "2026-02-16 17:34:32 +0000";
layers = (
{
layerId = "677F3FD9-5632-41B7-A1B7-A5DADB8D655F";
paths = (
{
closed = 1;
nodes = (
"350 60 LINE",
"370 420 LINE",
"350 786 LINE",
"330 849 LINE",
"256 823 LINE",
"148 799 LINE",
"165 99 LINE",
"199 33 LINE",
"317 20 LINE"
);
},
{
closed = 1;
nodes = (
"251 975 OFFCURVE",
"322 1003 OFFCURVE",
"388 1056 CURVE",
"380 1185 LINE",
"248 1257 LINE",
"102 1225 OFFCURVE",
"60 1153 OFFCURVE",
"121 1040 CURVE",
"174 974 LINE"
);
}
);
width = 478;
}
);
note = i;
unicode = 0069;
},
{
glyphname = j;
layers = (
{
layerId = "677F3FD9-5632-41B7-A1B7-A5DADB8D655F";
paths = (
{
closed = 1;
nodes = (
"657 786 LINE",
"714 761 LINE",
"563 823 LINE",
"455 799 LINE",
"472 99 LINE SMOOTH",
"484 -138.333 OFFCURVE",
"418.333 -241.333 OFFCURVE",
"275 -210 CURVE",
"99 -248 LINE",
"165 -330 LINE",
"212.333 -420.667 OFFCURVE",
"365.333 -432.333 OFFCURVE",
"624 -365 CURVE",
"657 60 LINE",
"677 420 LINE",
"657 786 LINE"
);
},
{
closed = 1;
nodes = (
"546.667 1047.333 OFFCURVE",
"618 1074.667 OFFCURVE",
"684 1128 CURVE",
"676 1257 LINE",
"544 1329 LINE",
"398 1297 OFFCURVE",
"355.667 1224.667 OFFCURVE",
"417 1112 CURVE",
"470 1046 LINE",
"470 1046 LINE"
);
}
);
width = 566;
}
);
note = j;
unicode = 006A;
},
{
glyphname = k;
layers = (
{
layerId = "677F3FD9-5632-41B7-A1B7-A5DADB8D655F";
paths = (
{
closed = 1;
nodes = (
"366 111 LINE",
"319 78 LINE",
"298 424 LINE",
"463 191 LINE",
"665 0 LINE",
"746 52 LINE",
"749 132 LINE",
"502 459 LINE",
"379 569 LINE",
"599 736.333 OFFCURVE",
"744.333 870.333 OFFCURVE",
"815 971 CURVE",
"752 1064 LINE",
"331 765 LINE",
"319 1041 LINE",
"291 1095 LINE",
"192 1076 LINE",
"164 989 LINE",
"136 666 LINE",
"150 60 LINE",
"240 29 LINE",
"366 111 LINE"
);
}
);
width = 820;
}
);
note = k;
unicode = 006B;
},
{
glyphname = l;
layers = (
{
layerId = "677F3FD9-5632-41B7-A1B7-A5DADB8D655F";
paths = (
{
closed = 1;
nodes = (
"467 14 LINE",
"436 122 LINE",
"270 139 LINE",
"240 260 LINE",
"280 632 LINE",
"265 918 LINE",
"280 1215 LINE",
"246 1279 LINE",
"128 1257 LINE",
"54 1132 LINE",
"102 716.667 OFFCURVE",
"103 411.333 OFFCURVE",
"57 216 CURVE",
"77 38 LINE",
"185 0 LINE",
"467 14 LINE"
);
}
);
width = 421;
}
);
note = l;
unicode = 006C;
},
{
glyphname = m;
layers = (
{
layerId = "677F3FD9-5632-41B7-A1B7-A5DADB8D655F";
paths = (
{
closed = 1;
nodes = (
"593 839 LINE",
"401 823 LINE",
"329.667 769.667 OFFCURVE",
"271.667 777.667 OFFCURVE",
"227 847 CURVE",
"156 840 LINE",
"62.667 871.333 OFFCURVE",
"55.333 828 OFFCURVE",
"134 710 CURVE",
"161 321 LINE",
"148 75 LINE",
"182 16 LINE",
"300 4 LINE",
"333 40 LINE",
"326 591 LINE",
"548.667 729.667 OFFCURVE",
"620.667 575 OFFCURVE",
"542 127 CURVE",
"554 4 LINE",
"626 1 LINE",
"709 19 LINE",
"665 567.667 OFFCURVE",
"742.333 758.667 OFFCURVE",
"941 592 CURVE",
"905 217.333 OFFCURVE",
"904.333 19.667 OFFCURVE",
"939 -1 CURVE",
"1026 19 LINE",
"1116.667 -25 OFFCURVE",
"1150.333 139 OFFCURVE",
"1127 511 CURVE",
"1149.667 717 OFFCURVE",
"1126.333 813.667 OFFCURVE",
"1057 801 CURVE",
"907.667 755.667 OFFCURVE",
"753 768.333 OFFCURVE",
"593 839 CURVE"
);
}
);
width = 1260;
}
);
note = m;
unicode = 006D;
},
{
glyphname = n;
layers = (
{
layerId = "677F3FD9-5632-41B7-A1B7-A5DADB8D655F";
paths = (
{
closed = 1;
nodes = (
"583 974 LINE",
"391 958 LINE",
"319.667 904.667 OFFCURVE",
"262 912.667 OFFCURVE",
"218 982 CURVE",
"147 975 LINE",
"53 1006.333 OFFCURVE",
"45.667 963 OFFCURVE",
"125 845 CURVE",
"151 456 LINE",
"138 210 LINE",
"172 151 LINE",
"290 140 LINE",
"333 175 LINE",
"330 451 LINE",
"327 726 LINE",
"393 758 LINE",
"499 731 LINE",
"533 679 LINE",
"547 468 LINE",
"522 262 LINE",
"508 191 LINE",
"534 140 LINE",
"711 135 LINE",
"785.667 623.667 OFFCURVE",
"743 903.333 OFFCURVE",
"583 974 CURVE"
);
}
);
width = 760;
}
);
note = n;
unicode = 006E;
},
{
glyphname = o;
layers = (
{
layerId = "677F3FD9-5632-41B7-A1B7-A5DADB8D655F";
paths = (
{
closed = 1;
nodes = (
"181 915 LINE",
"94 814 LINE",
"60 658 LINE",
"80 466 LINE",
"138 313 LINE",
"180 214 LINE",
"299 155 LINE",
"386 130 LINE",
"524 142 LINE",
"685 230 LINE",
"738 360 LINE",
"754 448 LINE",
"766 514 LINE",
"785 604 LINE",
"710 779 LINE",
"670 832.333 OFFCURVE",
"628.667 878 OFFCURVE",
"586 916 CURVE",
"486 966 LINE",
"386 966 LINE",
"314 968.667 OFFCURVE",
"245.667 951.667 OFFCURVE",
"181 915 CURVE"
);
},
{
closed = 1;
nodes = (
"405 811.333 OFFCURVE",
"463 794.667 OFFCURVE",
"511 766 CURVE",
"586.333 707.333 OFFCURVE",
"623.333 634 OFFCURVE",
"622 546 CURVE",
"586 417 LINE",
"556 368.333 OFFCURVE",
"522.667 326.667 OFFCURVE",
"486 292 CURVE",
"424 293.333 OFFCURVE",
"366 301.667 OFFCURVE",
"312 317 CURVE",
"278.667 371 OFFCURVE",
"253.667 425 OFFCURVE",
"237 479 CURVE SMOOTH",
"224 517 LINE",
"237 679 LINE",
"263.667 733.667 OFFCURVE",
"297 779.333 OFFCURVE",
"337 816 CURVE",
"337 816 LINE"
);
}
);
width = 756;
}
);
note = o;
unicode = 006F;
},
{
glyphname = odieresis;
layers = (
{
layerId = "677F3FD9-5632-41B7-A1B7-A5DADB8D655F";
paths = (
{
closed = 1;
nodes = (
"770 23 LINE",
"1041 23 LINE",
"1089.667 25.667 OFFCURVE",
"1130.167 45.333 OFFCURVE",
"1162.5 82 CURVE SMOOTH",
"1194.833 118.667 OFFCURVE",
"1211 162.333 OFFCURVE",
"1211 213 CURVE",
"1207 287 OFFCURVE",
"1170.667 338.333 OFFCURVE",
"1102 367 CURVE",
"1151.333 397.667 OFFCURVE",
"1176 445.333 OFFCURVE",
"1176 510 CURVE",
"1172.667 548 OFFCURVE",
"1158.667 579.667 OFFCURVE",
"1134 605 CURVE SMOOTH",
"1109.333 630.333 OFFCURVE",
"1078.333 645 OFFCURVE",
"1041 649 CURVE",
"770 649 LINE",
"770 23 LINE"
);
},
{
closed = 1;
nodes = (
"332 23 LINE",
"332 353 LINE",
"709 2 LINE",
"709 649 LINE",
"570 649 LINE",
"570 340 LINE",
"197 676 LINE",
"197 23 LINE",
"332 23 LINE"
);
},
{
closed = 1;
nodes = (
"1660 667 OFFCURVE",
"1609 676 OFFCURVE",
"1551 676 CURVE",
"1490.333 673.333 OFFCURVE",
"1434.333 657.833 OFFCURVE",
"1383 629.5 CURVE SMOOTH",
"1331.667 601.167 OFFCURVE",
"1290.667 562.833 OFFCURVE",
"1260 514.5 CURVE SMOOTH",
"1229.333 466.167 OFFCURVE",
"1213 412.333 OFFCURVE",
"1211 353 CURVE SMOOTH",
"1211 289 OFFCURVE",
"1225.833 231.333 OFFCURVE",
"1255.5 180 CURVE SMOOTH",
"1285.167 128.667 OFFCURVE",
"1325.667 87.667 OFFCURVE",
"1377 57 CURVE SMOOTH",
"1428.333 26.333 OFFCURVE",
"1484.667 8 OFFCURVE",
"1546 2 CURVE",
"1556 0.667 OFFCURVE",
"1569.667 0 OFFCURVE",
"1587 0 CURVE SMOOTH",
"1626.333 0 OFFCURVE",
"1665.333 7.667 OFFCURVE",
"1704 23 CURVE",
"1704 174 LINE",
"1672 154.667 OFFCURVE",
"1636 144 OFFCURVE",
"1596 142 CURVE",
"1575.333 142 OFFCURVE",
"1558.667 143.333 OFFCURVE",
"1546 146 CURVE SMOOTH",
"1496.667 156.667 OFFCURVE",
"1456.5 179.5 OFFCURVE",
"1425.5 214.5 CURVE SMOOTH",
"1394.5 249.5 OFFCURVE",
"1379 291.333 OFFCURVE",
"1379 340 CURVE SMOOTH",
"1379 391.333 OFFCURVE",
"1396 435.333 OFFCURVE",
"1430 472 CURVE SMOOTH",
"1464 508.667 OFFCURVE",
"1507 531 OFFCURVE",
"1559 539 CURVE SMOOTH",
"1581 541.667 OFFCURVE",
"1595.333 543 OFFCURVE",
"1602 543 CURVE SMOOTH",
"1631.333 543 OFFCURVE",
"1665.333 532 OFFCURVE",
"1704 510 CURVE",
"1704 649 LINE",
"1704 649 LINE"
);
},
{
closed = 1;
nodes = (
"339.667 1061.667 OFFCURVE",
"304.333 1073 OFFCURVE",
"269 1073 CURVE SMOOTH",
"221.667 1071.667 OFFCURVE",
"179.333 1057.167 OFFCURVE",
"142 1029.5 CURVE SMOOTH",
"104.667 1001.833 OFFCURVE",
"86 956.333 OFFCURVE",
"86 893 CURVE SMOOTH",
"86 827.667 OFFCURVE",
"109.333 781.667 OFFCURVE",
"156 755 CURVE SMOOTH",
"202.667 728.333 OFFCURVE",
"275.667 715 OFFCURVE",
"375 715 CURVE SMOOTH",
"873 715 LINE",
"375 1039 LINE",
"375 1039 LINE"
);
},
{
closed = 1;
nodes = (
"1526 1026 LINE",
"1045 715 LINE",
"1546 715 LINE SMOOTH",
"1648.667 715 OFFCURVE",
"1722.5 728.833 OFFCURVE",
"1767.5 756.5 CURVE SMOOTH",
"1812.5 784.167 OFFCURVE",
"1835 829.667 OFFCURVE",
"1835 893 CURVE SMOOTH",
"1835 956.333 OFFCURVE",
"1816.667 1001.833 OFFCURVE",
"1780 1029.5 CURVE SMOOTH",
"1743.333 1057.167 OFFCURVE",
"1701.667 1071.667 OFFCURVE",
"1655 1073 CURVE SMOOTH",
"1619.667 1073 OFFCURVE",
"1576.667 1057.333 OFFCURVE",
"1526 1026 CURVE"
);
},
{
closed = 1;
nodes = (
"1643.333 1159.667 OFFCURVE",
"1667 1208 OFFCURVE",
"1667 1266 CURVE SMOOTH",
"1667 1318 OFFCURVE",
"1644.667 1361.667 OFFCURVE",
"1600 1397 CURVE SMOOTH",
"1570.667 1420.333 OFFCURVE",
"1536.333 1432 OFFCURVE",
"1497 1432 CURVE SMOOTH",
"1459 1432 OFFCURVE",
"1422.833 1420.833 OFFCURVE",
"1388.5 1398.5 CURVE SMOOTH",
"1354.167 1376.167 OFFCURVE",
"1328.333 1344.333 OFFCURVE",
"1311 1303 CURVE SMOOTH",
"1075 764 LINE",
"1596 1121 LINE",
"1596 1121 LINE"
);
},
{
closed = 1;
nodes = (
"848 764 LINE",
"613 1303 LINE SMOOTH",
"595.667 1345.667 OFFCURVE",
"571.333 1378.167 OFFCURVE",
"540 1400.5 CURVE SMOOTH",
"508.667 1422.833 OFFCURVE",
"475 1434 OFFCURVE",
"439 1434 CURVE SMOOTH",
"398.333 1434 OFFCURVE",
"364 1421.667 OFFCURVE",
"336 1397 CURVE SMOOTH",
"282.667 1350.333 OFFCURVE",
"256 1301.333 OFFCURVE",
"256 1250 CURVE SMOOTH",
"256 1201.333 OFFCURVE",
"280 1158.333 OFFCURVE",
"328 1121 CURVE",
"848 764 LINE"
);
},
{
closed = 1;
nodes = (
"852 826 LINE",
"948 1444 LINE",
"948 1498.667 OFFCURVE",
"928.667 1544.5 OFFCURVE",
"890 1581.5 CURVE SMOOTH",
"851.333 1618.5 OFFCURVE",
"802 1637 OFFCURVE",
"742 1637 CURVE",
"700 1631 OFFCURVE",
"664.5 1609.667 OFFCURVE",
"635.5 1573 CURVE SMOOTH",
"606.5 1536.333 OFFCURVE",
"592 1496 OFFCURVE",
"592 1452 CURVE SMOOTH",
"592 1429.333 OFFCURVE",
"597.667 1406.333 OFFCURVE",
"609 1383 CURVE",
"852 826 LINE"
);
},
{
closed = 1;
nodes = (
"1325.667 1407 OFFCURVE",
"1331 1430 OFFCURVE",
"1331 1452 CURVE SMOOTH",
"1331 1480.667 OFFCURVE",
"1324.5 1508.5 OFFCURVE",
"1311.5 1535.5 CURVE SMOOTH",
"1298.5 1562.5 OFFCURVE",
"1280.167 1585.167 OFFCURVE",
"1256.5 1603.5 CURVE SMOOTH",
"1232.833 1621.833 OFFCURVE",
"1207.333 1633 OFFCURVE",
"1180 1637 CURVE",
"1142 1637 OFFCURVE",
"1107.5 1629.167 OFFCURVE",
"1076.5 1613.5 CURVE SMOOTH",
"1045.5 1597.833 OFFCURVE",
"1021 1576.833 OFFCURVE",
"1003 1550.5 CURVE SMOOTH",
"985 1524.167 OFFCURVE",
"975.667 1495 OFFCURVE",
"975 1463 CURVE",
"1034 1450 LINE",
"1034 1430 LINE",
"1028.667 1428.667 OFFCURVE",
"1021.5 1426.5 OFFCURVE",
"1012.5 1423.5 CURVE SMOOTH",
"1003.5 1420.5 OFFCURVE",
"997.333 1415.667 OFFCURVE",
"994 1409 CURVE",
"988.667 1400.333 OFFCURVE",
"985.167 1389.5 OFFCURVE",
"983.5 1376.5 CURVE SMOOTH",
"981.833 1363.5 OFFCURVE",
"981 1353.333 OFFCURVE",
"981 1346 CURVE",
"1071 826 LINE",
"1315 1383 LINE",
"1315 1383 LINE"
);
},
{
closed = 1;
nodes = (
"908 297 LINE",
"985 297 LINE",
"1048.333 293 OFFCURVE",
"1080 265.667 OFFCURVE",
"1080 215 CURVE SMOOTH",
"1080 191 OFFCURVE",
"1070.167 173.5 OFFCURVE",
"1050.5 162.5 CURVE SMOOTH",
"1030.833 151.5 OFFCURVE",
"1009 146 OFFCURVE",
"985 146 CURVE SMOOTH",
"908 146 LINE",
"908 297 LINE"
);
},
{
closed = 1;
nodes = (
"908 539 LINE",
"973 539 LINE SMOOTH",
"990.333 539 OFFCURVE",
"1005.667 532.667 OFFCURVE",
"1019 520 CURVE SMOOTH",
"1032.333 507.333 OFFCURVE",
"1039.667 492.333 OFFCURVE",
"1041 475 CURVE",
"1041 455 OFFCURVE",
"1034.833 437.5 OFFCURVE",
"1022.5 422.5 CURVE SMOOTH",
"1010.167 407.5 OFFCURVE",
"994.333 400 OFFCURVE",
"975 400 CURVE SMOOTH",
"908 400 LINE",
"908 539 LINE"
);
}
);
width = 1913;
}
);
unicode = 00F6;
},
{
glyphname = p;
layers = (
{
layerId = "677F3FD9-5632-41B7-A1B7-A5DADB8D655F";
paths = (
{
closed = 1;
nodes = (
"696 820 LINE",
"544 876 LINE",
"445 886 LINE",
"335 871 LINE",
"269 849.667 OFFCURVE",
"226.667 826.5 OFFCURVE",
"208 801.5 CURVE SMOOTH",
"189.333 776.5 OFFCURVE",
"165.333 695.667 OFFCURVE",
"136 559 CURVE",
"135 474 LINE",
"137 408 LINE",
"143 295 LINE",
"160 120 LINE",
"181 -276 LINE",
"299 -304 LINE",
"365 -233.333 OFFCURVE",
"374.333 -86.333 OFFCURVE",
"327 137 CURVE",
"425 65.667 OFFCURVE",
"523.333 56.667 OFFCURVE",
"622 110 CURVE",
"741 169 LINE",
"783 268 LINE",
"841 421 LINE",
"831 604 LINE",
"797 715 LINE",
"696 820 LINE"
);
},
{
closed = 1;
nodes = (
"480 681.333 OFFCURVE",
"538 664.667 OFFCURVE",
"586 636 CURVE",
"661.333 577.333 OFFCURVE",
"688.333 505.667 OFFCURVE",
"667 421 CURVE",
"661 316 LINE",
"631 248 OFFCURVE",
"596 223 OFFCURVE",
"556 241 CURVE",
"497.333 189.667 OFFCURVE",
"444.333 191.333 OFFCURVE",
"397 246 CURVE",
"357 260.667 OFFCURVE",
"328.667 295 OFFCURVE",
"312 349 CURVE SMOOTH",
"299 387 LINE",
"312 549 LINE",
"338.667 603.667 OFFCURVE",
"372 649.333 OFFCURVE",
"412 686 CURVE",
"412 686 LINE"
);
}
);
width = 992;
}
);
note = p;
unicode = 0070;
},
{
glyphname = q;
layers = (
{
layerId = "677F3FD9-5632-41B7-A1B7-A5DADB8D655F";
paths = (
{
closed = 1;
nodes = (
"406 871 LINE",
"256 825 LINE",
"134 724 LINE",
"90 603 LINE",
"80 421 LINE",
"138 268 LINE",
"180 169 LINE",
"299 110 LINE",
"397 56.667 OFFCURVE",
"495.333 65.667 OFFCURVE",
"594 137 CURVE",
"546.667 -86.333 OFFCURVE",
"556 -233.333 OFFCURVE",
"622 -304 CURVE",
"739 -276 LINE",
"760 120 LINE",
"778 295 LINE",
"784 408 LINE",
"786 474 LINE",
"785 559 LINE",
"755 695.667 OFFCURVE",
"730.833 776.5 OFFCURVE",
"712.5 801.5 CURVE SMOOTH",
"694.167 826.5 OFFCURVE",
"652 849.667 OFFCURVE",
"586 871 CURVE",
"506 881 LINE",
"406 871 LINE"
);
},
{
closed = 1;
nodes = (
"549 649.333 OFFCURVE",
"582.333 603.667 OFFCURVE",
"609 549 CURVE",
"621 387 LINE",
"609 349 LINE SMOOTH",
"592.333 295 OFFCURVE",
"565.667 264.333 OFFCURVE",
"529 257 CURVE",
"478.333 195 OFFCURVE",
"428.667 186.667 OFFCURVE",
"380 232 CURVE",
"330 220 OFFCURVE",
"288.333 253.333 OFFCURVE",
"255 332 CURVE",
"254 436 LINE",
"232.667 510.667 OFFCURVE",
"259.667 577.333 OFFCURVE",
"335 636 CURVE",
"383 664.667 OFFCURVE",
"441 681.333 OFFCURVE",
"509 686 CURVE",
"509 686 LINE"
);
}
);
width = 916;
}
);
note = q;
unicode = 0071;
},
{
glyphname = r;
layers = (
{
layerId = "677F3FD9-5632-41B7-A1B7-A5DADB8D655F";
paths = (
{
closed = 1;
nodes = (
"99 1025 LINE",
"85 969 LINE",
"112 830 LINE",
"112 607 LINE",
"99 453 LINE",
"103 397 LINE",
"116 269 LINE",
"162 241 LINE",
"186 251.667 OFFCURVE",
"204.333 244.667 OFFCURVE",
"217 220 CURVE",
"256 198 LINE",
"318 250 LINE",
"331 305 LINE",
"294 425 LINE",
"294 649 LINE",
"321.333 705 OFFCURVE",
"353.667 751.333 OFFCURVE",
"391 788 CURVE",
"445.667 805.333 OFFCURVE",
"501.667 814.667 OFFCURVE",
"559 816 CURVE",
"712 746 LINE",
"781 704 LINE",
"837 788 LINE",
"818.333 841.333 OFFCURVE",
"795 888 OFFCURVE",
"767 928 CURVE",
"614 1011 LINE",
"572 1025 LINE",
"280 955 LINE",
"224 1025 LINE",
"99 1025 LINE"
);
}
);
width = 840;
}
);
note = r;
unicode = 0072;
},
{
glyphname = s;
layers = (
{
layerId = "677F3FD9-5632-41B7-A1B7-A5DADB8D655F";
paths = (
{
closed = 1;
nodes = (
"384 939 LINE",
"258 882 LINE",
"143 801 LINE",
"74 676 LINE",
"81.333 618.667 OFFCURVE",
"93 565 OFFCURVE",
"109 515 CURVE",
"338 366 LINE",
"510 343 LINE",
"554.667 327 OFFCURVE",
"592.667 304 OFFCURVE",
"624 274 CURVE",
"623.333 226.667 OFFCURVE",
"600.667 196.667 OFFCURVE",
"556 184 CURVE",
"442 161 LINE",
"396 172 LINE",
"270 230 LINE",
"166 320 LINE",
"114.667 313.333 OFFCURVE",
"84 286.667 OFFCURVE",
"74 240 CURVE",
"63 161 LINE",
"97 92 LINE",
"145 65.333 OFFCURVE",
"191 46 OFFCURVE",
"235 34 CURVE",
"396 0 LINE",
"544 23 LINE",
"682 69 LINE",
"785 149 LINE",
"806.333 204.333 OFFCURVE",
"821.667 257.667 OFFCURVE",
"831 309 CURVE",
"762 424 LINE",
"732 461.333 OFFCURVE",
"697.667 491.667 OFFCURVE",
"659 515 CURVE",
"327 573 LINE",
"298.333 597.667 OFFCURVE",
"279.333 628.333 OFFCURVE",
"270 665 CURVE",
"315.333 691 OFFCURVE",
"361 709.667 OFFCURVE",
"407 721 CURVE",
"567 699 LINE",
"693 630 LINE",
"774 653 LINE",
"774 744 LINE",
"758.667 795.333 OFFCURVE",
"739.333 841.333 OFFCURVE",
"716 882 CURVE",
"567 928 LINE",
"544 939 LINE",
"384 939 LINE"
);
}
);
width = 899;
}
);
note = s;
unicode = 0073;
},
{
glyphname = t;
layers = (
{
layerId = "677F3FD9-5632-41B7-A1B7-A5DADB8D655F";
paths = (
{
closed = 1;
nodes = (
"526 247 LINE",
"518 328 LINE",
"531 448 LINE",
"520 546 LINE",
"529 644 LINE",
"521 731 LINE",
"533 817 LINE",
"519 893 LINE",
"526 950 LINE",
"664 974 LINE",
"811 978 LINE",
"762 1130 LINE",
"629 1113 LINE",
"516 1116 LINE",
"505 1249 LINE",
"371 1286 LINE",
"372 1212 LINE",
"372 1137 LINE",
"216 1117 LINE",
"123 1136 LINE",
"0 1136 LINE",
"7 1057 LINE",
"29 988 LINE",
"172 984 LINE",
"263 972 LINE",
"354 940 LINE",
"343 719 LINE",
"337 598 LINE",
"319.667 517.333 OFFCURVE",
"320.667 426.333 OFFCURVE",
"340 325 CURVE",
"348 193 LINE",
"436 161 LINE",
"504.667 113.667 OFFCURVE",
"534.667 142.333 OFFCURVE",
"526 247 CURVE"
);
}
);
width = 675;
}
);
note = t;
unicode = 0074;
},
{
glyphname = u;
layers = (
{
layerId = "677F3FD9-5632-41B7-A1B7-A5DADB8D655F";
paths = (
{
closed = 1;
nodes = (
"127 1027 LINE",
"14 985 LINE",
"0 942 LINE",
"28 843 LINE",
"57 801 LINE",
"71 645 LINE",
"57 589 LINE",
"59.667 486.333 OFFCURVE",
"78.333 396.667 OFFCURVE",
"113 320 CURVE",
"171.667 251.333 OFFCURVE",
"233 199.333 OFFCURVE",
"297 164 CURVE",
"354 150 LINE",
"580 178 LINE",
"721 164 LINE",
"848 178 LINE",
"905 249 LINE",
"896.333 313 OFFCURVE",
"882.333 369.667 OFFCURVE",
"863 419 CURVE",
"848 560 LINE",
"863 702 LINE",
"834 970 LINE",
"764 1027 LINE",
"700 1018.333 OFFCURVE",
"643.333 1004.333 OFFCURVE",
"594 985 CURVE",
"596.667 887 OFFCURVE",
"610.667 797.333 OFFCURVE",
"636 716 CURVE",
"622 419 LINE",
"620 395 OFFCURVE",
"615.333 376 OFFCURVE",
"608 362 CURVE",
"396 334 LINE",
"327.333 396 OFFCURVE",
"289.667 466.667 OFFCURVE",
"283 546 CURVE SMOOTH",
"269 702 LINE",
"283 843 LINE",
"258.333 939 OFFCURVE",
"206.333 1000.333 OFFCURVE",
"127 1027 CURVE"
);
}
);
width = 896;
}
);
note = u;
unicode = 0075;
},
{
glyphname = v;
lastChange = "2026-02-16 17:34:20 +0000";
layers = (
{
layerId = "677F3FD9-5632-41B7-A1B7-A5DADB8D655F";
paths = (
{
closed = 1;
nodes = (
"604 105 LINE",
"762 863 LINE",
"611 871 LINE",
"526 880 OFFCURVE",
"484 729 OFFCURVE",
"484 418 CURVE SMOOTH",
"484 107 OFFCURVE",
"423 183 OFFCURVE",
"300 647 CURVE",
"246 903 LINE",
"50 792 LINE",
"149 512 LINE",
"246 249 LINE",
"428 0 LINE"
);
}
);
width = 822;
}
);
note = v;
unicode = 0076;
},
{
glyphname = w;
layers = (
{
layerId = "677F3FD9-5632-41B7-A1B7-A5DADB8D655F";
paths = (
{
closed = 1;
nodes = (
"818 819 LINE",
"567 871 LINE",
"482.333 880.333 OFFCURVE",
"426.667 680.333 OFFCURVE",
"400 271 CURVE",
"177 838 LINE",
"6 792 LINE",
"105 512 LINE",
"202 249 LINE",
"384 0 LINE",
"560 105 LINE",
"633 633 LINE",
"745 123 LINE",
"991 82 LINE",
"1351 804 LINE",
"1126 781 LINE",
"890 313 LINE",
"828.667 477.667 OFFCURVE",
"804.667 646.333 OFFCURVE",
"818 819 CURVE"
);
}
);
width = 1406;
}
);
note = w;
unicode = 0077;
},
{
glyphname = x;
layers = (
{
layerId = "677F3FD9-5632-41B7-A1B7-A5DADB8D655F";
paths = (
{
closed = 1;
nodes = (
"725 811 LINE",
"583 664 LINE",
"457 473 LINE",
"343 886 LINE",
"164 730 LINE",
"215.333 541.333 OFFCURVE",
"280 428 OFFCURVE",
"358 390 CURVE",
"199 249 LINE",
"100 58 LINE",
"269 57 LINE",
"452 274 LINE",
"528 130 LINE",
"634 7 LINE",
"815 0 LINE",
"567 400 LINE",
"929 731 LINE",
"877.667 787.667 OFFCURVE",
"809.667 814.333 OFFCURVE",
"725 811 CURVE"
);
}
);
width = 1004;
}
);
note = x;
unicode = 0078;
},
{
glyphname = y;
layers = (
{
layerId = "677F3FD9-5632-41B7-A1B7-A5DADB8D655F";
paths = (
{
closed = 1;
nodes = (
"717 841 LINE",
"569 557 LINE",
"486.333 342.333 OFFCURVE",
"430 319 OFFCURVE",
"400 487 CURVE",
"352 645 OFFCURVE",
"273 763.333 OFFCURVE",
"163 842 CURVE",
"103 813.333 OFFCURVE",
"72.667 757.333 OFFCURVE",
"72 674 CURVE",
"203 482 LINE",
"259 327 LINE",
"325 279.667 OFFCURVE",
"325.667 185 OFFCURVE",
"261 43 CURVE",
"144 -48 LINE",
"49 -162 LINE",
"0 -257 LINE",
"14 -386.333 OFFCURVE",
"58.333 -422.667 OFFCURVE",
"133 -366 CURVE",
"189 -298 LINE",
"390 -45 LINE",
"567 201 LINE",
"733 500 LINE",
"894 693 LINE",
"866 791 LINE",
"717 841 LINE"
);
}
);
width = 966;
}
);
note = y;
unicode = 0079;
},
{
glyphname = z;
layers = (
{
layerId = "677F3FD9-5632-41B7-A1B7-A5DADB8D655F";
paths = (
{
closed = 1;
nodes = (
"744 152 LINE",
"744 141 LINE",
"318 141 LINE",
"680 491 LINE",
"847 708 LINE",
"845 849 LINE",
"490 883 LINE",
"117 873 LINE",
"91 736 LINE",
"652 711 LINE",
"168 264 LINE",
"67 117 LINE",
"78 35 LINE",
"137 11 LINE",
"755 0 LINE",
"790 141 LINE",
"744 152 LINE"
);
}
);
width = 956;
}
);
note = z;
unicode = 007A;
},
{
glyphname = zero;
layers = (
{
layerId = "677F3FD9-5632-41B7-A1B7-A5DADB8D655F";
paths = (
{
closed = 1;
nodes = (
"474.333 -32 OFFCURVE",
"578.333 10.5 OFFCURVE",
"663 95.5 CURVE SMOOTH",
"747.667 180.5 OFFCURVE",
"810.333 278 OFFCURVE",
"851 388 CURVE",
"851 556 OFFCURVE",
"844.5 731.667 OFFCURVE",
"831.5 915 CURVE SMOOTH",
"818.5 1098.333 OFFCURVE",
"741 1239.333 OFFCURVE",
"599 1338 CURVE",
"532.333 1352 OFFCURVE",
"465.667 1360.667 OFFCURVE",
"399 1364 CURVE SMOOTH",
"332.333 1367.333 OFFCURVE",
"270.667 1348 OFFCURVE",
"214 1306 CURVE",
"88 1223.333 OFFCURVE",
"19.333 1098.833 OFFCURVE",
"8 932.5 CURVE SMOOTH",
"-3.333 766.167 OFFCURVE",
"-9 612.667 OFFCURVE",
"-9 472 CURVE",
"18.333 361.333 OFFCURVE",
"60.333 256.5 OFFCURVE",
"117 157.5 CURVE SMOOTH",
"173.667 58.5 OFFCURVE",
"251.667 -4.667 OFFCURVE",
"351 -32 CURVE",
"351 -32 LINE"
);
},
{
closed = 1;
nodes = (
"251.667 222 OFFCURVE",
"193 293.167 OFFCURVE",
"175 405.5 CURVE SMOOTH",
"157 517.833 OFFCURVE",
"141.667 624.333 OFFCURVE",
"129 725 CURVE",
"141.667 795 OFFCURVE",
"159.667 872.667 OFFCURVE",
"183 958 CURVE SMOOTH",
"206.333 1043.333 OFFCURVE",
"254.333 1114 OFFCURVE",
"327 1170 CURVE",
"380.333 1170 OFFCURVE",
"438.333 1170.5 OFFCURVE",
"501 1171.5 CURVE SMOOTH",
"563.667 1172.5 OFFCURVE",
"616.333 1144 OFFCURVE",
"659 1086 CURVE",
"715.667 858 OFFCURVE",
"715.667 616 OFFCURVE",
"659 360 CURVE",
"645 318 OFFCURVE",
"608 276.333 OFFCURVE",
"548 235 CURVE SMOOTH",
"488 193.667 OFFCURVE",
"422.333 179.333 OFFCURVE",
"351 192 CURVE",
"351 192 LINE"
);
}
);
width = 875;
}
);
note = zero;
unicode = 0030;
},
{
glyphname = one;
layers = (
{
layerId = "677F3FD9-5632-41B7-A1B7-A5DADB8D655F";
paths = (
{
closed = 1;
nodes = (
"66 -30 LINE",
"96 -30 LINE",
"210 -17.333 OFFCURVE",
"325.833 -18.5 OFFCURVE",
"443.5 -33.5 CURVE SMOOTH",
"561.167 -48.5 OFFCURVE",
"671 -18 OFFCURVE",
"773 58 CURVE",
"760.333 115.333 OFFCURVE",
"730.5 150 OFFCURVE",
"683.5 162 CURVE SMOOTH",
"636.5 174 OFFCURVE",
"598.333 187.667 OFFCURVE",
"569 203 CURVE",
"479 381.667 OFFCURVE",
"445.5 564.167 OFFCURVE",
"468.5 750.5 CURVE SMOOTH",
"491.5 936.833 OFFCURVE",
"496.667 1110.667 OFFCURVE",
"484 1272 CURVE",
"484 1302 OFFCURVE",
"467.167 1329.5 OFFCURVE",
"433.5 1354.5 CURVE SMOOTH",
"399.833 1379.5 OFFCURVE",
"375.667 1392 OFFCURVE",
"361 1392 CURVE",
"301 1374.667 OFFCURVE",
"247.5 1355.333 OFFCURVE",
"200.5 1334 CURVE SMOOTH",
"153.5 1312.667 OFFCURVE",
"108.667 1302 OFFCURVE",
"66 1302 CURVE",
"36 1183 LINE",
"151 1157 LINE",
"196.333 1125 OFFCURVE",
"228.667 1099.5 OFFCURVE",
"248 1080.5 CURVE SMOOTH",
"267.333 1061.5 OFFCURVE",
"284.667 1035.667 OFFCURVE",
"300 1003 CURVE",
"292 929 OFFCURVE",
"293.833 850.833 OFFCURVE",
"305.5 768.5 CURVE SMOOTH",
"317.167 686.167 OFFCURVE",
"324 606.167 OFFCURVE",
"326 528.5 CURVE SMOOTH",
"328 450.833 OFFCURVE",
"318 378.833 OFFCURVE",
"296 312.5 CURVE SMOOTH",
"274 246.167 OFFCURVE",
"225.667 191.333 OFFCURVE",
"151 148 CURVE",
"108.333 148 OFFCURVE",
"68 136.167 OFFCURVE",
"30 112.5 CURVE SMOOTH",
"-8 88.833 OFFCURVE",
"-27 70.667 OFFCURVE",
"-27 58 CURVE",
"66 -30 LINE"
);
}
);
width = 798;
}
);
note = one;
unicode = 0031;
},
{
glyphname = two;
layers = (
{
layerId = "677F3FD9-5632-41B7-A1B7-A5DADB8D655F";
paths = (
{
closed = 1;
nodes = (
"124 -18 LINE",
"154 -18 LINE",
"272 -6 OFFCURVE",
"393.333 1 OFFCURVE",
"518 3 CURVE SMOOTH",
"642.667 5 OFFCURVE",
"755.667 6 OFFCURVE",
"857 6 CURVE",
"887 128 LINE",
"813 170 OFFCURVE",
"741 174.333 OFFCURVE",
"671 141 CURVE SMOOTH",
"601 107.667 OFFCURVE",
"535.333 113.333 OFFCURVE",
"474 158 CURVE",
"419 272 LINE",
"463 374.667 OFFCURVE",
"526.833 451.167 OFFCURVE",
"610.5 501.5 CURVE SMOOTH",
"694.167 551.833 OFFCURVE",
"758.333 621.333 OFFCURVE",
"803 710 CURVE",
"859.667 771.333 OFFCURVE",
"902.5 864.667 OFFCURVE",
"931.5 990 CURVE SMOOTH",
"960.5 1115.333 OFFCURVE",
"945.667 1200.333 OFFCURVE",
"887 1245 CURVE",
"813 1331 OFFCURVE",
"712.833 1383.167 OFFCURVE",
"586.5 1401.5 CURVE SMOOTH",
"460.167 1419.833 OFFCURVE",
"346.667 1415.333 OFFCURVE",
"246 1388 CURVE",
"216 1358.667 OFFCURVE",
"177 1313.167 OFFCURVE",
"129 1251.5 CURVE SMOOTH",
"81 1189.833 OFFCURVE",
"79.333 1137 OFFCURVE",
"124 1093 CURVE",
"187 1093 LINE",
"216.333 1137 OFFCURVE",
"255.333 1169.167 OFFCURVE",
"304 1189.5 CURVE SMOOTH",
"352.667 1209.833 OFFCURVE",
"391 1228.333 OFFCURVE",
"419 1245 CURVE SMOOTH",
"493 1286.333 OFFCURVE",
"563 1280.333 OFFCURVE",
"629 1227 CURVE SMOOTH",
"695 1173.667 OFFCURVE",
"741.667 1138.667 OFFCURVE",
"769 1122 CURVE",
"777 982.667 OFFCURVE",
"746 870.333 OFFCURVE",
"676 785 CURVE SMOOTH",
"606 699.667 OFFCURVE",
"524.5 623.333 OFFCURVE",
"431.5 556 CURVE SMOOTH",
"338.5 488.667 OFFCURVE",
"247.5 421 OFFCURVE",
"158.5 353 CURVE SMOOTH",
"69.5 285 OFFCURVE",
"10.667 199 OFFCURVE",
"-18 95 CURVE",
"-4 50.333 OFFCURVE",
"20 23.333 OFFCURVE",
"54 14 CURVE SMOOTH",
"88 4.667 OFFCURVE",
"111.333 -6 OFFCURVE",
"124 -18 CURVE"
);
}
);
width = 978;
}
);
note = two;
unicode = 0032;
},
{
glyphname = three;
layers = (
{
layerId = "677F3FD9-5632-41B7-A1B7-A5DADB8D655F";
paths = (
{
closed = 1;
nodes = (
"130 -14 LINE",
"154 -14 LINE",
"240.667 -3.333 OFFCURVE",
"320.667 -3.667 OFFCURVE",
"394 -15 CURVE SMOOTH",
"467.333 -26.333 OFFCURVE",
"539.333 -18.667 OFFCURVE",
"610 8 CURVE",
"707.333 50.667 OFFCURVE",
"781.667 101.5 OFFCURVE",
"833 160.5 CURVE SMOOTH",
"884.333 219.5 OFFCURVE",
"903 291.333 OFFCURVE",
"889 376 CURVE",
"810.333 568 OFFCURVE",
"787.833 710.333 OFFCURVE",
"821.5 803 CURVE SMOOTH",
"855.167 895.667 OFFCURVE",
"857.333 1015.667 OFFCURVE",
"828 1163 CURVE",
"759.333 1290.333 OFFCURVE",
"654 1352.667 OFFCURVE",
"512 1350 CURVE SMOOTH",
"370 1347.333 OFFCURVE",
"242.667 1330.667 OFFCURVE",
"130 1300 CURVE",
"130 1273.333 OFFCURVE",
"122.833 1247.833 OFFCURVE",
"108.5 1223.5 CURVE SMOOTH",
"94.167 1199.167 OFFCURVE",
"101.333 1179 OFFCURVE",
"130 1163 CURVE",
"200 1163 OFFCURVE",
"259.667 1177.167 OFFCURVE",
"309 1205.5 CURVE SMOOTH",
"358.333 1233.833 OFFCURVE",
"417.667 1235.667 OFFCURVE",
"487 1211 CURVE",
"557.667 1180.333 OFFCURVE",
"605.167 1150 OFFCURVE",
"629.5 1120 CURVE SMOOTH",
"653.833 1090 OFFCURVE",
"681.667 1029.333 OFFCURVE",
"713 938 CURVE",
"671.667 914 OFFCURVE",
"654 897.333 OFFCURVE",
"660 888 CURVE SMOOTH",
"666 878.667 OFFCURVE",
"650 850.333 OFFCURVE",
"612 803 CURVE",
"550.667 793 OFFCURVE",
"500.333 786.833 OFFCURVE",
"461 784.5 CURVE SMOOTH",
"421.667 782.167 OFFCURVE",
"396 787.333 OFFCURVE",
"384 800 CURVE",
"356 716 OFFCURVE",
"356 658.333 OFFCURVE",
"384 627 CURVE",
"466.667 613 OFFCURVE",
"533.5 586 OFFCURVE",
"584.5 546 CURVE SMOOTH",
"635.5 506 OFFCURVE",
"690 439.333 OFFCURVE",
"748 346 CURVE",
"692.667 265.333 OFFCURVE",
"633.5 211 OFFCURVE",
"570.5 183 CURVE SMOOTH",
"507.5 155 OFFCURVE",
"443.833 135 OFFCURVE",
"379.5 123 CURVE SMOOTH",
"315.167 111 OFFCURVE",
"248 110.333 OFFCURVE",
"178 121 CURVE SMOOTH",
"108 131.667 OFFCURVE",
"45 133.333 OFFCURVE",
"-11 126 CURVE",
"19 83.333 OFFCURVE",
"42.833 52 OFFCURVE",
"60.5 32 CURVE SMOOTH",
"78.167 12 OFFCURVE",
"101.333 -3.333 OFFCURVE",
"130 -14 CURVE"
);
}
);
width = 935;
}
);
note = three;
unicode = 0033;
},
{
glyphname = four;
layers = (
{
layerId = "677F3FD9-5632-41B7-A1B7-A5DADB8D655F";
paths = (
{
closed = 1;
nodes = (
"700.667 -15.333 OFFCURVE",
"765.333 -12.167 OFFCURVE",
"828 -20.5 CURVE SMOOTH",
"890.667 -28.833 OFFCURVE",
"937.667 1.333 OFFCURVE",
"969 70 CURVE",
"969 120 OFFCURVE",
"969 168.5 OFFCURVE",
"969 215.5 CURVE SMOOTH",
"969 262.5 OFFCURVE",
"969 301.667 OFFCURVE",
"969 333 CURVE",
"887.667 551 OFFCURVE",
"852.833 755.167 OFFCURVE",
"864.5 945.5 CURVE SMOOTH",
"876.167 1135.833 OFFCURVE",
"857 1330.667 OFFCURVE",
"807 1530 CURVE",
"681 1539.333 OFFCURVE",
"576 1504.833 OFFCURVE",
"492 1426.5 CURVE SMOOTH",
"408 1348.167 OFFCURVE",
"335.667 1252.667 OFFCURVE",
"275 1140 CURVE SMOOTH",
"214.333 1027.333 OFFCURVE",
"161.333 911 OFFCURVE",
"116 791 CURVE SMOOTH",
"70.667 671 OFFCURVE",
"23.667 574 OFFCURVE",
"-25 500 CURVE",
"-1.667 442.667 OFFCURVE",
"29.167 403 OFFCURVE",
"67.5 381 CURVE SMOOTH",
"105.833 359 OFFCURVE",
"146.667 343.833 OFFCURVE",
"190 335.5 CURVE SMOOTH",
"233.333 327.167 OFFCURVE",
"276.5 320.333 OFFCURVE",
"319.5 315 CURVE SMOOTH",
"362.5 309.667 OFFCURVE",
"400.333 295 OFFCURVE",
"433 271 CURVE",
"469 220.333 OFFCURVE",
"481 171.167 OFFCURVE",
"469 123.5 CURVE SMOOTH",
"457 75.833 OFFCURVE",
"469 34.333 OFFCURVE",
"505 -1 CURVE",
"634 -30 LINE",
"634 -30 LINE"
);
},
{
closed = 1;
nodes = (
"308.333 535 OFFCURVE",
"290.667 602.5 OFFCURVE",
"338 701.5 CURVE SMOOTH",
"385.333 800.5 OFFCURVE",
"427.667 890 OFFCURVE",
"465 970 CURVE",
"623 970 LINE",
"660.333 932 OFFCURVE",
"671 883.5 OFFCURVE",
"655 824.5 CURVE SMOOTH",
"639 765.5 OFFCURVE",
"639.667 706.333 OFFCURVE",
"657 647 CURVE",
"391 499 LINE",
"391 499 LINE"
);
}
);
width = 1017;
}
);
note = four;
unicode = 0034;
},
{
glyphname = five;
layers = (
{
layerId = "677F3FD9-5632-41B7-A1B7-A5DADB8D655F";
paths = (
{
closed = 1;
nodes = (
"376.333 -35 OFFCURVE",
"459 -31.167 OFFCURVE",
"535 -23.5 CURVE SMOOTH",
"611 -15.833 OFFCURVE",
"686.333 10.333 OFFCURVE",
"761 55 CURVE",
"835.667 124.333 OFFCURVE",
"883.5 209.667 OFFCURVE",
"904.5 311 CURVE SMOOTH",
"925.5 412.333 OFFCURVE",
"936 498 OFFCURVE",
"936 568 CURVE",
"913.333 674.667 OFFCURVE",
"873.5 749.333 OFFCURVE",
"816.5 792 CURVE SMOOTH",
"759.5 834.667 OFFCURVE",
"695.833 864.833 OFFCURVE",
"625.5 882.5 CURVE SMOOTH",
"555.167 900.167 OFFCURVE",
"483.667 916 OFFCURVE",
"411 930 CURVE SMOOTH",
"338.333 944 OFFCURVE",
"275.333 975.667 OFFCURVE",
"222 1025 CURVE",
"254 1068.333 OFFCURVE",
"279.5 1109.333 OFFCURVE",
"298.5 1148 CURVE SMOOTH",
"317.5 1186.667 OFFCURVE",
"342 1214.333 OFFCURVE",
"372 1231 CURVE",
"446.667 1231 OFFCURVE",
"519.667 1233 OFFCURVE",
"591 1237 CURVE SMOOTH",
"662.333 1241 OFFCURVE",
"728.667 1256.667 OFFCURVE",
"790 1284 CURVE",
"701 1370 LINE",
"596.333 1354 OFFCURVE",
"493.833 1352.167 OFFCURVE",
"393.5 1364.5 CURVE SMOOTH",
"293.167 1376.833 OFFCURVE",
"199 1368 OFFCURVE",
"111 1338 CURVE",
"79 1240.667 OFFCURVE",
"55 1129.833 OFFCURVE",
"39 1005.5 CURVE SMOOTH",
"23 881.167 OFFCURVE",
"75.667 782 OFFCURVE",
"197 708 CURVE",
"269 708 OFFCURVE",
"341.167 712.167 OFFCURVE",
"413.5 720.5 CURVE SMOOTH",
"485.833 728.833 OFFCURVE",
"551.667 724.667 OFFCURVE",
"611 708 CURVE",
"655.667 679.333 OFFCURVE",
"688 655.667 OFFCURVE",
"708 637 CURVE SMOOTH",
"728 618.333 OFFCURVE",
"745.667 595.333 OFFCURVE",
"761 568 CURVE",
"761 525.333 OFFCURVE",
"768.333 483.667 OFFCURVE",
"783 443 CURVE SMOOTH",
"797.667 402.333 OFFCURVE",
"790.333 367.333 OFFCURVE",
"761 338 CURVE",
"731 244.667 OFFCURVE",
"682.167 187.167 OFFCURVE",
"614.5 165.5 CURVE SMOOTH",
"546.833 143.833 OFFCURVE",
"474 134.833 OFFCURVE",
"396 138.5 CURVE SMOOTH",
"318 142.167 OFFCURVE",
"241.667 147.167 OFFCURVE",
"167 153.5 CURVE SMOOTH",
"92.333 159.833 OFFCURVE",
"32.667 144.667 OFFCURVE",
"-12 108 CURVE",
"17.333 52 OFFCURVE",
"63.167 18.333 OFFCURVE",
"125.5 7 CURVE SMOOTH",
"187.833 -4.333 OFFCURVE",
"241.667 -18.333 OFFCURVE",
"287 -35 CURVE",
"287 -35 LINE"
);
}
);
width = 963;
}
);
note = five;
unicode = 0035;
},
{
glyphname = six;
layers = (
{
layerId = "677F3FD9-5632-41B7-A1B7-A5DADB8D655F";
paths = (
{
closed = 1;
nodes = (
"306 -25 LINE",
"338 -25 LINE",
"434 -11 OFFCURVE",
"540 -4 OFFCURVE",
"656 -4 CURVE SMOOTH",
"772 -4 OFFCURVE",
"846.333 53 OFFCURVE",
"879 167 CURVE",
"961 228.333 OFFCURVE",
"991.5 308 OFFCURVE",
"970.5 406 CURVE SMOOTH",
"949.5 504 OFFCURVE",
"931 592 OFFCURVE",
"915 670 CURVE",
"848.333 800 OFFCURVE",
"754.167 872 OFFCURVE",
"632.5 886 CURVE SMOOTH",
"510.833 900 OFFCURVE",
"402 915 OFFCURVE",
"306 931 CURVE",
"279 1059 LINE",
"301.667 1131 OFFCURVE",
"341 1187.167 OFFCURVE",
"397 1227.5 CURVE SMOOTH",
"453 1267.833 OFFCURVE",
"512.667 1300.833 OFFCURVE",
"576 1326.5 CURVE SMOOTH",
"639.333 1352.167 OFFCURVE",
"699.5 1374.5 OFFCURVE",
"756.5 1393.5 CURVE SMOOTH",
"813.5 1412.5 OFFCURVE",
"854.333 1437 OFFCURVE",
"879 1467 CURVE",
"817 1533 OFFCURVE",
"738 1549.5 OFFCURVE",
"642 1516.5 CURVE SMOOTH",
"546 1483.5 OFFCURVE",
"466 1467 OFFCURVE",
"402 1467 CURVE",
"322 1389 OFFCURVE",
"242.5 1313 OFFCURVE",
"163.5 1239 CURVE SMOOTH",
"84.5 1165 OFFCURVE",
"36 1073 OFFCURVE",
"18 963 CURVE SMOOTH",
"-11.333 787 OFFCURVE",
"-10.167 598.333 OFFCURVE",
"21.5 397 CURVE SMOOTH",
"53.167 195.667 OFFCURVE",
"148 55 OFFCURVE",
"306 -25 CURVE"
);
},
{
closed = 1;
nodes = (
"386 167 OFFCURVE",
"342 192.833 OFFCURVE",
"302 244.5 CURVE SMOOTH",
"262 296.167 OFFCURVE",
"242 354 OFFCURVE",
"242 418 CURVE",
"260 466 OFFCURVE",
"282 516.5 OFFCURVE",
"308 569.5 CURVE SMOOTH",
"334 622.5 OFFCURVE",
"388.333 656 OFFCURVE",
"471 670 CURVE",
"500.333 670 OFFCURVE",
"546.333 665 OFFCURVE",
"609 655 CURVE SMOOTH",
"671.667 645 OFFCURVE",
"720.333 610.333 OFFCURVE",
"755 551 CURVE",
"768.333 533 OFFCURVE",
"772.667 508.167 OFFCURVE",
"768 476.5 CURVE SMOOTH",
"763.333 444.833 OFFCURVE",
"768 404 OFFCURVE",
"782 354 CURVE",
"768 290 OFFCURVE",
"726 242.833 OFFCURVE",
"656 212.5 CURVE SMOOTH",
"586 182.167 OFFCURVE",
"512 167 OFFCURVE",
"434 167 CURVE SMOOTH",
"434 167 LINE SMOOTH"
);
}
);
width = 1052;
}
);
note = six;
unicode = 0036;
},
{
glyphname = seven;
layers = (
{
layerId = "677F3FD9-5632-41B7-A1B7-A5DADB8D655F";
paths = (
{
closed = 1;
nodes = (
"374 -35 LINE",
"490 -10 LINE",
"546 194.667 OFFCURVE",
"618.167 401.5 OFFCURVE",
"706.5 610.5 CURVE SMOOTH",
"794.833 819.5 OFFCURVE",
"839 1017.667 OFFCURVE",
"839 1205 CURVE",
"693.667 1247.667 OFFCURVE",
"541.667 1269 OFFCURVE",
"383 1269 CURVE SMOOTH",
"224.333 1269 OFFCURVE",
"87.333 1247.667 OFFCURVE",
"-28 1205 CURVE",
"-15.333 1163 OFFCURVE",
"-11 1127 OFFCURVE",
"-15 1097 CURVE SMOOTH",
"-19 1067 OFFCURVE",
"-15.333 1046 OFFCURVE",
"-4 1034 CURVE",
"70.667 1034 OFFCURVE",
"142.5 1048.5 OFFCURVE",
"211.5 1077.5 CURVE SMOOTH",
"280.5 1106.5 OFFCURVE",
"344.333 1121 OFFCURVE",
"403 1121 CURVE SMOOTH",
"461 1121 OFFCURVE",
"514.167 1102.833 OFFCURVE",
"562.5 1066.5 CURVE SMOOTH",
"610.833 1030.167 OFFCURVE",
"635 990.333 OFFCURVE",
"635 947 CURVE",
"591.667 771 OFFCURVE",
"541 602.5 OFFCURVE",
"483 441.5 CURVE SMOOTH",
"425 280.5 OFFCURVE",
"388.667 121.667 OFFCURVE",
"374 -35 CURVE"
);
}
);
width = 889;
}
);
note = seven;
unicode = 0037;
},
{
glyphname = eight;
layers = (
{
layerId = "677F3FD9-5632-41B7-A1B7-A5DADB8D655F";
paths = (
{
closed = 1;
nodes = (
"299 -28 LINE",
"324 -28 LINE SMOOTH",
"408.667 -28 OFFCURVE",
"488.833 -24.333 OFFCURVE",
"564.5 -17 CURVE SMOOTH",
"640.167 -9.667 OFFCURVE",
"713.333 15.333 OFFCURVE",
"784 58 CURVE",
"841.333 136.667 OFFCURVE",
"874.333 221.667 OFFCURVE",
"883 313 CURVE SMOOTH",
"891.667 404.333 OFFCURVE",
"879 492.167 OFFCURVE",
"845 576.5 CURVE SMOOTH",
"811 660.833 OFFCURVE",
"804.333 756.333 OFFCURVE",
"825 863 CURVE SMOOTH",
"845.667 969.667 OFFCURVE",
"870.667 1066 OFFCURVE",
"900 1152 CURVE",
"827.333 1252.667 OFFCURVE",
"717.5 1324.5 OFFCURVE",
"570.5 1367.5 CURVE SMOOTH",
"423.5 1410.5 OFFCURVE",
"293.333 1395 OFFCURVE",
"180 1321 CURVE",
"100.667 1256.333 OFFCURVE",
"53.5 1180.833 OFFCURVE",
"38.5 1094.5 CURVE SMOOTH",
"23.5 1008.167 OFFCURVE",
"42.5 910.5 OFFCURVE",
"95.5 801.5 CURVE SMOOTH",
"148.5 692.5 OFFCURVE",
"152.833 599 OFFCURVE",
"108.5 521 CURVE SMOOTH",
"64.167 443 OFFCURVE",
"20.333 364.667 OFFCURVE",
"-23 286 CURVE",
"20.333 201.333 OFFCURVE",
"66.167 135 OFFCURVE",
"114.5 87 CURVE SMOOTH",
"162.833 39 OFFCURVE",
"224.333 0.667 OFFCURVE",
"299 -28 CURVE"
);
},
{
closed = 1;
nodes = (
"325.667 156.667 OFFCURVE",
"300.167 164.167 OFFCURVE",
"260.5 202.5 CURVE SMOOTH",
"220.833 240.833 OFFCURVE",
"194 288 OFFCURVE",
"180 344 CURVE",
"194 386.667 OFFCURVE",
"211.833 424.333 OFFCURVE",
"233.5 457 CURVE SMOOTH",
"255.167 489.667 OFFCURVE",
"299 504.333 OFFCURVE",
"365 501 CURVE",
"400.333 545.667 OFFCURVE",
"453 559.5 OFFCURVE",
"523 542.5 CURVE SMOOTH",
"593 525.5 OFFCURVE",
"641.333 488.333 OFFCURVE",
"668 431 CURVE",
"698.667 387 OFFCURVE",
"702.833 335.167 OFFCURVE",
"680.5 275.5 CURVE SMOOTH",
"658.167 215.833 OFFCURVE",
"624.333 191.667 OFFCURVE",
"579 203 CURVE",
"568.333 164.333 OFFCURVE",
"547.833 145 OFFCURVE",
"517.5 145 CURVE SMOOTH",
"487.167 145 OFFCURVE",
"450.333 145 OFFCURVE",
"407 145 CURVE",
"337 180 LINE",
"337 180 LINE"
);
},
{
closed = 1;
nodes = (
"365.667 822.667 OFFCURVE",
"329.833 840.5 OFFCURVE",
"299.5 861.5 CURVE SMOOTH",
"269.167 882.5 OFFCURVE",
"239 921.333 OFFCURVE",
"209 978 CURVE",
"209 1040 LINE",
"223 1095.333 OFFCURVE",
"260.167 1134 OFFCURVE",
"320.5 1156 CURVE SMOOTH",
"380.833 1178 OFFCURVE",
"442.667 1189.333 OFFCURVE",
"506 1190 CURVE",
"554.667 1158.667 OFFCURVE",
"583.5 1129.167 OFFCURVE",
"592.5 1101.5 CURVE SMOOTH",
"601.5 1073.833 OFFCURVE",
"638 1053.333 OFFCURVE",
"702 1040 CURVE",
"702 965.333 OFFCURVE",
"671.333 904.833 OFFCURVE",
"610 858.5 CURVE SMOOTH",
"548.667 812.167 OFFCURVE",
"481 795.333 OFFCURVE",
"407 808 CURVE",
"407 808 LINE"
);
}
);
width = 920;
}
);
note = eight;
unicode = 0038;
},
{
glyphname = nine;
layers = (
{
layerId = "677F3FD9-5632-41B7-A1B7-A5DADB8D655F";
paths = (
{
closed = 1;
nodes = (
"196 -24 LINE",
"233 -24 LINE",
"419.667 6.667 OFFCURVE",
"582.5 77.333 OFFCURVE",
"721.5 188 CURVE SMOOTH",
"860.5 298.667 OFFCURVE",
"937 449 OFFCURVE",
"951 639 CURVE",
"951 781 OFFCURVE",
"935.833 938 OFFCURVE",
"905.5 1110 CURVE SMOOTH",
"875.167 1282 OFFCURVE",
"797 1406.667 OFFCURVE",
"671 1484 CURVE",
"562.333 1531.333 OFFCURVE",
"456.667 1549.167 OFFCURVE",
"354 1537.5 CURVE SMOOTH",
"251.333 1525.833 OFFCURVE",
"167.333 1488.333 OFFCURVE",
"102 1425 CURVE",
"41.333 1329.667 OFFCURVE",
"5.167 1224.667 OFFCURVE",
"-6.5 1110 CURVE SMOOTH",
"-18.167 995.333 OFFCURVE",
"-1.667 889.667 OFFCURVE",
"43 793 CURVE",
"90.333 668.333 OFFCURVE",
"167.167 594.333 OFFCURVE",
"273.5 571 CURVE SMOOTH",
"379.833 547.667 OFFCURVE",
"480.667 528.333 OFFCURVE",
"576 513 CURVE",
"607 386 LINE",
"577 340.667 OFFCURVE",
"551.333 307 OFFCURVE",
"530 285 CURVE SMOOTH",
"508.667 263 OFFCURVE",
"483.333 244 OFFCURVE",
"454 228 CURVE",
"374.667 198 OFFCURVE",
"302 182 OFFCURVE",
"236 180 CURVE SMOOTH",
"170 178 OFFCURVE",
"105.667 153.333 OFFCURVE",
"43 106 CURVE",
"56.333 58 OFFCURVE",
"81.667 28.667 OFFCURVE",
"119 18 CURVE SMOOTH",
"156.333 7.333 OFFCURVE",
"182 -6.667 OFFCURVE",
"196 -24 CURVE"
);
},
{
closed = 1;
nodes = (
"309.333 779.333 OFFCURVE",
"258.5 830.667 OFFCURVE",
"233.5 920 CURVE SMOOTH",
"208.5 1009.333 OFFCURVE",
"196 1094.667 OFFCURVE",
"196 1176 CURVE",
"296 1298 LINE",
"327.333 1332 OFFCURVE",
"365.333 1341.833 OFFCURVE",
"410 1327.5 CURVE SMOOTH",
"454.667 1313.167 OFFCURVE",
"500.667 1314 OFFCURVE",
"548 1330 CURVE",
"671 1235 LINE",
"705 1158.333 OFFCURVE",
"706.833 1072.833 OFFCURVE",
"676.5 978.5 CURVE SMOOTH",
"646.167 884.167 OFFCURVE",
"591.667 813.333 OFFCURVE",
"513 766 CURVE",
"386 766 LINE",
"386 766 LINE"
);
}
);
width = 998;
}
);
note = nine;
unicode = 0039;
},
{
glyphname = period;
layers = (
{
layerId = "677F3FD9-5632-41B7-A1B7-A5DADB8D655F";
paths = (
{
closed = 1;
nodes = (
"169 248 LINE",
"123 190 LINE",
"69.667 91.333 OFFCURVE",
"107 28 OFFCURVE",
"235 0 CURVE",
"351 63 LINE",
"358 177 LINE",
"311.333 235.667 OFFCURVE",
"248.333 259.333 OFFCURVE",
"169 248 CURVE"
);
}
);
width = 505;
}
);
note = period;
unicode = 002E;
},
{
glyphname = comma;
layers = (
{
layerId = "677F3FD9-5632-41B7-A1B7-A5DADB8D655F";
paths = (
{
closed = 1;
nodes = (
"135 233.667 OFFCURVE",
"103.5 205 OFFCURVE",
"92.5 141 CURVE SMOOTH",
"81.5 77 OFFCURVE",
"96.5 37.167 OFFCURVE",
"137.5 21.5 CURVE SMOOTH",
"178.5 5.833 OFFCURVE",
"207.5 -14.167 OFFCURVE",
"224.5 -38.5 CURVE SMOOTH",
"241.5 -62.833 OFFCURVE",
"243.667 -98.667 OFFCURVE",
"231 -146 CURVE",
"189 -198 OFFCURVE",
"193.667 -229.667 OFFCURVE",
"245 -241 CURVE",
"314 -213 LINE",
"347 63 LINE",
"353 164 LINE",
"312.333 215.333 OFFCURVE",
"257 236.333 OFFCURVE",
"187 227 CURVE",
"187 227 LINE"
);
}
);
width = 428;
}
);
note = comma;
unicode = 002C;
},
{
glyphname = colon;
layers = (
{
layerId = "677F3FD9-5632-41B7-A1B7-A5DADB8D655F";
paths = (
{
closed = 1;
nodes = (
"199 273 LINE",
"148 210 LINE",
"88.667 100.667 OFFCURVE",
"129.667 30.667 OFFCURVE",
"271 0 CURVE",
"399 69 LINE",
"407 195 LINE",
"355.667 259 OFFCURVE",
"286.333 285 OFFCURVE",
"199 273 CURVE"
);
},
{
closed = 1;
nodes = (
"187 755 LINE",
"137 693 LINE",
"81 588.333 OFFCURVE",
"120.667 521 OFFCURVE",
"256 491 CURVE",
"380 558 LINE",
"387 679 LINE",
"337.667 741.667 OFFCURVE",
"271 767 OFFCURVE",
"187 755 CURVE"
);
}
);
width = 551;
}
);
note = colon;
unicode = 003A;
},
{
glyphname = semicolon;
layers = (
{
layerId = "677F3FD9-5632-41B7-A1B7-A5DADB8D655F";
paths = (
{
closed = 1;
nodes = (
"170 728 LINE",
"124 670 LINE",
"70.667 571.333 OFFCURVE",
"108 508 OFFCURVE",
"236 480 CURVE",
"352 543 LINE",
"359 657 LINE",
"312.333 715.667 OFFCURVE",
"249.333 739.333 OFFCURVE",
"170 728 CURVE"
);
},
{
closed = 1;
nodes = (
"141 222.333 OFFCURVE",
"109.5 193.833 OFFCURVE",
"98.5 129.5 CURVE SMOOTH",
"87.5 65.167 OFFCURVE",
"102.667 25.167 OFFCURVE",
"144 9.5 CURVE SMOOTH",
"185.333 -6.167 OFFCURVE",
"214.333 -26.167 OFFCURVE",
"231 -50.5 CURVE SMOOTH",
"247.667 -74.833 OFFCURVE",
"249.667 -110.333 OFFCURVE",
"237 -157 CURVE",
"195 -209 OFFCURVE",
"200 -240.667 OFFCURVE",
"252 -252 CURVE",
"321 -225 LINE",
"353 51 LINE",
"359 152 LINE",
"318.333 203.333 OFFCURVE",
"263 224.333 OFFCURVE",
"193 215 CURVE",
"193 215 LINE"
);
}
);
width = 469;
}
);
note = semicolon;
unicode = 003B;
},
{
glyphname = exclam;
layers = (
{
layerId = "677F3FD9-5632-41B7-A1B7-A5DADB8D655F";
paths = (
{
closed = 1;
nodes = (
"184 608 LINE",
"232 520 LINE",
"269.333 509.333 OFFCURVE",
"306.667 512 OFFCURVE",
"344 528 CURVE",
"384 576 LINE",
"424 648 LINE",
"440 824 LINE SMOOTH",
"456 962.667 OFFCURVE",
"461.333 1104 OFFCURVE",
"456 1248 CURVE",
"464 1408 LINE",
"472 1472 LINE",
"408 1530.667 OFFCURVE",
"344 1536 OFFCURVE",
"280 1488 CURVE",
"224 1400 LINE",
"213.333 1320 OFFCURVE",
"210.667 1226.667 OFFCURVE",
"216 1120 CURVE",
"192 952 LINE",
"176 872 OFFCURVE",
"173.333 757.333 OFFCURVE",
"184 608 CURVE"
);
},
{
closed = 1;
nodes = (
"112 88 LINE",
"176 32 LINE",
"229.333 5.333 OFFCURVE",
"290.667 2.667 OFFCURVE",
"360 24 CURVE",
"424 88 LINE",
"445.333 136 OFFCURVE",
"445.333 189.333 OFFCURVE",
"424 248 CURVE",
"336 328 LINE",
"293.333 344 OFFCURVE",
"242.667 341.333 OFFCURVE",
"184 320 CURVE",
"104 264 LINE",
"66.667 178.667 OFFCURVE",
"69.333 120 OFFCURVE",
"112 88 CURVE"
);
}
);
width = 656;
}
);
note = exclam;
unicode = 0021;
},
{
glyphname = question;
layers = (
{
layerId = "677F3FD9-5632-41B7-A1B7-A5DADB8D655F";
paths = (
{
closed = 1;
nodes = (
"343 375 LINE",
"443 429 LINE",
"448 586 LINE",
"483.333 668.667 OFFCURVE",
"595 794.667 OFFCURVE",
"783 964 CURVE",
"856.333 1289.333 OFFCURVE",
"831.333 1454.167 OFFCURVE",
"708 1458.5 CURVE SMOOTH",
"584.667 1462.833 OFFCURVE",
"436.667 1464 OFFCURVE",
"264 1462 CURVE",
"121.333 1473.333 OFFCURVE",
"60.667 1421.667 OFFCURVE",
"82 1307 CURVE",
"489 1300 LINE",
"628.333 1182 OFFCURVE",
"619.667 1055 OFFCURVE",
"463 919 CURVE",
"301 843 OFFCURVE",
"230.667 734 OFFCURVE",
"252 592 CURVE",
"235 473 LINE",
"343 375 LINE"
);
},
{
closed = 1;
nodes = (
"300 282 LINE",
"247 216 LINE",
"186.333 104 OFFCURVE",
"228.667 32 OFFCURVE",
"374 0 CURVE",
"506 71 LINE",
"514 201 LINE",
"448 254.333 OFFCURVE",
"376.667 281.333 OFFCURVE",
"300 282 CURVE SMOOTH"
);
}
);
width = 929;
}
);
note = question;
unicode = 003F;
},
{
glyphname = questiondown;
layers = (
{
layerId = "677F3FD9-5632-41B7-A1B7-A5DADB8D655F";
paths = (
{
closed = 1;
nodes = (
"606 758 LINE",
"506 704 LINE",
"500 548 LINE",
"464 465.333 OFFCURVE",
"351.667 339.667 OFFCURVE",
"163 171 CURVE",
"87.667 -153 OFFCURVE",
"111.667 -317.667 OFFCURVE",
"235 -323 CURVE SMOOTH",
"358.333 -328.333 OFFCURVE",
"506.333 -330.333 OFFCURVE",
"679 -329 CURVE",
"821 -341 OFFCURVE",
"881.667 -289.667 OFFCURVE",
"861 -175 CURVE",
"454 -166 LINE",
"316 -47.333 OFFCURVE",
"325.667 79.667 OFFCURVE",
"483 215 CURVE",
"645 289.667 OFFCURVE",
"716 398 OFFCURVE",
"696 540 CURVE",
"713 659 LINE",
"606 758 LINE"
);
},
{
closed = 1;
nodes = (
"650 851 LINE",
"703 916 LINE",
"764.333 1028 OFFCURVE",
"722.333 1100.333 OFFCURVE",
"577 1133 CURVE",
"445 1063 LINE",
"436 933 LINE",
"502 879 OFFCURVE",
"573.333 851.667 OFFCURVE",
"650 851 CURVE"
);
}
);
width = 929;
}
);
note = .002;
unicode = 00BF;
},
{
glyphname = asterisk;
layers = (
{
layerId = "677F3FD9-5632-41B7-A1B7-A5DADB8D655F";
paths = (
{
closed = 1;
nodes = (
"47 1279.667 OFFCURVE",
"66 1253.667 OFFCURVE",
"104 1237 CURVE",
"209.333 1196.333 OFFCURVE",
"289.333 1167.333 OFFCURVE",
"344 1150 CURVE",
"262.667 1070.667 OFFCURVE",
"200.667 1013 OFFCURVE",
"158 977 CURVE",
"136.667 955.667 OFFCURVE",
"126 933.667 OFFCURVE",
"126 911 CURVE SMOOTH",
"126 887 OFFCURVE",
"135.167 865.667 OFFCURVE",
"153.5 847 CURVE SMOOTH",
"171.833 828.333 OFFCURVE",
"193 819 OFFCURVE",
"217 819 CURVE SMOOTH",
"265.667 819 OFFCURVE",
"358.667 896.667 OFFCURVE",
"496 1052 CURVE",
"588 950 OFFCURVE",
"654.333 871.667 OFFCURVE",
"695 817 CURVE",
"715.667 793 OFFCURVE",
"738.667 781 OFFCURVE",
"764 781 CURVE SMOOTH",
"788 781 OFFCURVE",
"809.333 789.833 OFFCURVE",
"828 807.5 CURVE SMOOTH",
"846.667 825.167 OFFCURVE",
"856 846 OFFCURVE",
"856 870 CURVE SMOOTH",
"856 898.667 OFFCURVE",
"826.333 949.667 OFFCURVE",
"767 1023 CURVE SMOOTH",
"721.667 1078.333 OFFCURVE",
"682 1124 OFFCURVE",
"648 1160 CURVE",
"761.333 1173.333 OFFCURVE",
"841.333 1185 OFFCURVE",
"888 1195 CURVE SMOOTH",
"938 1205.667 OFFCURVE",
"963 1234.333 OFFCURVE",
"963 1281 CURVE SMOOTH",
"963 1306.333 OFFCURVE",
"954.833 1327.833 OFFCURVE",
"938.5 1345.5 CURVE SMOOTH",
"922.167 1363.167 OFFCURVE",
"901.667 1372 OFFCURVE",
"877 1372 CURVE SMOOTH",
"841 1372 OFFCURVE",
"743 1360 OFFCURVE",
"583 1336 CURVE",
"579 1412 OFFCURVE",
"577 1468.333 OFFCURVE",
"577 1505 CURVE SMOOTH",
"577 1531 OFFCURVE",
"568.5 1552.333 OFFCURVE",
"551.5 1569 CURVE SMOOTH",
"534.5 1585.667 OFFCURVE",
"513 1594 OFFCURVE",
"487 1594 CURVE SMOOTH",
"461.667 1594 OFFCURVE",
"440.5 1585.667 OFFCURVE",
"423.5 1569 CURVE SMOOTH",
"406.5 1552.333 OFFCURVE",
"398 1531 OFFCURVE",
"398 1505 CURVE SMOOTH",
"398 1469.667 OFFCURVE",
"400.667 1405.667 OFFCURVE",
"406 1313 CURVE",
"241.333 1377.667 OFFCURVE",
"151 1410 OFFCURVE",
"135 1410 CURVE SMOOTH",
"111 1410 OFFCURVE",
"90.333 1400.333 OFFCURVE",
"73 1381 CURVE SMOOTH",
"55.667 1361.667 OFFCURVE",
"47 1339.667 OFFCURVE",
"47 1315 CURVE",
"47 1315 LINE"
);
}
);
width = 825;
}
);
note = asterisk;
unicode = 002A;
},
{
glyphname = numbersign;
layers = (
{
layerId = "677F3FD9-5632-41B7-A1B7-A5DADB8D655F";
paths = (
{
closed = 1;
nodes = (
"122 1485 LINE",
"125 1475 LINE",
"124.333 1471 OFFCURVE",
"123.667 1467.667 OFFCURVE",
"123 1465 CURVE",
"90 1429 LINE",
"90 32 LINE",
"92.667 26 OFFCURVE",
"95.667 21 OFFCURVE",
"99 17 CURVE",
"110 5 LINE",
"119 0 LINE",
"1525 0 LINE",
"1529 4 OFFCURVE",
"1533.333 7.667 OFFCURVE",
"1538 11 CURVE",
"1548 24 LINE",
"1553.333 26 OFFCURVE",
"1558.667 27.667 OFFCURVE",
"1564 29 CURVE",
"1575 27 LINE",
"1575 1412 LINE",
"1574.333 1418.667 OFFCURVE",
"1573 1424.667 OFFCURVE",
"1571 1430 CURVE",
"1561 1428 LINE",
"1553 1430 LINE",
"1542 1442 LINE",
"1536.667 1445.333 OFFCURVE",
"1532.333 1449 OFFCURVE",
"1529 1453 CURVE",
"1518 1464 LINE",
"1517 1466 LINE",
"1519 1484 LINE",
"1517 1485 LINE",
"122 1485 LINE"
);
},
{
closed = 1;
nodes = (
"166 1445 LINE",
"226 1449 LINE",
"268 1447 LINE",
"288 1449 LINE",
"1281 1448 LINE",
"1285 1449 LINE",
"1435 1449 LINE",
"1456 1447 LINE SMOOTH",
"1463.333 1446.333 OFFCURVE",
"1470 1445.333 OFFCURVE",
"1476 1444 CURVE",
"1487 1433 LINE",
"1491.667 1429.667 OFFCURVE",
"1495.667 1426.333 OFFCURVE",
"1499 1423 CURVE",
"1512 1412 LINE",
"1530 1386 LINE",
"1533.333 1380.667 OFFCURVE",
"1536 1375.667 OFFCURVE",
"1538 1371 CURVE",
"1539 1352 LINE",
"1538 1331 LINE",
"1539 1310 LINE",
"1538 1289 LINE",
"1539 115 LINE",
"1538 93 LINE",
"1539 88 LINE",
"1537 74 LINE",
"1517 50 LINE",
"1504 40 LINE",
"1493 27 LINE",
"1481 17 LINE",
"1475 14.333 OFFCURVE",
"1469 12.667 OFFCURVE",
"1463 12 CURVE",
"1460 14 LINE",
"1444 12 LINE",
"1440 14 LINE",
"220 14 LINE",
"216 12 LINE",
"185 15 LINE",
"166 12 LINE",
"154 24 LINE",
"149.333 26.667 OFFCURVE",
"145.333 29.667 OFFCURVE",
"142 33 CURVE",
"120 57 LINE",
"111 71 LINE",
"107.667 75.667 OFFCURVE",
"105.333 80.667 OFFCURVE",
"104 86 CURVE",
"104 108 LINE",
"105 112 LINE",
"105 1367 LINE",
"110 1385 LINE",
"128 1411 LINE",
"132.667 1414.333 OFFCURVE",
"136.667 1418 OFFCURVE",
"140 1422 CURVE",
"164 1443 LINE",
"166 1445 LINE"
);
},
{
closed = 1;
nodes = (
"265 1377 LINE",
"249 1373 LINE",
"238 1365 LINE",
"223 1359 LINE",
"211 1350 LINE",
"207.667 1346.667 OFFCURVE",
"204.667 1343.333 OFFCURVE",
"202 1340 CURVE",
"198 1336.667 OFFCURVE",
"194.667 1333 OFFCURVE",
"192 1329 CURVE",
"184 1316 LINE",
"180.667 1312 OFFCURVE",
"178 1308 OFFCURVE",
"176 1304 CURVE",
"173 1287 LINE",
"173 293 LINE",
"172 289 LINE",
"173 233 LINE",
"172 214 LINE",
"174 156 LINE",
"177.333 151.333 OFFCURVE",
"180.333 147.333 OFFCURVE",
"183 144 CURVE",
"208 108 LINE",
"212 104.667 OFFCURVE",
"215.667 101.667 OFFCURVE",
"219 99 CURVE SMOOTH",
"231 90 LINE",
"246 84 LINE",
"1341 83 LINE",
"1353 84 LINE",
"1358 83 LINE",
"1398 84 LINE",
"1424 99 LINE",
"1428 102.333 OFFCURVE",
"1431.333 105.667 OFFCURVE",
"1434 109 CURVE",
"1455 129 LINE",
"1463 141 LINE",
"1470 155 LINE",
"1468 333 LINE",
"1470 336 LINE",
"1467 1302 LINE",
"1465.667 1307.333 OFFCURVE",
"1463.667 1312 OFFCURVE",
"1461 1316 CURVE",
"1457.667 1320 OFFCURVE",
"1454.667 1324 OFFCURVE",
"1452 1328 CURVE",
"1432 1349 LINE SMOOTH",
"1428.667 1352.333 OFFCURVE",
"1425 1355.667 OFFCURVE",
"1421 1359 CURVE",
"1408 1365 LINE",
"1404 1368.333 OFFCURVE",
"1400.333 1371 OFFCURVE",
"1397 1373 CURVE",
"1379 1377 LINE",
"1338 1377 LINE SMOOTH",
"1330.667 1377 OFFCURVE",
"1324 1376.667 OFFCURVE",
"1318 1376 CURVE",
"282 1376 LINE",
"265 1377 LINE"
);
},
{
closed = 1;
nodes = (
"654.667 1235.667 OFFCURVE",
"658.333 1234 OFFCURVE",
"661 1232 CURVE",
"666 1222 LINE",
"670 1210 LINE",
"668 1179 LINE",
"669 952 LINE",
"674 940 LINE",
"683 932 LINE",
"687 930.667 OFFCURVE",
"691 930 OFFCURVE",
"695 930 CURVE",
"710 931 LINE",
"873 931 LINE",
"888 930 LINE",
"937 931 LINE",
"950 928 LINE",
"954.667 929.333 OFFCURVE",
"959 931 OFFCURVE",
"963 933 CURVE",
"970 942 LINE",
"973 956 LINE",
"973 1054 LINE",
"974 1057 LINE",
"973 1070 LINE",
"973 1201 LINE",
"971 1205 LINE",
"976 1223 LINE",
"982 1233 LINE",
"986.667 1234.333 OFFCURVE",
"991.333 1235.333 OFFCURVE",
"996 1236 CURVE",
"1010 1233 LINE",
"1104 1235 LINE",
"1108.667 1232.333 OFFCURVE",
"1112.667 1230.667 OFFCURVE",
"1116 1230 CURVE",
"1125 1223 LINE",
"1131 1207 LINE",
"1129 1183 LINE",
"1129 1149 LINE",
"1128 1134 LINE",
"1129 513 LINE",
"1128.333 509 OFFCURVE",
"1128 505.667 OFFCURVE",
"1128 503 CURVE",
"1129 503 LINE",
"1129 500 LINE",
"1132 471 LINE",
"1124 462 LINE",
"997 459 LINE",
"982 460 LINE",
"974 469 LINE",
"971 482 LINE",
"974 496 LINE",
"974 659 LINE",
"973 674 LINE",
"974 785 LINE",
"970 798 LINE",
"961 806 LINE",
"947 808 LINE",
"865 808 LINE",
"850 807 LINE",
"835 808 LINE",
"704 808 LINE",
"700 808.667 OFFCURVE",
"696.667 809 OFFCURVE",
"694 809 CURVE",
"690 808 LINE SMOOTH",
"685.333 806.667 OFFCURVE",
"681.333 805 OFFCURVE",
"678 803 CURVE",
"670 795 LINE",
"668 781 LINE",
"670 472 LINE",
"663 462 LINE",
"652 457 LINE",
"638 460 LINE",
"622 460 LINE SMOOTH",
"618 460 OFFCURVE",
"614.667 459.667 OFFCURVE",
"612 459 CURVE",
"608 460 LINE",
"544 459 LINE",
"516 464 LINE",
"510 474 LINE",
"514 503 LINE",
"513 518 LINE",
"513 682 LINE",
"514 697 LINE",
"513 1188 LINE",
"511 1202 LINE",
"513 1217 LINE",
"519 1227 LINE",
"542 1236 LINE",
"557 1233 LINE",
"637 1233 LINE",
"650 1237 LINE",
"650 1237 LINE"
);
},
{
closed = 1;
nodes = (
"718.667 359 OFFCURVE",
"726.333 358.333 OFFCURVE",
"733 357 CURVE",
"739.667 352.333 OFFCURVE",
"745.667 348.667 OFFCURVE",
"751 346 CURVE SMOOTH",
"757.667 342.667 OFFCURVE",
"763 338.333 OFFCURVE",
"767 333 CURVE",
"769 321 LINE",
"764 314 LINE",
"752 312 LINE",
"746 319 LINE",
"740.667 324.333 OFFCURVE",
"735.667 328.667 OFFCURVE",
"731 332 CURVE",
"726 333 LINE",
"718.667 333 OFFCURVE",
"712 332.667 OFFCURVE",
"706 332 CURVE",
"700 328 OFFCURVE",
"696.667 322.667 OFFCURVE",
"696 316 CURVE",
"699.333 309.333 OFFCURVE",
"702.667 303.667 OFFCURVE",
"706 299 CURVE",
"712 293.667 OFFCURVE",
"718.333 290.333 OFFCURVE",
"725 289 CURVE",
"747 283 LINE SMOOTH",
"754.333 281 OFFCURVE",
"760.667 278 OFFCURVE",
"766 274 CURVE",
"771 265 LINE",
"770.333 247 OFFCURVE",
"769.333 234 OFFCURVE",
"768 226 CURVE",
"754 212 LINE",
"733 206 LINE",
"723.667 206 OFFCURVE",
"715.667 206.667 OFFCURVE",
"709 208 CURVE",
"699.667 208.667 OFFCURVE",
"691.333 210 OFFCURVE",
"684 212 CURVE",
"679.333 217.333 OFFCURVE",
"675.667 222.667 OFFCURVE",
"673 228 CURVE",
"671 228 LINE",
"671 232 LINE",
"671.667 236 OFFCURVE",
"672.333 239.333 OFFCURVE",
"673 242 CURVE",
"680 245 LINE",
"687.333 243 OFFCURVE",
"693.667 240.333 OFFCURVE",
"699 237 CURVE",
"706.333 233 OFFCURVE",
"713.333 230.333 OFFCURVE",
"720 229 CURVE",
"728 229.667 OFFCURVE",
"735 232 OFFCURVE",
"741 236 CURVE",
"747 247 LINE",
"743 254 LINE",
"737.667 260 OFFCURVE",
"732 263.667 OFFCURVE",
"726 265 CURVE",
"717.333 265.667 OFFCURVE",
"710 267.333 OFFCURVE",
"704 270 CURVE",
"673 295 LINE",
"668 302 LINE",
"669 316 LINE",
"674 338 LINE",
"687 353 LINE",
"695 356.333 OFFCURVE",
"702.667 358.333 OFFCURVE",
"710 359 CURVE",
"710 359 LINE"
);
},
{
closed = 1;
nodes = (
"1069 359 LINE",
"1082 357 LINE",
"1085.333 355 OFFCURVE",
"1088 352.667 OFFCURVE",
"1090 350 CURVE",
"1092 350 LINE",
"1092 347 LINE",
"1089 338 LINE",
"1080 331 LINE",
"1067 330 LINE",
"1062.333 328 OFFCURVE",
"1058.667 326.333 OFFCURVE",
"1056 325 CURVE",
"1053.333 321.667 OFFCURVE",
"1051 318.333 OFFCURVE",
"1049 315 CURVE",
"1051 253 LINE",
"1054 229 LINE",
"1053 226 LINE",
"1051 222.667 OFFCURVE",
"1048.667 219.667 OFFCURVE",
"1046 217 CURVE",
"1042 216 LINE",
"1033 217 LINE",
"1023 223 LINE",
"1022 226 LINE",
"1025 248 LINE",
"1023 263 LINE",
"1026 307 LINE",
"1022 321 LINE",
"1005 335 LINE SMOOTH",
"1001.667 337.667 OFFCURVE",
"999 340.333 OFFCURVE",
"997 343 CURVE",
"996 343 LINE",
"996 346 LINE",
"999 355 LINE",
"1003 356.333 OFFCURVE",
"1007 357.333 OFFCURVE",
"1011 358 CURVE",
"1040 356 LINE",
"1069 359 LINE"
);
},
{
closed = 1;
nodes = (
"566 358 LINE",
"585 358 LINE",
"598 353 LINE",
"602.667 351 OFFCURVE",
"606.333 349 OFFCURVE",
"609 347 CURVE",
"618 336 LINE",
"624 324 LINE",
"640 302 LINE",
"642.667 298 OFFCURVE",
"644.333 294 OFFCURVE",
"645 290 CURVE",
"643 274 LINE",
"644 257 LINE",
"641.333 253 OFFCURVE",
"638 250 OFFCURVE",
"634 248 CURVE",
"621 224 LINE",
"612 214 LINE",
"598 209 LINE",
"565 206 LINE",
"549 208 LINE",
"536 214 LINE",
"526 223 LINE",
"510 244 LINE",
"506.667 247.333 OFFCURVE",
"504.333 251 OFFCURVE",
"503 255 CURVE",
"502 291 LINE",
"513 317 LINE",
"528 340 LINE",
"537 348 LINE",
"541.667 350.667 OFFCURVE",
"546 353 OFFCURVE",
"550 355 CURVE",
"566 358 LINE"
);
},
{
closed = 1;
nodes = (
"841 358 LINE",
"873 357 LINE",
"883 351 LINE",
"892 342 LINE",
"906 322 LINE",
"909.333 319.333 OFFCURVE",
"912 316.667 OFFCURVE",
"914 314 CURVE",
"916 299 LINE",
"908 289 LINE",
"899 281 LINE",
"883 264 LINE",
"873 262 LINE",
"870 263 LINE",
"840 259 LINE",
"836 257 OFFCURVE",
"832.333 254.667 OFFCURVE",
"829 252 CURVE",
"826 249 LINE",
"828 239 LINE",
"829.333 234.333 OFFCURVE",
"830.333 230 OFFCURVE",
"831 226 CURVE",
"824 217 LINE",
"814 214 LINE",
"810 216 LINE",
"806.667 218 OFFCURVE",
"804 220.333 OFFCURVE",
"802 223 CURVE",
"799 233 LINE",
"800 237 LINE",
"804 267 LINE",
"800 296 LINE",
"803 345 LINE",
"811 353 LINE",
"826 355 LINE",
"841 358 LINE"
);
},
{
closed = 1;
nodes = (
"1161 357 LINE",
"1175 353 LINE",
"1185 345 LINE",
"1187 328 LINE",
"1192 315 LINE",
"1198 285 LINE",
"1204 273 LINE",
"1206.667 268.333 OFFCURVE",
"1209 264 OFFCURVE",
"1211 260 CURVE",
"1211.667 254.667 OFFCURVE",
"1212.667 249.667 OFFCURVE",
"1214 245 CURVE",
"1219 232 LINE",
"1218.333 226 OFFCURVE",
"1217.333 221 OFFCURVE",
"1216 217 CURVE",
"1212 214 LINE",
"1202 216 LINE",
"1192 224 LINE",
"1189.333 228 OFFCURVE",
"1187 232 OFFCURVE",
"1185 236 CURVE",
"1180.333 237.333 OFFCURVE",
"1175.667 238.333 OFFCURVE",
"1171 239 CURVE",
"1140 234 LINE",
"1135.333 232 OFFCURVE",
"1131.667 229.667 OFFCURVE",
"1129 227 CURVE",
"1126.333 223 OFFCURVE",
"1123.333 219.667 OFFCURVE",
"1120 217 CURVE",
"1115.333 214.333 OFFCURVE",
"1110.667 212.667 OFFCURVE",
"1106 212 CURVE",
"1102.667 214 OFFCURVE",
"1099.667 216.333 OFFCURVE",
"1097 219 CURVE",
"1095 223 LINE",
"1097 236 LINE",
"1105 245 LINE",
"1115 273 LINE",
"1118 289 LINE",
"1128 316 LINE",
"1136 326 LINE",
"1141 338 LINE",
"1149 350 LINE",
"1153 352.667 OFFCURVE",
"1157 355 OFFCURVE",
"1161 357 CURVE"
);
},
{
closed = 1;
nodes = (
"376.333 354.333 OFFCURVE",
"383 352.667 OFFCURVE",
"389 350 CURVE",
"394 345 LINE",
"391 322 LINE",
"396 311 LINE",
"412 301 LINE",
"422 299 LINE",
"432 301 LINE",
"438 305 OFFCURVE",
"442.667 309.333 OFFCURVE",
"446 314 CURVE",
"449 324 LINE",
"448 335 LINE",
"449.333 341.667 OFFCURVE",
"451.333 347.667 OFFCURVE",
"454 353 CURVE",
"466 355 LINE",
"474 346 LINE",
"476 327 LINE",
"472 305 LINE",
"471 301 LINE",
"469 283 LINE",
"476 228 LINE",
"471 217 LINE",
"467 215 OFFCURVE",
"463 213.667 OFFCURVE",
"459 213 CURVE",
"453 217 LINE",
"448 223 LINE",
"447 236 LINE",
"448 239 LINE",
"446 258 LINE",
"444 264 OFFCURVE",
"441.333 269.667 OFFCURVE",
"438 275 CURVE",
"432 279 OFFCURVE",
"425.333 281 OFFCURVE",
"418 281 CURVE",
"412 279 OFFCURVE",
"406.333 276.333 OFFCURVE",
"401 273 CURVE",
"397.667 267.667 OFFCURVE",
"394.667 262.333 OFFCURVE",
"392 257 CURVE",
"390 245 LINE",
"392 236 LINE",
"394 224 LINE",
"387 217 LINE",
"381 214.333 OFFCURVE",
"375 213 OFFCURVE",
"369 213 CURVE",
"363.667 216.333 OFFCURVE",
"359 220 OFFCURVE",
"355 224 CURVE",
"354 228 LINE",
"357 247 LINE",
"357 295 LINE",
"355 299 LINE",
"354 338 LINE",
"355 342 LINE",
"359.667 346.667 OFFCURVE",
"364.333 351 OFFCURVE",
"369 355 CURVE",
"369 355 LINE"
);
},
{
closed = 1;
nodes = (
"960.333 351 OFFCURVE",
"965 348.667 OFFCURVE",
"969 346 CURVE",
"970 341 LINE",
"968 327 LINE",
"966 284 LINE",
"968 243 LINE",
"968 235.667 OFFCURVE",
"967 229 OFFCURVE",
"965 223 CURVE",
"960.333 219.667 OFFCURVE",
"955.333 217.333 OFFCURVE",
"950 216 CURVE",
"944.667 218 OFFCURVE",
"940.333 220.667 OFFCURVE",
"937 224 CURVE",
"937.667 230.667 OFFCURVE",
"938.667 237 OFFCURVE",
"940 243 CURVE",
"942 245 LINE",
"945 305 LINE",
"944 326 LINE",
"942 332.667 OFFCURVE",
"940.667 339 OFFCURVE",
"940 345 CURVE",
"945.333 348.333 OFFCURVE",
"950.333 351 OFFCURVE",
"955 353 CURVE",
"955 353 LINE"
);
},
{
closed = 1;
nodes = (
"1256 352 LINE",
"1269 350 LINE",
"1271.667 346.667 OFFCURVE",
"1273.667 343.333 OFFCURVE",
"1275 340 CURVE",
"1276 340 LINE",
"1276 326 LINE",
"1278 322 LINE",
"1274 283 LINE",
"1275 269 LINE",
"1274 253 LINE",
"1280 244 LINE",
"1292 239 LINE",
"1306 237 LINE",
"1310 236 LINE",
"1320 237 LINE",
"1332 234 LINE",
"1343 229 LINE",
"1346 226 LINE",
"1343 218 LINE",
"1333 212 LINE",
"1321 209 LINE",
"1261 213 LINE",
"1257.667 215 OFFCURVE",
"1254.333 217 OFFCURVE",
"1251 219 CURVE",
"1249 223 OFFCURVE",
"1247.667 227 OFFCURVE",
"1247 231 CURVE",
"1250 243 LINE",
"1251 245 LINE",
"1248 270 LINE",
"1249 316 LINE",
"1247 345 LINE",
"1256 352 LINE"
);
},
{
closed = 1;
nodes = (
"557.333 329.667 OFFCURVE",
"553.333 326 OFFCURVE",
"550 322 CURVE",
"530 295 LINE",
"529 293 LINE",
"526 275 LINE",
"533 257 LINE",
"536.333 251.667 OFFCURVE",
"540 247.333 OFFCURVE",
"544 244 CURVE",
"561 233 LINE",
"578 232 LINE",
"584 234 OFFCURVE",
"589.667 236.333 OFFCURVE",
"595 239 CURVE",
"607 250 LINE",
"614 271 LINE",
"612 288 LINE",
"603 302 LINE",
"598 321 LINE",
"593.333 325.667 OFFCURVE",
"589 329.333 OFFCURVE",
"585 332 CURVE",
"581 333 LINE",
"562 333 LINE",
"562 333 LINE"
);
},
{
closed = 1;
nodes = (
"851 333 LINE",
"834 325 LINE",
"830 318.333 OFFCURVE",
"827.333 311.667 OFFCURVE",
"826 305 CURVE",
"827.333 297.667 OFFCURVE",
"830.333 292 OFFCURVE",
"835 288 CURVE",
"843 284.667 OFFCURVE",
"850.333 283 OFFCURVE",
"857 283 CURVE",
"865 285 OFFCURVE",
"871.333 287.333 OFFCURVE",
"876 290 CURVE",
"882 296 LINE",
"880 309 LINE",
"877.333 315 OFFCURVE",
"874.333 320.667 OFFCURVE",
"871 326 CURVE",
"864.333 330 OFFCURVE",
"857.667 332.333 OFFCURVE",
"851 333 CURVE"
);
},
{
closed = 1;
nodes = (
"1152 304 LINE",
"1145 293 LINE",
"1142 276 LINE",
"1144 272 OFFCURVE",
"1146.333 268 OFFCURVE",
"1149 264 CURVE",
"1153.667 262.667 OFFCURVE",
"1158 262 OFFCURVE",
"1162 262 CURVE",
"1166 264 OFFCURVE",
"1169.333 266.667 OFFCURVE",
"1172 270 CURVE",
"1171 285 LINE",
"1165 296 LINE",
"1161 299.333 OFFCURVE",
"1156.667 302 OFFCURVE",
"1152 304 CURVE"
);
}
);
width = 1702;
}
);
note = numbersign;
unicode = 0023;
},
{
glyphname = slash;
layers = (
{
layerId = "677F3FD9-5632-41B7-A1B7-A5DADB8D655F";
paths = (
{
closed = 1;
nodes = (
"261 25 LINE",
"193 13 LINE",
"315 243 LINE",
"482 643 LINE",
"681 1061 LINE",
"678 1133 LINE",
"530 1166.333 OFFCURVE",
"397.667 1013 OFFCURVE",
"281 673 CURVE",
"0 80 LINE",
"82 0 LINE",
"261 25 LINE"
);
}
);
width = 569;
}
);
note = slash;
unicode = 002F;
},
{
glyphname = backslash;
layers = (
{
layerId = "677F3FD9-5632-41B7-A1B7-A5DADB8D655F";
paths = (
{
closed = 1;
nodes = (
"829 165 LINE",
"794 105 LINE",
"696 346 LINE",
"497 732 LINE",
"305 1153 LINE",
"223 1121 LINE SMOOTH",
"119.667 1079.667 OFFCURVE",
"230.667 776.333 OFFCURVE",
"556 211 CURVE",
"619 0 LINE",
"733 11 LINE",
"829 165 LINE"
);
}
);
width = 869;
}
);
note = backslash;
unicode = 005C;
},
{
glyphname = parenleft;
layers = (
{
layerId = "677F3FD9-5632-41B7-A1B7-A5DADB8D655F";
paths = (
{
closed = 1;
nodes = (
"360 1496 OFFCURVE",
"416 1496 OFFCURVE",
"480 1480 CURVE",
"528 1416 LINE",
"538.667 1368 OFFCURVE",
"522.667 1330.667 OFFCURVE",
"480 1304 CURVE",
"392 1240 LINE",
"264 1112 LINE",
"176 960 LINE",
"152 760 LINE",
"184 528 LINE",
"352 296 LINE",
"432 216 LINE",
"520 176 LINE",
"560 144 LINE",
"597.333 101.333 OFFCURVE",
"594.667 53.333 OFFCURVE",
"552 0 CURVE",
"514.667 -10.667 OFFCURVE",
"472 -8 OFFCURVE",
"424 8 CURVE",
"328 80 LINE",
"208 200 LINE",
"120 320 LINE",
"40 480 LINE",
"0 648 LINE",
"-16 738.667 OFFCURVE",
"-16 842.667 OFFCURVE",
"0 960 CURVE",
"40 1120 LINE",
"120 1320 LINE",
"152 1360 LINE",
"312 1480 LINE",
"312 1480 LINE"
);
}
);
width = 508;
}
);
note = parenleft;
unicode = 0028;
},
{
glyphname = parenright;
layers = (
{
layerId = "677F3FD9-5632-41B7-A1B7-A5DADB8D655F";
paths = (
{
closed = 1;
nodes = (
"232 -8 OFFCURVE",
"184 -5.333 OFFCURVE",
"136 16 CURVE",
"72 72 LINE",
"50.667 109.333 OFFCURVE",
"53.333 141.333 OFFCURVE",
"80 168 CURVE",
"200 248 LINE",
"344 376 LINE",
"432 552 LINE",
"432 808 LINE",
"408 960 LINE",
"240 1192 LINE",
"160 1272 LINE",
"72 1312 LINE",
"32 1344 LINE",
"-5.333 1386.667 OFFCURVE",
"-2.667 1434.667 OFFCURVE",
"40 1488 CURVE",
"77.333 1498.667 OFFCURVE",
"120 1496 OFFCURVE",
"168 1480 CURVE",
"264 1408 LINE",
"384 1288 LINE",
"472 1168 LINE",
"552 1008 LINE",
"592 840 LINE",
"608 749.333 OFFCURVE",
"608 645.333 OFFCURVE",
"592 528 CURVE",
"552 368 LINE",
"472 168 LINE",
"440 128 LINE",
"280 8 LINE",
"280 8 LINE"
);
}
);
width = 653;
}
);
note = parenright;
unicode = 0029;
},
{
glyphname = braceleft;
layers = (
{
layerId = "677F3FD9-5632-41B7-A1B7-A5DADB8D655F";
paths = (
{
closed = 1;
nodes = (
"285.667 543 OFFCURVE",
"311.667 504.333 OFFCURVE",
"337 457 CURVE SMOOTH",
"367 402.333 OFFCURVE",
"382 359.333 OFFCURVE",
"382 328 CURVE SMOOTH",
"382 306 OFFCURVE",
"379.333 273 OFFCURVE",
"374 229 CURVE SMOOTH",
"368.667 185 OFFCURVE",
"366 152 OFFCURVE",
"366 130 CURVE SMOOTH",
"366 74 OFFCURVE",
"379 10 OFFCURVE",
"405 -62 CURVE SMOOTH",
"437.667 -152 OFFCURVE",
"477 -197 OFFCURVE",
"523 -197 CURVE SMOOTH",
"577.667 -197 OFFCURVE",
"612.667 -199.667 OFFCURVE",
"628 -205 CURVE SMOOTH",
"662 -216.333 OFFCURVE",
"679 -244 OFFCURVE",
"679 -288 CURVE SMOOTH",
"679 -330 OFFCURVE",
"662 -358 OFFCURVE",
"628 -372 CURVE SMOOTH",
"607.333 -380 OFFCURVE",
"572.333 -384 OFFCURVE",
"523 -384 CURVE SMOOTH",
"415.667 -384 OFFCURVE",
"328.667 -322.667 OFFCURVE",
"262 -200 CURVE SMOOTH",
"206.667 -98 OFFCURVE",
"179 12 OFFCURVE",
"179 130 CURVE SMOOTH",
"179 148 OFFCURVE",
"181.667 175.333 OFFCURVE",
"187 212 CURVE SMOOTH",
"192.333 248.667 OFFCURVE",
"195 276 OFFCURVE",
"195 294 CURVE SMOOTH",
"195 348.667 OFFCURVE",
"163.5 398.5 OFFCURVE",
"100.5 443.5 CURVE SMOOTH",
"37.5 488.5 OFFCURVE",
"6 526 OFFCURVE",
"6 556 CURVE SMOOTH",
"6 590.667 OFFCURVE",
"33.333 633.333 OFFCURVE",
"88 684 CURVE SMOOTH",
"137.333 730 OFFCURVE",
"178.667 757.667 OFFCURVE",
"212 767 CURVE",
"212 795 LINE",
"209 994 LINE",
"204 1193 LINE",
"204 1403.667 OFFCURVE",
"270.333 1538 OFFCURVE",
"403 1596 CURVE SMOOTH",
"449 1615.333 OFFCURVE",
"493 1625 OFFCURVE",
"535 1625 CURVE SMOOTH",
"572.333 1625 OFFCURVE",
"607 1616 OFFCURVE",
"639 1598 CURVE SMOOTH",
"677.667 1576.667 OFFCURVE",
"697 1548.667 OFFCURVE",
"697 1514 CURVE SMOOTH",
"697 1478 OFFCURVE",
"673.333 1454.667 OFFCURVE",
"626 1444 CURVE",
"581.333 1438 OFFCURVE",
"547.667 1434.667 OFFCURVE",
"525 1434 CURVE",
"431.667 1424 OFFCURVE",
"385 1353.333 OFFCURVE",
"385 1222 CURVE SMOOTH",
"385 1193.333 OFFCURVE",
"387.167 1125.333 OFFCURVE",
"391.5 1018 CURVE SMOOTH",
"395.833 910.667 OFFCURVE",
"398 842.667 OFFCURVE",
"398 814 CURVE SMOOTH",
"398 774 OFFCURVE",
"384.333 729 OFFCURVE",
"357 679 CURVE SMOOTH",
"328.333 626.333 OFFCURVE",
"295.667 591 OFFCURVE",
"259 573 CURVE",
"259 573 LINE"
);
}
);
width = 568;
}
);
note = braceleft;
unicode = 007B;
},
{
glyphname = braceright;
layers = (
{
layerId = "677F3FD9-5632-41B7-A1B7-A5DADB8D655F";
paths = (
{
closed = 1;
nodes = (
"416.333 543 OFFCURVE",
"390.333 504.333 OFFCURVE",
"365 457 CURVE SMOOTH",
"335 402.333 OFFCURVE",
"320 359.333 OFFCURVE",
"320 328 CURVE SMOOTH",
"320 306 OFFCURVE",
"322.667 273 OFFCURVE",
"328 229 CURVE SMOOTH",
"333.333 185 OFFCURVE",
"336 152 OFFCURVE",
"336 130 CURVE SMOOTH",
"336 74 OFFCURVE",
"323 10 OFFCURVE",
"297 -62 CURVE SMOOTH",
"264.333 -152 OFFCURVE",
"225 -197 OFFCURVE",
"179 -197 CURVE SMOOTH",
"124.333 -197 OFFCURVE",
"89.333 -199.667 OFFCURVE",
"74 -205 CURVE SMOOTH",
"40 -216.333 OFFCURVE",
"23 -244 OFFCURVE",
"23 -288 CURVE SMOOTH",
"23 -330 OFFCURVE",
"40 -358 OFFCURVE",
"74 -372 CURVE SMOOTH",
"94.667 -380 OFFCURVE",
"129.667 -384 OFFCURVE",
"179 -384 CURVE SMOOTH",
"286.333 -384 OFFCURVE",
"373.333 -322.667 OFFCURVE",
"440 -200 CURVE SMOOTH",
"495.333 -98 OFFCURVE",
"523 12 OFFCURVE",
"523 130 CURVE SMOOTH",
"523 148 OFFCURVE",
"520.333 175.333 OFFCURVE",
"515 212 CURVE SMOOTH",
"509.667 248.667 OFFCURVE",
"507 276 OFFCURVE",
"507 294 CURVE SMOOTH",
"507 348.667 OFFCURVE",
"538.5 398.5 OFFCURVE",
"601.5 443.5 CURVE SMOOTH",
"664.5 488.5 OFFCURVE",
"696 526 OFFCURVE",
"696 556 CURVE SMOOTH",
"696 590.667 OFFCURVE",
"668.667 633.333 OFFCURVE",
"614 684 CURVE SMOOTH",
"564.667 730 OFFCURVE",
"523.333 757.667 OFFCURVE",
"490 767 CURVE",
"490 795 LINE",
"493 994 LINE",
"498 1193 LINE SMOOTH",
"498 1403.667 OFFCURVE",
"431.667 1538 OFFCURVE",
"299 1596 CURVE SMOOTH",
"253 1615.333 OFFCURVE",
"209 1625 OFFCURVE",
"167 1625 CURVE SMOOTH",
"129.667 1625 OFFCURVE",
"95 1616 OFFCURVE",
"63 1598 CURVE SMOOTH",
"24.333 1576.667 OFFCURVE",
"5 1548.667 OFFCURVE",
"5 1514 CURVE SMOOTH",
"5 1478 OFFCURVE",
"28.667 1454.667 OFFCURVE",
"76 1444 CURVE",
"120.667 1438 OFFCURVE",
"154.333 1434.667 OFFCURVE",
"177 1434 CURVE",
"270.333 1424 OFFCURVE",
"317 1353.333 OFFCURVE",
"317 1222 CURVE SMOOTH",
"317 1193.333 OFFCURVE",
"314.833 1125.333 OFFCURVE",
"310.5 1018 CURVE SMOOTH",
"306.167 910.667 OFFCURVE",
"304 842.667 OFFCURVE",
"304 814 CURVE SMOOTH",
"304 774 OFFCURVE",
"317.667 729 OFFCURVE",
"345 679 CURVE SMOOTH",
"373.667 626.333 OFFCURVE",
"406.333 591 OFFCURVE",
"443 573 CURVE",
"443 573 LINE"
);
}
);
width = 616;
}
);
note = braceright;
unicode = 007D;
},
{
glyphname = bracketleft;
layers = (
{
layerId = "677F3FD9-5632-41B7-A1B7-A5DADB8D655F";
paths = (
{
closed = 1;
nodes = (
"206 1461 LINE",
"172 1416 LINE",
"156 1312 LINE",
"152.667 1266 OFFCURVE",
"147 1226.333 OFFCURVE",
"139 1193 CURVE",
"156 1147 LINE",
"172 984 LINE",
"172 238 LINE",
"156 90 LINE",
"139 60 LINE",
"139 -193 LINE",
"206 -223 LINE",
"360 -268 LINE",
"565 -253 LINE",
"693 -235.667 OFFCURVE",
"806.667 -210.667 OFFCURVE",
"906 -178 CURVE",
"898.667 -131.333 OFFCURVE",
"881.667 -91.667 OFFCURVE",
"855 -59 CURVE",
"411 -44 LINE",
"377 60 LINE",
"360 238 LINE",
"394 1147 LINE",
"428 1252 LINE",
"684 1237 LINE",
"855 1267 LINE",
"895.667 1299.667 OFFCURVE",
"924 1334.333 OFFCURVE",
"940 1371 CURVE",
"855 1445 LINE",
"377 1445 LINE",
"206 1461 LINE"
);
}
);
width = 463;
}
);
note = bracketleft;
unicode = 005B;
},
{
glyphname = bracketright;
layers = (
{
layerId = "677F3FD9-5632-41B7-A1B7-A5DADB8D655F";
paths = (
{
closed = 1;
nodes = (
"284.667 1463.333 OFFCURVE",
"208.667 1422.333 OFFCURVE",
"146 1355 CURVE",
"215 1278 LINE",
"454 1263 LINE",
"592.667 1277 OFFCURVE",
"659.333 1254.667 OFFCURVE",
"654 1196 CURVE SMOOTH",
"645 1108 LINE",
"671 953 LINE",
"688 911 LINE",
"666 738 LINE",
"651 667 LINE",
"686 640 LINE",
"682 548 LINE",
"667 362 LINE",
"679 268 LINE",
"671 135 LINE",
"645 -8 LINE",
"629 -61 LINE",
"495 -52 LINE",
"380 -61 LINE",
"289 -36 LINE",
"231 -77 LINE",
"204.333 -121.667 OFFCURVE",
"188.667 -168 OFFCURVE",
"184 -216 CURVE",
"294 -259.333 OFFCURVE",
"400 -285 OFFCURVE",
"502 -293 CURVE",
"628 -288.333 OFFCURVE",
"739 -267.667 OFFCURVE",
"835 -231 CURVE",
"899 -185 LINE",
"887 462 LINE",
"879 512 LINE",
"881 563 LINE",
"864 748 LINE",
"867 874 LINE",
"870 1020 LINE",
"903 1196 LINE",
"894.333 1294.667 OFFCURVE",
"877 1383.667 OFFCURVE",
"851 1463 CURVE",
"647 1467 LINE",
"543 1490 LINE",
"478 1474 LINE",
"374 1478 LINE",
"374 1478 LINE"
);
}
);
width = 457;
}
);
note = bracketright;
unicode = 005D;
},
{
glyphname = hyphen;
layers = (
{
layerId = "677F3FD9-5632-41B7-A1B7-A5DADB8D655F";
paths = (
{
closed = 1;
nodes = (
"821 665 LINE",
"821 652 LINE",
"94 652 LINE",
"55 625 LINE",
"68 533 LINE",
"134 506 LINE",
"834 493 LINE",
"874 652 LINE",
"821 665 LINE"
);
}
);
width = 834;
}
);
note = hyphen;
unicode = 002D;
},
{
glyphname = underscore;
layers = (
{
layerId = "677F3FD9-5632-41B7-A1B7-A5DADB8D655F";
paths = (
{
closed = 1;
nodes = (
"1119 260 LINE",
"1156 203 LINE",
"618 223 LINE",
"89 203 LINE",
"30 169 LINE",
"50 51 LINE",
"147 17 LINE",
"1175 0 LINE",
"1210 108 LINE",
"1119 260 LINE"
);
}
);
width = 1230;
}
);
note = underscore;
unicode = 005F;
},
{
glyphname = quotedbl;
layers = (
{
layerId = "677F3FD9-5632-41B7-A1B7-A5DADB8D655F";
paths = (
{
closed = 1;
nodes = (
"178.667 1225.333 OFFCURVE",
"205 1384.667 OFFCURVE",
"145 1530 CURVE",
"93 1553 LINE",
"-17 1502 LINE",
"-29 1418 OFFCURVE",
"-31.5 1333 OFFCURVE",
"-24.5 1247 CURVE SMOOTH",
"-17.5 1161 OFFCURVE",
"12.667 1096 OFFCURVE",
"66 1052 CURVE",
"66 1052 LINE"
);
},
{
closed = 1;
nodes = (
"479 1084 LINE",
"507 1084 LINE",
"576.333 1112 OFFCURVE",
"611.667 1178.833 OFFCURVE",
"613 1284.5 CURVE SMOOTH",
"614.333 1390.167 OFFCURVE",
"608.333 1472 OFFCURVE",
"595 1530 CURVE",
"510.333 1552 OFFCURVE",
"453.333 1552 OFFCURVE",
"424 1530 CURVE",
"410 1446 OFFCURVE",
"412.667 1368 OFFCURVE",
"432 1296 CURVE SMOOTH",
"451.333 1224 OFFCURVE",
"467 1153.333 OFFCURVE",
"479 1084 CURVE"
);
}
);
width = 645;
}
);
note = quotedbl;
unicode = 0022;
},
{
glyphname = quotesingle;
layers = (
{
layerId = "677F3FD9-5632-41B7-A1B7-A5DADB8D655F";
paths = (
{
closed = 1;
nodes = (
"404 920.333 OFFCURVE",
"437.833 987.5 OFFCURVE",
"441.5 1096.5 CURVE SMOOTH",
"445.167 1205.5 OFFCURVE",
"447 1293.667 OFFCURVE",
"447 1361 CURVE",
"365.667 1383 OFFCURVE",
"314 1383 OFFCURVE",
"292 1361 CURVE",
"292 1282.333 OFFCURVE",
"294.167 1201 OFFCURVE",
"298.5 1117 CURVE SMOOTH",
"302.833 1033 OFFCURVE",
"316.667 959 OFFCURVE",
"340 895 CURVE",
"340 895 LINE"
);
}
);
width = 444;
}
);
note = quotesingle;
unicode = 0027;
},
{
glyphname = .notdef;
layers = (
{
layerId = "677F3FD9-5632-41B7-A1B7-A5DADB8D655F";
paths = (
{
closed = 1;
nodes = (
"342 1200.667 OFFCURVE",
"348.833 1162.667 OFFCURVE",
"358.5 1138 CURVE SMOOTH",
"368.167 1113.333 OFFCURVE",
"391.667 1095.333 OFFCURVE",
"429 1084 CURVE",
"390 1045 LINE",
"364 1007 LINE",
"351 981 LINE",
"364 890 LINE",
"346.667 848.667 OFFCURVE",
"329.333 823.333 OFFCURVE",
"312 814 CURVE",
"232.667 782 OFFCURVE",
"168.333 708.667 OFFCURVE",
"119 594 CURVE",
"106 426 LINE",
"110.667 368.667 OFFCURVE",
"119.333 317 OFFCURVE",
"132 271 CURVE",
"150.667 222.333 OFFCURVE",
"172 179.333 OFFCURVE",
"196 142 CURVE",
"300 65 LINE",
"429 0 LINE",
"610 0 LINE",
"739 52 LINE",
"924 232 LINE",
"936.667 163.333 OFFCURVE",
"965.333 111.667 OFFCURVE",
"1010 77 CURVE",
"1054.667 99 OFFCURVE",
"1089 129.333 OFFCURVE",
"1113 168 CURVE",
"1074 310 LINE",
"958 555 LINE",
"855 645 LINE",
"739 658 LINE",
"700 645 LINE",
"668 670.333 OFFCURVE",
"646.333 700.667 OFFCURVE",
"635 736 CURVE",
"643.667 750.667 OFFCURVE",
"652.333 759 OFFCURVE",
"661 761 CURVE",
"777 749 LINE",
"823 754.333 OFFCURVE",
"848.167 770.667 OFFCURVE",
"852.5 798 CURVE SMOOTH",
"856.833 825.333 OFFCURVE",
"850.833 842.667 OFFCURVE",
"834.5 850 CURVE SMOOTH",
"818.167 857.333 OFFCURVE",
"790.667 862.333 OFFCURVE",
"752 865 CURVE",
"702.667 872.333 OFFCURVE",
"655.333 885 OFFCURVE",
"610 903 CURVE",
"597.333 955.667 OFFCURVE",
"580 1003 OFFCURVE",
"558 1045 CURVE",
"506 1084 LINE",
"546.667 1110 OFFCURVE",
"567 1141.333 OFFCURVE",
"567 1178 CURVE SMOOTH",
"567 1214.667 OFFCURVE",
"564 1248 OFFCURVE",
"558 1278 CURVE",
"514 1305.333 OFFCURVE",
"476.5 1319.333 OFFCURVE",
"445.5 1320 CURVE SMOOTH",
"414.5 1320.667 OFFCURVE",
"378.667 1298 OFFCURVE",
"338 1252 CURVE",
"338 1252 LINE"
);
},
{
closed = 1;
nodes = (
"373 697 LINE",
"467 516 LINE",
"597 478 LINE",
"726 490 LINE",
"802 452.667 OFFCURVE",
"832.333 394 OFFCURVE",
"817 314 CURVE",
"704 185 LINE",
"638 147.667 OFFCURVE",
"553.333 134.667 OFFCURVE",
"450 146 CURVE",
"386.667 177.333 OFFCURVE",
"333.667 219 OFFCURVE",
"291 271 CURVE",
"258.333 335.667 OFFCURVE",
"239.667 414.667 OFFCURVE",
"235 508 CURVE",
"264.333 588 OFFCURVE",
"310.333 651 OFFCURVE",
"373 697 CURVE"
);
}
);
width = 1204;
}
);
note = .notdef;
},
{
glyphname = at;
layers = (
{
layerId = "677F3FD9-5632-41B7-A1B7-A5DADB8D655F";
paths = (
{
closed = 1;
nodes = (
"1239.667 117 OFFCURVE",
"1334 151.667 OFFCURVE",
"1398 221 CURVE SMOOTH",
"1459.333 288.333 OFFCURVE",
"1490 384.667 OFFCURVE",
"1490 510 CURVE SMOOTH",
"1490 694 OFFCURVE",
"1419.333 845.667 OFFCURVE",
"1278 965 CURVE SMOOTH",
"1142.667 1077.667 OFFCURVE",
"980.667 1134 OFFCURVE",
"792 1134 CURVE SMOOTH",
"582 1134 OFFCURVE",
"413.667 1057.333 OFFCURVE",
"287 904 CURVE SMOOTH",
"169 760 OFFCURVE",
"110 581 OFFCURVE",
"110 367 CURVE SMOOTH",
"110 153 OFFCURVE",
"196.333 -28.667 OFFCURVE",
"369 -178 CURVE SMOOTH",
"427.667 -228 OFFCURVE",
"498.5 -268.333 OFFCURVE",
"581.5 -299 CURVE SMOOTH",
"664.5 -329.667 OFFCURVE",
"745.333 -345 OFFCURVE",
"824 -345 CURVE SMOOTH",
"903.333 -345 OFFCURVE",
"988 -332.333 OFFCURVE",
"1078 -307 CURVE SMOOTH",
"1197.333 -274.333 OFFCURVE",
"1257 -231.667 OFFCURVE",
"1257 -179 CURVE SMOOTH",
"1257 -155 OFFCURVE",
"1248.667 -134 OFFCURVE",
"1232 -116 CURVE SMOOTH",
"1215.333 -98 OFFCURVE",
"1195.333 -89 OFFCURVE",
"1172 -89 CURVE SMOOTH",
"1164.667 -89 OFFCURVE",
"1148.667 -93.333 OFFCURVE",
"1124 -102 CURVE SMOOTH",
"976 -157 LINE",
"919.333 -173.667 OFFCURVE",
"868.667 -182 OFFCURVE",
"824 -182 CURVE SMOOTH",
"663.333 -182 OFFCURVE",
"532 -127.333 OFFCURVE",
"430 -18 CURVE SMOOTH",
"331.333 86 OFFCURVE",
"282 214.333 OFFCURVE",
"282 367 CURVE SMOOTH",
"282 533 OFFCURVE",
"324 670.667 OFFCURVE",
"408 780 CURVE SMOOTH",
"500 902 OFFCURVE",
"628 963 OFFCURVE",
"792 963 CURVE SMOOTH",
"931.333 963 OFFCURVE",
"1051.333 923.667 OFFCURVE",
"1152 845 CURVE SMOOTH",
"1262.667 759 OFFCURVE",
"1318 647.333 OFFCURVE",
"1318 510 CURVE SMOOTH",
"1318 433.333 OFFCURVE",
"1304 378 OFFCURVE",
"1276 344 CURVE SMOOTH",
"1246 306.667 OFFCURVE",
"1192.333 288 OFFCURVE",
"1115 288 CURVE SMOOTH",
"1074.333 288 OFFCURVE",
"1047.667 290 OFFCURVE",
"1035 294 CURVE SMOOTH",
"1003.667 303.333 OFFCURVE",
"988 326 OFFCURVE",
"988 362 CURVE SMOOTH",
"988 373.333 OFFCURVE",
"989.833 390.167 OFFCURVE",
"993.5 412.5 CURVE SMOOTH",
"997.167 434.833 OFFCURVE",
"999 451.333 OFFCURVE",
"999 462 CURVE SMOOTH",
"999 487.333 OFFCURVE",
"991.667 508.667 OFFCURVE",
"977 526 CURVE SMOOTH",
"962.333 543.333 OFFCURVE",
"943.333 552 OFFCURVE",
"920 552 CURVE SMOOTH",
"890.667 552 OFFCURVE",
"857.333 513.667 OFFCURVE",
"820 437 CURVE SMOOTH",
"778 348.333 OFFCURVE",
"732.667 303.333 OFFCURVE",
"684 302 CURVE SMOOTH",
"658.667 300.667 OFFCURVE",
"637.333 308.333 OFFCURVE",
"620 325 CURVE SMOOTH",
"604.667 340.333 OFFCURVE",
"597 356 OFFCURVE",
"597 372 CURVE SMOOTH",
"597 448.667 OFFCURVE",
"619.667 506.667 OFFCURVE",
"665 546 CURVE SMOOTH",
"696.333 573.333 OFFCURVE",
"749.333 598 OFFCURVE",
"824 620 CURVE SMOOTH",
"879.333 635.333 OFFCURVE",
"907 659.667 OFFCURVE",
"907 693 CURVE SMOOTH",
"907 717.667 OFFCURVE",
"899.167 738.667 OFFCURVE",
"883.5 756 CURVE SMOOTH",
"867.833 773.333 OFFCURVE",
"848 782 OFFCURVE",
"824 782 CURVE SMOOTH",
"721.333 782 OFFCURVE",
"629.167 739.333 OFFCURVE",
"547.5 654 CURVE SMOOTH",
"465.833 568.667 OFFCURVE",
"425 474.667 OFFCURVE",
"425 372 CURVE SMOOTH",
"425 311.333 OFFCURVE",
"452.5 255.667 OFFCURVE",
"507.5 205 CURVE SMOOTH",
"562.5 154.333 OFFCURVE",
"621 129 OFFCURVE",
"683 129 CURVE SMOOTH",
"711 129 OFFCURVE",
"739.333 136.667 OFFCURVE",
"768 152 CURVE SMOOTH",
"796.667 167.333 OFFCURVE",
"826 189.667 OFFCURVE",
"856 219 CURVE",
"882.667 185 OFFCURVE",
"917.5 159.5 OFFCURVE",
"960.5 142.5 CURVE SMOOTH",
"1003.5 125.5 OFFCURVE",
"1055 117 OFFCURVE",
"1115 117 CURVE",
"1115 117 LINE"
);
}
);
width = 1610;
}
);
note = at;
unicode = 0040;
},
{
glyphname = ampersand;
layers = (
{
layerId = "677F3FD9-5632-41B7-A1B7-A5DADB8D655F";
paths = (
{
closed = 1;
nodes = (
"925.333 -13.333 OFFCURVE",
"888 -18.667 OFFCURVE",
"840 8 CURVE",
"680 136 LINE",
"648 160 LINE",
"512 96 LINE SMOOTH",
"405.333 48 OFFCURVE",
"314.667 34.667 OFFCURVE",
"240 56 CURVE",
"112 128 LINE",
"32 296 LINE",
"40 384 LINE",
"160 728 LINE",
"224 770.667 OFFCURVE",
"210.667 837.333 OFFCURVE",
"120 928 CURVE",
"77.333 1050.667 OFFCURVE",
"74.667 1162.667 OFFCURVE",
"112 1264 CURVE SMOOTH",
"152 1368 LINE",
"208 1432 LINE",
"272 1488 LINE",
"336 1509.333 OFFCURVE",
"402.667 1512 OFFCURVE",
"472 1496 CURVE",
"560 1408 LINE",
"672 1288 LINE",
"704 1197.333 OFFCURVE",
"704 1080 OFFCURVE",
"672 936 CURVE",
"576 792 LINE",
"464 696 LINE",
"421.333 653.333 OFFCURVE",
"453.333 584 OFFCURVE",
"560 488 CURVE",
"618.667 429.333 OFFCURVE",
"680 429.333 OFFCURVE",
"744 488 CURVE",
"800 624 LINE",
"864 672 OFFCURVE",
"914.667 680 OFFCURVE",
"952 648 CURVE",
"962.667 616 OFFCURVE",
"962.667 573.333 OFFCURVE",
"952 520 CURVE",
"896 432 LINE",
"824 344 LINE",
"808 312 OFFCURVE",
"824 266.667 OFFCURVE",
"872 208 CURVE",
"952 128 LINE",
"962.667 90.667 OFFCURVE",
"962.667 56 OFFCURVE",
"952 24 CURVE",
"952 24 LINE"
);
},
{
closed = 1;
nodes = (
"312 1008 LINE",
"328 968 LINE",
"384 952 LINE",
"440 1008 LINE",
"480 1096 LINE",
"512 1133.333 OFFCURVE",
"509.333 1192 OFFCURVE",
"472 1272 CURVE",
"392 1304 LINE",
"312 1232 LINE",
"274.667 1136 OFFCURVE",
"274.667 1061.333 OFFCURVE",
"312 1008 CURVE"
);
},
{
closed = 1;
nodes = (
"264 256 LINE",
"312 248 LINE",
"328 226.667 OFFCURVE",
"368 229.333 OFFCURVE",
"432 256 CURVE",
"480 296 LINE",
"496 328 OFFCURVE",
"493.333 357.333 OFFCURVE",
"472 384 CURVE",
"368 488 LINE",
"272 464 LINE",
"229.333 384 OFFCURVE",
"226.667 314.667 OFFCURVE",
"264 256 CURVE"
);
}
);
width = 1136;
}
);
note = ampersand;
unicode = 0026;
},
{
glyphname = bar;
layers = (
{
layerId = "677F3FD9-5632-41B7-A1B7-A5DADB8D655F";
paths = (
{
closed = 1;
nodes = (
"334 -310 LINE",
"360 -227 LINE",
"318.667 -363 OFFCURVE",
"268.667 -406.333 OFFCURVE",
"210 -357 CURVE",
"168.667 -285.667 OFFCURVE",
"146.333 -120 OFFCURVE",
"143 140 CURVE",
"148 622 LINE",
"160 897 LINE",
"172 1392 LINE",
"191 1743 LINE",
"210 1873 LINE",
"298 1863 LINE",
"329 1802 LINE",
"391 1576 LINE",
"391 1086 LINE",
"384 931 LINE",
"360 563 LINE",
"354 263 LINE",
"354 -57 LINE",
"360 -227 LINE",
"334 -310 LINE"
);
}
);
width = 568;
}
);
note = bar;
unicode = 007C;
},
{
glyphname = dollar;
layers = (
{
layerId = "677F3FD9-5632-41B7-A1B7-A5DADB8D655F";
paths = (
{
closed = 1;
nodes = (
"470 1086 LINE",
"437 1082 LINE",
"429.667 1075.333 OFFCURVE",
"422 1070 OFFCURVE",
"414 1066 CURVE SMOOTH",
"390 1053 LINE",
"382 1046.333 OFFCURVE",
"375.333 1039.667 OFFCURVE",
"370 1033 CURVE SMOOTH",
"364 1025 OFFCURVE",
"358.667 1017.333 OFFCURVE",
"354 1010 CURVE",
"343 984 LINE",
"339.667 972.667 OFFCURVE",
"337.333 961.333 OFFCURVE",
"336 950 CURVE",
"336 937 LINE",
"334 932 LINE",
"343 883 LINE",
"354 855 LINE",
"372 835 LINE",
"378 827 OFFCURVE",
"384.667 821 OFFCURVE",
"392 817 CURVE",
"470 779 LINE",
"508 781 LINE",
"586 817 LINE",
"601 841 LINE",
"607.667 848.333 OFFCURVE",
"613 855.667 OFFCURVE",
"617 863 CURVE",
"632 888 LINE",
"644 924 LINE",
"641 952 LINE",
"638.333 962 OFFCURVE",
"634.667 971 OFFCURVE",
"630 979 CURVE",
"617 1004 LINE",
"613 1013.333 OFFCURVE",
"608.667 1021.333 OFFCURVE",
"604 1028 CURVE",
"596.667 1035.333 OFFCURVE",
"590.667 1042.667 OFFCURVE",
"586 1050 CURVE",
"535 1075 LINE",
"523 1084 LINE",
"470 1086 LINE"
);
},
{
closed = 1;
nodes = (
"291 761 LINE",
"250 737 LINE",
"240.667 729 OFFCURVE",
"231.667 723 OFFCURVE",
"223 719 CURVE",
"201 694 LINE SMOOTH",
"193 685.333 OFFCURVE",
"187 676.667 OFFCURVE",
"183 668 CURVE",
"175.667 658.667 OFFCURVE",
"169.667 649.667 OFFCURVE",
"165 641 CURVE",
"162.333 625.667 OFFCURVE",
"158 604.333 OFFCURVE",
"152 577 CURVE",
"161 421 LINE",
"159 376 LINE",
"161 369 LINE",
"161 334 LINE",
"167 296 LINE",
"190 274 LINE",
"195.333 263.333 OFFCURVE",
"202 254.333 OFFCURVE",
"210 247 CURVE",
"234 227 LINE",
"263 211 LINE",
"272.333 205 OFFCURVE",
"280.333 198.333 OFFCURVE",
"287 191 CURVE",
"290 187 LINE",
"285 154 LINE",
"287 142 LINE",
"287 65 LINE",
"285 58 LINE",
"285 22 LINE",
"289.667 10.667 OFFCURVE",
"298 3.333 OFFCURVE",
"310 0 CURVE",
"668 2 LINE",
"675 4 LINE",
"697 7 LINE",
"706 4 LINE",
"748 2 LINE",
"758 8 OFFCURVE",
"766.333 14.667 OFFCURVE",
"773 22 CURVE",
"778.333 33.333 OFFCURVE",
"785 42.333 OFFCURVE",
"793 49 CURVE",
"808 78 LINE",
"815 116 LINE",
"813 574 LINE",
"815 583 LINE",
"813 605 LINE",
"804 641 LINE",
"768 694 LINE",
"746 717 LINE",
"717 734 LINE",
"707 740.667 OFFCURVE",
"697.333 746 OFFCURVE",
"688 750 CURVE",
"663 759 LINE",
"508 441 LINE",
"485 356 LINE",
"515 352 LINE",
"522.333 348.667 OFFCURVE",
"528 344 OFFCURVE",
"532 338 CURVE",
"535 307 LINE",
"532 276 LINE",
"530.667 268 OFFCURVE",
"527.667 260.667 OFFCURVE",
"523 254 CURVE",
"494 249 LINE",
"403 258 LINE",
"345 251 LINE",
"339 251 LINE",
"323 249 LINE",
"316 251 LINE",
"287 256 LINE",
"270 272 LINE",
"247 283 LINE",
"243 290.333 OFFCURVE",
"240.333 297.667 OFFCURVE",
"239 305 CURVE",
"221 320 LINE",
"214 345 LINE",
"210 405 LINE",
"216 410.333 OFFCURVE",
"222.667 414.667 OFFCURVE",
"230 418 CURVE",
"296 421 LINE",
"304 417.667 OFFCURVE",
"310.667 413.667 OFFCURVE",
"316 409 CURVE",
"319 383 LINE",
"323 375.667 OFFCURVE",
"327.333 369.667 OFFCURVE",
"332 365 CURVE",
"340 360.333 OFFCURVE",
"347.333 356.667 OFFCURVE",
"354 354 CURVE",
"381 347 LINE",
"403 358 LINE",
"430 352 LINE",
"430 364 LINE",
"471 445 LINE",
"600 737 LINE",
"609 760 LINE",
"572 757 LINE",
"566 759 LINE",
"419 757 LINE",
"399 754 LINE",
"383.667 754.667 OFFCURVE",
"370.333 756.333 OFFCURVE",
"359 759 CURVE",
"291 761 LINE"
);
}
);
width = 994;
}
);
note = dollar;
unicode = 0024;
},
{
glyphname = dollar.001;
layers = (
{
layerId = "677F3FD9-5632-41B7-A1B7-A5DADB8D655F";
paths = (
{
closed = 1;
nodes = (
"493.333 -141 OFFCURVE",
"466.667 -141 OFFCURVE",
"424 -107 CURVE",
"408 -78.333 OFFCURVE",
"386.667 1.333 OFFCURVE",
"360 132 CURVE",
"201 168 LINE",
"32 175 LINE",
"-16 249 OFFCURVE",
"-16 303 OFFCURVE",
"32 337 CURVE",
"152 300 LINE",
"344 311 LINE",
"384 329 LINE",
"392 517 LINE",
"192 559 LINE",
"155 652 LINE",
"72 688 LINE",
"24 727.333 OFFCURVE",
"18.667 807 OFFCURVE",
"56 927 CURVE",
"145 1026 LINE",
"248 1192 LINE",
"344 1200 LINE",
"392 1235 LINE",
"384 1423 LINE",
"432 1491 OFFCURVE",
"472 1508 OFFCURVE",
"504 1474 CURVE",
"504 1209 LINE",
"536 1183 LINE",
"592 1158 LINE",
"662 1120 LINE",
"792 1098 LINE",
"784 987 LINE",
"656 987 LINE",
"512 995 LINE",
"512 730 LINE",
"592 696 LINE",
"728 679 LINE",
"824 594 LINE",
"850.667 491.333 OFFCURVE",
"850.667 397 OFFCURVE",
"824 311 CURVE",
"736 226 LINE",
"664 192 LINE",
"552 158 LINE",
"544 -56 LINE",
"504 -107 LINE",
"504 -107 LINE"
);
},
{
closed = 1;
nodes = (
"536 388 LINE",
"608 397 LINE",
"664 474 LINE",
"632 534 LINE",
"592 551 LINE",
"536 525 LINE",
"520 479.667 OFFCURVE",
"520 434 OFFCURVE",
"536 388 CURVE"
);
},
{
closed = 1;
nodes = (
"232 773 LINE",
"264 739 LINE",
"376 730 LINE",
"392 876 LINE",
"384 987 LINE",
"304 1004 LINE",
"232 935 LINE",
"232 841 LINE",
"232 773 LINE"
);
}
);
width = 1000;
}
);
note = .003;
},
{
glyphname = plus;
layers = (
{
layerId = "677F3FD9-5632-41B7-A1B7-A5DADB8D655F";
paths = (
{
closed = 1;
nodes = (
"901 722 OFFCURVE",
"896.333 712 OFFCURVE",
"893 702 CURVE",
"899 661 LINE",
"891 625 LINE",
"879.667 620.333 OFFCURVE",
"868.667 616.667 OFFCURVE",
"858 614 CURVE",
"817 614 LINE",
"804.333 613.333 OFFCURVE",
"793.333 610.667 OFFCURVE",
"784 606 CURVE",
"778 598 LINE",
"781 568 LINE",
"778 557 LINE",
"781 529 LINE",
"791.667 522.333 OFFCURVE",
"802.667 518 OFFCURVE",
"814 516 CURVE",
"852 521 LINE",
"864.667 517.667 OFFCURVE",
"875.667 514 OFFCURVE",
"885 510 CURVE",
"891 500 OFFCURVE",
"895.667 490 OFFCURVE",
"899 480 CURVE",
"896 439 LINE",
"896.667 426.333 OFFCURVE",
"899.333 415.333 OFFCURVE",
"904 406 CURVE",
"913 400 LINE",
"940 403 LINE",
"970 400 LINE",
"981 403 LINE",
"987.667 413 OFFCURVE",
"992.333 423 OFFCURVE",
"995 433 CURVE",
"992 439 LINE",
"992 477 LINE",
"993.333 487.667 OFFCURVE",
"996 497.667 OFFCURVE",
"1000 507 CURVE",
"1010.667 513.667 OFFCURVE",
"1021 518.333 OFFCURVE",
"1031 521 CURVE",
"1094 516 LINE",
"1105 527 LINE",
"1110 535 LINE",
"1107 562 LINE",
"1110 592 LINE",
"1107 603 LINE",
"1097.667 609.667 OFFCURVE",
"1087.667 614.333 OFFCURVE",
"1077 617 CURVE",
"1039 612 LINE",
"1003 620 LINE",
"997.667 630.667 OFFCURVE",
"994 641.667 OFFCURVE",
"992 653 CURVE",
"989 655 LINE",
"992 661 LINE",
"992 691 LINE",
"995 710 LINE",
"987 727 LINE",
"978 732 LINE",
"951 729 LINE",
"907 732 LINE",
"907 732 LINE"
);
},
{
closed = 1;
nodes = (
"411 683 LINE",
"383 669 LINE",
"373 662.333 OFFCURVE",
"364.667 655 OFFCURVE",
"358 647 CURVE",
"338.667 593.667 OFFCURVE",
"327 562.667 OFFCURVE",
"323 554 CURVE",
"324.333 541.333 OFFCURVE",
"329.667 532.333 OFFCURVE",
"339 527 CURVE",
"378 529 LINE",
"460 527 LINE",
"473.333 529 OFFCURVE",
"485.333 532.667 OFFCURVE",
"496 538 CURVE",
"504 579 LINE",
"501 609 LINE",
"504 617 LINE",
"501 644 LINE",
"497 657.333 OFFCURVE",
"492.333 668.333 OFFCURVE",
"487 677 CURVE",
"479 683 LINE",
"452 680 LINE",
"411 683 LINE"
);
},
{
closed = 1;
nodes = (
"523 80 LINE",
"509 55 LINE",
"503 47.667 OFFCURVE",
"496.667 41.333 OFFCURVE",
"490 36 CURVE SMOOTH",
"446 3 LINE",
"375 0 LINE",
"342 5 LINE",
"334.667 11 OFFCURVE",
"328.333 17.667 OFFCURVE",
"323 25 CURVE",
"298 38 LINE",
"282 60 LINE",
"275.333 68 OFFCURVE",
"270.667 76.333 OFFCURVE",
"268 85 CURVE",
"257.333 145 OFFCURVE",
"258.333 188.167 OFFCURVE",
"271 214.5 CURVE SMOOTH",
"283.667 240.833 OFFCURVE",
"296 257.667 OFFCURVE",
"308 265 CURVE",
"314.667 272.333 OFFCURVE",
"322.333 278 OFFCURVE",
"331 282 CURVE",
"344.333 284.667 OFFCURVE",
"356.333 288.333 OFFCURVE",
"367 293 CURVE",
"419 291 LINE",
"457 282 LINE",
"498 266 LINE",
"517.333 240.667 OFFCURVE",
"528.667 221.333 OFFCURVE",
"532 208 CURVE SMOOTH",
"542 162.667 OFFCURVE",
"544.667 131.667 OFFCURVE",
"540 115 CURVE SMOOTH",
"535.333 98.333 OFFCURVE",
"529.667 86.667 OFFCURVE",
"523 80 CURVE"
);
},
{
closed = 1;
nodes = (
"1266 252 LINE",
"1249 278 LINE",
"1237.667 285.333 OFFCURVE",
"1228 291.333 OFFCURVE",
"1220 296 CURVE",
"1210.667 304 OFFCURVE",
"1200.667 309.667 OFFCURVE",
"1190 313 CURVE",
"1145 317 LINE",
"1125.667 313 OFFCURVE",
"1110.333 311.667 OFFCURVE",
"1099 313 CURVE",
"1052 302 LINE",
"1003.333 273.333 OFFCURVE",
"978.333 202.333 OFFCURVE",
"977 89 CURVE",
"910 80 LINE",
"902 82 LINE",
"877 80 LINE",
"608 80 LINE",
"566 90 LINE",
"552 214 LINE",
"545.333 227.333 OFFCURVE",
"540.333 240 OFFCURVE",
"537 252 CURVE",
"491 300 LINE",
"460 304 LINE",
"422 313 LINE",
"396 314 LINE",
"337 313 LINE",
"307 294 LINE",
"280 279 LINE",
"270.667 267.667 OFFCURVE",
"262 252.333 OFFCURVE",
"254 233 CURVE",
"248 211 OFFCURVE",
"244.333 194.667 OFFCURVE",
"243 184 CURVE",
"246 147 LINE",
"238 104 LINE",
"221 82 LINE",
"186 80 LINE",
"164 96 LINE",
"150 121 LINE",
"153 126 LINE",
"150 148 LINE",
"150 455 LINE",
"155 488 LINE",
"172 507 LINE",
"197 521 LINE",
"230 527 LINE SMOOTH",
"241.333 529 OFFCURVE",
"251.333 532.667 OFFCURVE",
"260 538 CURVE",
"268 568 LINE",
"278 595 LINE",
"305 653 LINE",
"345 719 LINE",
"364 740 LINE",
"374 743.333 OFFCURVE",
"384 745.333 OFFCURVE",
"394 746 CURVE SMOOTH",
"430 749 LINE",
"438 746 LINE",
"463 749 LINE",
"498 746 LINE",
"520 740 LINE",
"529 743 LINE",
"537 749.667 OFFCURVE",
"543.333 757 OFFCURVE",
"548 765 CURVE",
"545 836 LINE",
"553 867 LINE",
"560.333 873.667 OFFCURVE",
"567.667 879 OFFCURVE",
"575 883 CURVE",
"608 889 LINE",
"616 886 LINE",
"638 891 LINE",
"643.333 901.667 OFFCURVE",
"647 911.667 OFFCURVE",
"649 921 CURVE",
"650.333 933.667 OFFCURVE",
"652.333 944.667 OFFCURVE",
"655 954 CURVE",
"668 976 LINE",
"678 982 OFFCURVE",
"687.333 986.667 OFFCURVE",
"696 990 CURVE",
"726 985 LINE",
"734 979 OFFCURVE",
"740.333 972.333 OFFCURVE",
"745 965 CURVE",
"762 905 LINE",
"784 889 LINE",
"819 886 LINE",
"855 889 LINE",
"1277 889 LINE",
"1302 886 LINE",
"1302 889 LINE",
"1310 889 LINE",
"1320.667 885.667 OFFCURVE",
"1330 882 OFFCURVE",
"1338 878 CURVE",
"1352 853 LINE",
"1354 817 LINE",
"1354 321 LINE",
"1352 313 LINE",
"1357 173 LINE",
"1352 101 LINE",
"1345.333 95 OFFCURVE",
"1338.667 89.667 OFFCURVE",
"1332 85 CURVE",
"1322.667 89.667 OFFCURVE",
"1315.333 95 OFFCURVE",
"1310 101 CURVE",
"1305.333 111.667 OFFCURVE",
"1301.667 121 OFFCURVE",
"1299 129 CURVE",
"1299 139 LINE",
"1301 151 LINE",
"1302 186 LINE",
"1298.667 198 OFFCURVE",
"1286.667 220 OFFCURVE",
"1266 252 CURVE"
);
},
{
closed = 1;
nodes = (
"1287.333 153.667 OFFCURVE",
"1283.667 115.333 OFFCURVE",
"1269 66 CURVE",
"1261.667 59.333 OFFCURVE",
"1255.333 52 OFFCURVE",
"1250 44 CURVE",
"1228 27 LINE SMOOTH",
"1220.667 21 OFFCURVE",
"1214.333 14.667 OFFCURVE",
"1209 8 CURVE",
"1179 0 LINE",
"1105 0 LINE",
"1058 30 LINE",
"1039 49 LINE",
"1022 71 LINE",
"1017.333 79.667 OFFCURVE",
"1012 87 OFFCURVE",
"1006 93 CURVE",
"998 130 LINE",
"1022 225 LINE",
"1026.667 234.333 OFFCURVE",
"1033.333 246 OFFCURVE",
"1042 260 CURVE",
"1056 271.333 OFFCURVE",
"1073.333 278.667 OFFCURVE",
"1094 282 CURVE",
"1119.333 291.333 OFFCURVE",
"1140.667 294.667 OFFCURVE",
"1158 292 CURVE",
"1187 285 LINE",
"1213.667 276.333 OFFCURVE",
"1232.167 266.833 OFFCURVE",
"1242.5 256.5 CURVE SMOOTH",
"1252.833 246.167 OFFCURVE",
"1265.333 221 OFFCURVE",
"1280 181 CURVE",
"1280 181 LINE"
);
}
);
width = 1533;
}
);
note = plus;
unicode = 002B;
},
{
glyphname = equal;
layers = (
{
layerId = "677F3FD9-5632-41B7-A1B7-A5DADB8D655F";
paths = (
{
closed = 1;
nodes = (
"765 527 LINE",
"880 509 LINE",
"154 509 LINE",
"114 482 LINE",
"127 390 LINE",
"193 363 LINE",
"893 350 LINE",
"898 479 LINE",
"765 527 LINE"
);
},
{
closed = 1;
nodes = (
"830 780 LINE",
"885 762 LINE",
"158 762 LINE",
"119 735 LINE",
"132 643 LINE",
"198 616 LINE",
"898 603 LINE",
"918 722 LINE",
"830 780 LINE"
);
}
);
width = 1038;
}
);
note = equal;
unicode = 003D;
},
{
glyphname = greater;
layers = (
{
layerId = "677F3FD9-5632-41B7-A1B7-A5DADB8D655F";
paths = (
{
closed = 1;
nodes = (
"40.667 132.667 OFFCURVE",
"40.667 166.333 OFFCURVE",
"66 207 CURVE",
"124 261 LINE",
"248 322 LINE",
"399 416 LINE",
"497 463 LINE",
"604 517 LINE",
"739.333 562.333 OFFCURVE",
"764.333 598.333 OFFCURVE",
"679 625 CURVE",
"571 673 LINE",
"426 726 LINE",
"254 794 LINE",
"173 828 LINE",
"60 902 LINE",
"14 938 OFFCURVE",
"16 980.667 OFFCURVE",
"66 1030 CURVE",
"151 996 LINE",
"377 929 LINE",
"458 895 LINE",
"539 848 LINE",
"668 814 LINE",
"894 706 LINE",
"929.333 648 OFFCURVE",
"925.667 583 OFFCURVE",
"883 511 CURVE",
"813 457 LINE",
"700 369 LINE",
"534 281 LINE",
"426 221 LINE",
"308 173 LINE",
"194 106 LINE",
"66 106 LINE",
"66 106 LINE"
);
}
);
width = 932;
}
);
note = greater;
unicode = 003E;
},
{
glyphname = less;
layers = (
{
layerId = "677F3FD9-5632-41B7-A1B7-A5DADB8D655F";
paths = (
{
closed = 1;
nodes = (
"922 164 OFFCURVE",
"922 198.667 OFFCURVE",
"896 240 CURVE",
"836 296 LINE",
"708 358 LINE",
"553 456 LINE",
"452 504 LINE",
"341 560 LINE",
"202.333 606 OFFCURVE",
"177 643 OFFCURVE",
"265 671 CURVE",
"376 720 LINE",
"525 775 LINE",
"702 845 LINE",
"786 880 LINE",
"902 956 LINE",
"949.333 993.333 OFFCURVE",
"947.333 1037.333 OFFCURVE",
"896 1088 CURVE",
"808 1053 LINE",
"576 984 LINE",
"492 949 LINE",
"409 900 LINE",
"276 866 LINE",
"43 754 LINE",
"7 694 OFFCURVE",
"10.667 627 OFFCURVE",
"54 553 CURVE",
"126 497 LINE",
"243 407 LINE",
"414 317 LINE",
"525 254 LINE",
"647 205 LINE",
"764 136 LINE",
"896 136 LINE",
"896 136 LINE"
);
}
);
width = 930;
}
);
note = less;
unicode = 003C;
},
{
glyphname = asciitilde;
layers = (
{
layerId = "677F3FD9-5632-41B7-A1B7-A5DADB8D655F";
paths = (
{
closed = 1;
nodes = (
"391.667 934 OFFCURVE",
"319.667 903 OFFCURVE",
"251 841 CURVE SMOOTH",
"193 788.333 OFFCURVE",
"146 723 OFFCURVE",
"110 645 CURVE SMOOTH",
"103.333 629.667 OFFCURVE",
"100 615.667 OFFCURVE",
"100 603 CURVE SMOOTH",
"100 579 OFFCURVE",
"109.5 558.5 OFFCURVE",
"128.5 541.5 CURVE SMOOTH",
"147.5 524.5 OFFCURVE",
"169 516 OFFCURVE",
"193 516 CURVE SMOOTH",
"225 516 OFFCURVE",
"250.667 533 OFFCURVE",
"270 567 CURVE SMOOTH",
"343.333 693 OFFCURVE",
"409 756 OFFCURVE",
"467 756 CURVE SMOOTH",
"481 756 OFFCURVE",
"506.333 731 OFFCURVE",
"543 681 CURVE SMOOTH",
"590.333 617 OFFCURVE",
"631.333 570.667 OFFCURVE",
"666 542 CURVE SMOOTH",
"727.333 492 OFFCURVE",
"795 467 OFFCURVE",
"869 467 CURVE SMOOTH",
"943 467 OFFCURVE",
"1007.333 502 OFFCURVE",
"1062 572 CURVE SMOOTH",
"1116 640 OFFCURVE",
"1142.667 718 OFFCURVE",
"1142 806 CURVE",
"1142 831.333 OFFCURVE",
"1133.333 852.167 OFFCURVE",
"1116 868.5 CURVE SMOOTH",
"1098.667 884.833 OFFCURVE",
"1077.333 893 OFFCURVE",
"1052 893 CURVE SMOOTH",
"1010.667 893 OFFCURVE",
"977.167 852 OFFCURVE",
"951.5 770 CURVE SMOOTH",
"925.833 688 OFFCURVE",
"899.333 648 OFFCURVE",
"872 650 CURVE SMOOTH",
"824.667 654 OFFCURVE",
"779 680.667 OFFCURVE",
"735 730 CURVE",
"625 863 LINE",
"577.667 910.333 OFFCURVE",
"525 934 OFFCURVE",
"467 934 CURVE SMOOTH",
"467 934 LINE SMOOTH"
);
}
);
width = 1224;
}
);
note = asciitilde;
unicode = 007E;
},
{
glyphname = asciicircum;
layers = (
{
layerId = "677F3FD9-5632-41B7-A1B7-A5DADB8D655F";
paths = (
{
closed = 1;
nodes = (
"18 752 LINE",
"55 752 LINE SMOOTH",
"116.333 752 OFFCURVE",
"166.667 769 OFFCURVE",
"206 803 CURVE SMOOTH",
"245.333 837 OFFCURVE",
"279.833 875.5 OFFCURVE",
"309.5 918.5 CURVE SMOOTH",
"339.167 961.5 OFFCURVE",
"367.167 1002.333 OFFCURVE",
"393.5 1041 CURVE SMOOTH",
"419.833 1079.667 OFFCURVE",
"451.333 1103.667 OFFCURVE",
"488 1113 CURVE",
"558.667 1113 OFFCURVE",
"614.167 1095.833 OFFCURVE",
"654.5 1061.5 CURVE SMOOTH",
"694.833 1027.167 OFFCURVE",
"730.5 988.5 OFFCURVE",
"761.5 945.5 CURVE SMOOTH",
"792.5 902.5 OFFCURVE",
"823.833 861.667 OFFCURVE",
"855.5 823 CURVE SMOOTH",
"887.167 784.333 OFFCURVE",
"929.667 760.667 OFFCURVE",
"983 752 CURVE",
"1019 752 OFFCURVE",
"1052 771.667 OFFCURVE",
"1082 811 CURVE SMOOTH",
"1112 850.333 OFFCURVE",
"1127 879 OFFCURVE",
"1127 897 CURVE",
"1021 1041 OFFCURVE",
"924.333 1167.167 OFFCURVE",
"837 1275.5 CURVE SMOOTH",
"749.667 1383.833 OFFCURVE",
"642 1474.333 OFFCURVE",
"514 1547 CURVE",
"372 1474.333 OFFCURVE",
"270.167 1377.833 OFFCURVE",
"208.5 1257.5 CURVE SMOOTH",
"146.833 1137.167 OFFCURVE",
"70 1041 OFFCURVE",
"-22 969 CURVE",
"-2 915 OFFCURVE",
"4.667 869.833 OFFCURVE",
"-2 833.5 CURVE SMOOTH",
"-8.667 797.167 OFFCURVE",
"-2 770 OFFCURVE",
"18 752 CURVE"
);
}
);
width = 1183;
}
);
note = asciicircum;
unicode = 005E;
},
{
glyphname = percent;
layers = (
{
layerId = "677F3FD9-5632-41B7-A1B7-A5DADB8D655F";
paths = (
{
closed = 1;
nodes = (
"355 1200.667 OFFCURVE",
"361.833 1162.667 OFFCURVE",
"371.5 1138 CURVE SMOOTH",
"381.167 1113.333 OFFCURVE",
"404.667 1095.333 OFFCURVE",
"442 1084 CURVE",
"403 1045 LINE",
"377 1007 LINE",
"364 981 LINE",
"377 890 LINE",
"359.667 848.667 OFFCURVE",
"342.333 823.333 OFFCURVE",
"325 814 CURVE",
"245.667 782 OFFCURVE",
"181.333 708.667 OFFCURVE",
"132 594 CURVE",
"119 426 LINE",
"123.667 368.667 OFFCURVE",
"132.333 317 OFFCURVE",
"145 271 CURVE",
"163.667 222.333 OFFCURVE",
"185 179.333 OFFCURVE",
"209 142 CURVE",
"313 65 LINE",
"442 0 LINE",
"623 0 LINE",
"752 52 LINE",
"937 232 LINE",
"949.667 163.333 OFFCURVE",
"978.333 111.667 OFFCURVE",
"1023 77 CURVE",
"1067.667 99 OFFCURVE",
"1102 129.333 OFFCURVE",
"1126 168 CURVE",
"1087 310 LINE",
"971 555 LINE",
"868 645 LINE",
"752 658 LINE",
"713 645 LINE",
"681 670.333 OFFCURVE",
"659.333 700.667 OFFCURVE",
"648 736 CURVE",
"656.667 750.667 OFFCURVE",
"665.333 759 OFFCURVE",
"674 761 CURVE",
"790 749 LINE",
"836 754.333 OFFCURVE",
"861.167 770.667 OFFCURVE",
"865.5 798 CURVE SMOOTH",
"869.833 825.333 OFFCURVE",
"863.833 842.667 OFFCURVE",
"847.5 850 CURVE SMOOTH",
"831.167 857.333 OFFCURVE",
"803.667 862.333 OFFCURVE",
"765 865 CURVE",
"715.667 872.333 OFFCURVE",
"668.333 885 OFFCURVE",
"623 903 CURVE",
"610.333 955.667 OFFCURVE",
"593 1003 OFFCURVE",
"571 1045 CURVE",
"519 1084 LINE",
"559.667 1110 OFFCURVE",
"580 1141.333 OFFCURVE",
"580 1178 CURVE SMOOTH",
"580 1214.667 OFFCURVE",
"577 1248 OFFCURVE",
"571 1278 CURVE",
"527 1305.333 OFFCURVE",
"489.5 1319.333 OFFCURVE",
"458.5 1320 CURVE SMOOTH",
"427.5 1320.667 OFFCURVE",
"391.667 1298 OFFCURVE",
"351 1252 CURVE",
"351 1252 LINE"
);
},
{
closed = 1;
nodes = (
"386 697 LINE",
"480 516 LINE",
"610 478 LINE",
"739 490 LINE",
"815 452.667 OFFCURVE",
"845.333 394 OFFCURVE",
"830 314 CURVE",
"717 185 LINE",
"651 147.667 OFFCURVE",
"566.333 134.667 OFFCURVE",
"463 146 CURVE",
"399.667 177.333 OFFCURVE",
"346.667 219 OFFCURVE",
"304 271 CURVE",
"271.333 335.667 OFFCURVE",
"252.667 414.667 OFFCURVE",
"248 508 CURVE",
"277.333 588 OFFCURVE",
"323.333 651 OFFCURVE",
"386 697 CURVE"
);
}
);
width = 1206;
}
);
note = percent;
unicode = 0025;
},
